<svg width="25" height="25" viewBox="0 0 25 25" fill="none" xmlns="http://www.w3.org/2000/svg">
<g clip-path="url(#clip0_59_1098)">
<path d="M23.9651 21.7633V5.28985C23.9651 5.14337 23.8952 5.005 23.7772 4.91801C23.6591 4.83102 23.5072 4.80533 23.3665 4.84905L17.5259 6.66411C17.5811 6.3841 17.6104 6.13936 17.6104 5.93169C17.6104 3.36663 15.5236 1.27979 12.9585 1.27979C10.7087 1.27979 8.80009 2.88672 8.39382 5.05547L1.37406 6.98141C1.17349 7.03685 1.03467 7.21894 1.03467 7.42672V23.8952C1.03467 24.0389 1.10183 24.1746 1.21631 24.2621C1.29744 24.3243 1.39614 24.3567 1.49621 24.3567C1.53677 24.3567 1.57779 24.3513 1.6179 24.3405L9.28712 22.2428L16.4976 24.3382C16.5399 24.3508 16.5832 24.3567 16.6265 24.3567C16.6724 24.3567 16.7184 24.3499 16.763 24.336L16.7715 24.3334L23.6401 22.2041C23.8335 22.1441 23.9651 21.9656 23.9651 21.7633ZM8.82899 21.4108L1.95774 23.2903V7.77874L8.30841 6.03625C8.33583 6.68272 8.6137 7.57458 8.82899 8.18844V21.4108ZM16.1649 23.2804L9.75207 21.4167V10.4804C10.09 11.2479 10.558 12.25 11.0497 13.2419C11.856 14.8821 12.5465 16.1491 12.5533 16.1617C12.6344 16.3095 12.7895 16.4019 12.9585 16.4019C13.1275 16.4019 13.2826 16.3095 13.3637 16.1617C13.3705 16.1491 14.061 14.8821 14.8669 13.2433C15.3781 12.2105 15.8642 11.163 16.1649 10.4799V23.2804ZM14.0389 12.8345C13.6197 13.6872 13.2325 14.4377 12.9585 14.9592C12.6845 14.4372 12.2968 13.6868 11.8772 12.8331C11.1363 11.3382 9.02618 7.13477 9.25853 5.47735C9.48073 3.61047 11.0713 2.20286 12.9585 2.20286C15.0147 2.20286 16.6873 3.87549 16.6873 5.93168C16.6873 7.39956 14.6956 11.509 14.0389 12.8345ZM23.042 21.423L17.088 23.2687V8.18979C17.1452 8.02798 17.1975 7.86977 17.2462 7.71788L23.042 5.9168V21.423Z" fill="#010C0D" fill-opacity="0.5"/>
<path d="M12.9586 3.45312C11.6682 3.45312 10.595 4.50105 10.5667 5.78876C10.5667 5.79237 10.5667 5.84105 10.5667 5.84465C10.5667 7.16616 11.6398 8.24113 12.9586 8.24113C13.8001 8.24113 14.5853 7.79357 15.0017 7.08278C15.2298 6.71454 15.3502 6.28635 15.3502 5.84465C15.3502 4.52584 14.2774 3.45312 12.9586 3.45312ZM14.2107 6.60637C13.9498 7.05213 13.4819 7.31806 12.9586 7.31806C12.1487 7.31806 11.4897 6.6573 11.4897 5.8095C11.5069 5.01893 12.1663 4.3762 12.9586 4.3762C13.7681 4.3762 14.4271 5.03515 14.4271 5.84465C14.4271 6.11463 14.3545 6.3747 14.2107 6.60637Z" fill="#010C0D" fill-opacity="0.5"/>
</g>
<defs>
<clipPath id="clip0_59_1098">
<rect width="24" height="24" fill="white" transform="translate(0.5 0.818359)"/>
</clipPath>
</defs>
</svg>
