<svg width="20" height="20" viewBox="0 0 20 20" fill="none" xmlns="http://www.w3.org/2000/svg">
<g clip-path="url(#clip0_391_1021)">
<path d="M19.554 17.4542V3.72637C19.554 3.6043 19.4958 3.48899 19.3974 3.4165C19.299 3.34401 19.1724 3.3226 19.0552 3.35903L14.188 4.87158C14.234 4.63824 14.2584 4.43429 14.2584 4.26123C14.2584 2.12368 12.5194 0.384644 10.3818 0.384644C8.50702 0.384644 6.91649 1.72376 6.57794 3.53105L0.728139 5.136C0.560997 5.1822 0.445312 5.33394 0.445312 5.50709V19.2308C0.445312 19.3506 0.501278 19.4637 0.596678 19.5365C0.664289 19.5884 0.746543 19.6154 0.829928 19.6154C0.863732 19.6154 0.897913 19.6109 0.931339 19.6019L7.32235 17.8538L13.3311 19.6C13.3664 19.6105 13.4024 19.6154 13.4385 19.6154C13.4768 19.6154 13.5151 19.6098 13.5523 19.5981L13.5593 19.596L19.2832 17.8215C19.4443 17.7716 19.554 17.6229 19.554 17.4542ZM6.94058 17.1605L1.21454 18.7267V5.80044L6.50676 4.34836C6.52962 4.88709 6.76117 5.6303 6.94058 6.14186V17.1605ZM13.0539 18.7185L7.70981 17.1654V8.05179C7.99142 8.69137 8.38142 9.52646 8.79117 10.3531C9.46312 11.7199 10.0385 12.7757 10.0442 12.7862C10.1118 12.9094 10.241 12.9864 10.3818 12.9864C10.5227 12.9864 10.6519 12.9094 10.7195 12.7862C10.7251 12.7757 11.3006 11.7199 11.9721 10.3542C12.3982 9.49359 12.8033 8.62066 13.0539 8.05141V18.7185ZM11.2822 10.0136C10.9328 10.7242 10.6102 11.3496 10.3818 11.7841C10.1535 11.3492 9.83046 10.7238 9.48077 10.0124C8.86333 8.76663 7.10491 5.2638 7.29853 3.88262C7.4837 2.32688 8.8092 1.15387 10.3818 1.15387C12.0953 1.15387 13.4892 2.54773 13.4892 4.26122C13.4892 5.48446 11.8294 8.90895 11.2822 10.0136ZM18.7848 17.1706L13.8231 18.7087V6.14298C13.8708 6.00814 13.9144 5.8763 13.9549 5.74972L18.7848 4.24882V17.1706Z" fill="#D8B282"/>
<path d="M10.382 2.1958C9.30664 2.1958 8.41234 3.06907 8.38867 4.14217C8.38867 4.14517 8.38867 4.18574 8.38867 4.18874C8.38867 5.29 9.28298 6.18581 10.382 6.18581C11.0832 6.18581 11.7375 5.81284 12.0846 5.22051C12.2746 4.91365 12.3749 4.55682 12.3749 4.18874C12.3749 3.08973 11.481 2.1958 10.382 2.1958ZM11.4254 4.8235C11.2079 5.19497 10.8181 5.41658 10.382 5.41658C9.70703 5.41658 9.1579 4.86595 9.1579 4.15944C9.17218 3.50064 9.72168 2.96503 10.382 2.96503C11.0566 2.96503 11.6057 3.51416 11.6057 4.18874C11.6057 4.41372 11.5452 4.63044 11.4254 4.8235Z" fill="#D8B282"/>
</g>
<defs>
<clipPath id="clip0_391_1021">
<rect width="20" height="20" fill="white"/>
</clipPath>
</defs>
</svg>
