<svg width="80" height="80" viewBox="0 0 80 80" fill="none" xmlns="http://www.w3.org/2000/svg">
<path d="M29.2789 37.4827C31.0238 37.5101 32.7858 37.5356 35.1222 37.5406V38.1988C35.1222 39.8089 36.52 41.1333 38.225 41.1333H41.7609C43.468 41.1333 44.8765 39.8079 44.8765 38.1988V37.5406C47.1731 37.5356 48.9072 37.5101 50.6315 37.4827C50.5345 37.7217 50.4332 37.9546 50.3114 38.1876C49.1539 40.3694 48.4427 41.3286 48.0321 43.6345C47.4706 46.7806 47.7734 48.2789 45.9941 51.5583C45.2634 52.8999 44.4724 53.1227 44.0683 53.0789C43.6641 53.0372 43.3268 52.8145 43.3268 52.0363V48.8261C43.3268 47.7703 43.1479 46.8335 42.5821 46.0706C42.0099 45.3027 40.999 44.8632 39.9547 44.8632C38.9104 44.8632 37.9006 45.3027 37.3272 46.0706C36.7593 46.8335 36.5804 47.7713 36.5804 48.8261V52.0363C36.5804 52.8155 36.2431 53.0372 35.8389 53.0789C35.4348 53.1227 34.6438 52.8999 33.9131 51.5583C32.1349 48.2789 32.4377 46.7806 31.8751 43.6345C31.471 41.3286 30.7597 40.3694 29.5979 38.1876C29.4751 37.9546 29.3803 37.7217 29.2789 37.4827ZM61.1553 33.9612H64.6793C65.1848 33.9612 65.5555 34.306 65.5555 34.7821V38.1998C65.5555 38.6748 65.1848 39.0257 64.6793 39.0257H61.1553C60.6498 39.0257 60.2737 38.6758 60.2737 38.1998V34.7821C60.2737 34.306 60.6509 33.9612 61.1553 33.9612ZM38.225 33.9612H41.7609C42.2663 33.9612 42.6371 34.306 42.6371 34.7821V38.1998C42.6371 38.6748 42.2663 39.0257 41.7609 39.0257H38.225C37.7195 39.0257 37.3553 38.6758 37.3553 38.1998V34.7821C37.3553 34.306 37.7195 33.9612 38.225 33.9612ZM15.3065 33.9612H18.8425C19.3479 33.9612 19.7143 34.306 19.7143 34.7821V38.1998C19.7143 38.6748 19.3479 39.0257 18.8425 39.0257H15.3065C14.8011 39.0257 14.4304 38.6758 14.4304 38.1998V34.7821C14.4314 34.306 14.8022 33.9612 15.3065 33.9612ZM10.7726 27.7087C11.9118 27.7087 12.9658 28.0006 13.9659 28.3505C14.966 28.6943 15.8518 29.1236 16.8681 29.2619C18.2368 29.4572 19.28 28.9018 20.1627 28.4939C21.0442 28.081 21.887 27.7087 23.3731 27.7087C24.9121 27.7087 26.215 28.5194 27.1623 29.918C27.2022 29.977 27.2464 30.0289 27.2927 30.0817C26.9102 30.9148 26.6407 31.815 26.5017 32.7579C26.2937 34.1504 28.5159 34.4423 28.725 33.0488C28.9546 31.518 29.6012 30.1397 30.4935 29.1917C31.3794 28.2376 32.4506 27.7077 33.6975 27.7077C34.8324 27.7077 35.8928 27.9996 36.8865 28.3495C37.8866 28.6933 38.7832 29.091 39.7887 29.2609C39.9105 29.2823 40.0118 29.2772 40.126 29.2609C41.1401 29.1337 42.0293 28.6933 43.0261 28.3495C44.0262 27.9996 45.0802 27.7077 46.2215 27.7077C47.4609 27.7077 48.5332 28.2376 49.4255 29.1917C50.3136 30.1397 50.9645 31.518 51.1897 33.0488C51.3956 34.4423 53.6189 34.1504 53.413 32.7579C53.2783 31.8465 53.0132 30.9728 52.6554 30.1621C52.7168 30.0878 52.7772 30.0146 52.8278 29.918C53.7838 28.5194 55.0845 27.7087 56.617 27.7087C58.1118 27.7087 58.9535 28.081 59.8329 28.4939C60.7145 28.9008 61.7523 29.4572 63.1231 29.2619C64.1394 29.1236 65.0318 28.6943 66.0297 28.3505C67.0233 28.0006 68.0838 27.7087 69.2186 27.7087C70.6164 27.7087 71.8051 28.3821 72.7319 29.5589C73.5294 30.5598 74.0575 31.932 74.2138 33.415C72.5864 33.8504 70.4882 34.2369 67.7767 34.5339C67.6355 33.0397 66.2991 31.8425 64.6826 31.8425H61.1585C59.4514 31.8425 58.0428 33.1729 58.0428 34.7831V35.1757C54.0187 35.3395 50.6886 35.4188 44.8787 35.4249V34.7841C44.8787 33.1739 43.4701 31.8435 41.7631 31.8435H38.2271C36.5222 31.8435 35.1244 33.1739 35.1244 34.7841V35.4249C29.3091 35.4198 25.9855 35.3395 21.9603 35.1757V34.7831C21.9603 33.1729 20.5517 31.8425 18.8446 31.8425H15.3087C13.6921 31.8425 12.3579 33.0397 12.2232 34.5339C9.51171 34.2369 7.40696 33.8504 5.77855 33.415C5.94236 31.933 6.46936 30.5598 7.26039 29.5589C8.19045 28.381 9.37916 27.7087 10.7726 27.7087ZM10.7726 25.6011C8.59459 25.6011 6.71831 26.7027 5.45524 28.2864C4.48531 29.5152 3.85162 31.0369 3.59836 32.6776C2.8569 32.3551 2.28895 32.0164 1.92468 31.6777C1.71776 31.4712 1.42678 31.3542 1.12395 31.3542C0.117375 31.3491 -0.380524 32.5087 0.342615 33.1719C1.22418 34.0029 2.45384 34.6499 4.0747 35.1737C4.13829 35.2062 4.19864 35.2205 4.26653 35.2378C6.25382 35.8623 8.82953 36.3078 12.192 36.6628V38.1998C12.192 39.8099 13.6027 41.1343 15.3076 41.1343H18.8435C20.5506 41.1343 21.9592 39.8089 21.9592 38.1998V37.2884C23.6329 37.3576 25.2257 37.3993 26.8994 37.442C27.0168 37.797 27.1516 38.1469 27.3035 38.4968C26.2528 40.4457 25.5792 41.4527 25.1923 43.6355C24.6319 46.7816 24.9358 48.2799 23.1544 51.5593C22.4258 52.9009 21.6348 53.1237 21.2307 53.0799C20.8201 53.0382 20.4892 52.8155 20.4892 52.0373V48.8272C20.4892 47.7713 20.3081 46.8294 19.7316 46.0615C19.1528 45.2925 18.1366 44.8643 17.075 44.8643C16.0135 44.8643 14.9994 45.2925 14.4142 46.0615C13.8376 46.8284 13.663 47.7713 13.663 48.8272V52.0373C13.663 52.8165 13.3257 53.0382 12.9216 53.0799C12.5174 53.1237 11.7264 52.9009 10.9957 51.5593C9.2175 48.2799 9.52034 46.7816 8.95778 43.6355C8.54933 41.3296 7.83589 40.3704 6.68059 38.1886C6.47798 37.7909 6.04043 37.5579 5.58025 37.5905C4.77844 37.6485 4.29455 38.4642 4.67067 39.1417C5.88309 41.415 6.39931 41.9602 6.75926 43.9773C7.27548 46.8813 7.05132 48.9106 9.00951 52.5174C10.0161 54.3728 11.6089 55.3411 13.1641 55.1834C14.7138 55.0248 15.909 53.6577 15.909 52.0363V48.8261C15.909 48.0155 16.0879 47.512 16.2398 47.2841C16.5491 46.8121 17.5977 46.8121 17.9135 47.2841C18.059 47.512 18.2443 48.0155 18.2443 48.8261V52.0363C18.2443 53.6577 19.4395 55.0248 20.9893 55.1834C22.5444 55.3411 24.1383 54.3738 25.1427 52.5174C27.102 48.9106 26.8832 46.8813 27.3951 43.9773C27.6311 42.6601 28.018 41.8372 28.5407 40.878C29.0569 41.8372 29.4438 42.659 29.6799 43.9773C30.1961 46.8813 29.9719 48.9106 31.9301 52.5174C32.9367 54.3728 34.5403 55.3411 36.089 55.1834C37.6441 55.0248 38.8296 53.6577 38.8296 52.0363V48.8261C38.8296 48.0155 39.0149 47.5069 39.1669 47.279C39.4363 46.86 40.4569 46.8284 40.7543 47.279C40.9063 47.512 41.0873 48.0155 41.0873 48.8261V52.0363C41.0873 53.6577 42.2825 55.0248 43.8322 55.1834C45.3852 55.3411 46.9813 54.3738 47.9857 52.5174C49.945 48.9106 49.7262 46.8813 50.236 43.9773C50.4784 42.6265 50.8826 41.7955 51.4214 40.8108C51.9603 41.7955 52.358 42.6265 52.6004 43.9773C53.1167 46.8813 52.8925 48.9106 54.8507 52.5174C55.8616 54.3728 57.4609 55.3411 59.0095 55.1834C60.5647 55.0248 61.7501 53.6577 61.7501 52.0363V48.8261C61.7501 48.0155 61.9118 47.5008 62.0875 47.2841C62.4345 46.8396 63.3883 46.8335 63.7547 47.2841C63.9271 47.5008 64.092 48.0155 64.092 48.8261V52.0363C64.092 53.6577 65.2872 55.0248 66.8369 55.1834C68.3866 55.3411 69.986 54.3738 70.9904 52.5174C72.9496 48.9106 72.7309 46.8813 73.2471 43.9773C73.607 41.9602 74.1168 41.414 75.3249 39.1417C75.9985 37.8743 73.995 36.9212 73.3214 38.1876C72.1597 40.3694 71.4462 41.3286 71.0356 43.6345C70.4795 46.7806 70.7791 48.2789 68.9977 51.5583C68.2735 52.8999 67.4824 53.1227 67.074 53.0789C66.6699 53.0372 66.3368 52.8145 66.3368 52.0363V48.8261C66.3368 47.7703 66.158 46.8284 65.5792 46.0605C65.0027 45.2915 63.9799 44.8632 62.9184 44.8632C61.8633 44.8632 60.8427 45.2915 60.264 46.0605C59.6853 46.8274 59.5128 47.7703 59.5128 48.8261V52.0363C59.5128 52.8155 59.1755 53.0372 58.7714 53.0789C58.3608 53.1227 57.5805 52.8999 56.852 51.5583C55.0716 48.2789 55.3637 46.7806 54.8087 43.6345C54.4153 41.4252 53.731 40.4223 52.6468 38.4154C52.788 38.093 52.9119 37.7685 53.024 37.441C54.7311 37.4043 56.3476 37.3565 58.0482 37.2874V38.1988C58.0482 39.8089 59.4568 41.1333 61.1639 41.1333H64.688C66.395 41.1333 67.809 39.8079 67.809 38.1988V36.6618C74.0791 36.0057 77.6764 35.0364 79.653 33.1709C80.3944 32.4975 79.8653 31.3207 78.8447 31.3532C78.5462 31.3593 78.2724 31.4763 78.0698 31.6767C77.7034 32.0154 77.1441 32.349 76.4069 32.6725C76.1504 31.0308 75.5103 29.5142 74.5382 28.2854C73.2816 26.7017 71.4021 25.6001 69.2229 25.6001C67.6904 25.6001 66.3541 25.9866 65.2591 26.3681C64.1642 26.7485 63.2611 27.1045 62.7966 27.1676C62.1942 27.252 61.7738 27.0292 60.8309 26.5908C59.8879 26.1504 58.5407 25.6001 56.6214 25.6001C54.5058 25.6001 52.6877 26.6376 51.4247 28.1583C51.3234 28.0372 51.2221 27.9101 51.1111 27.7931C49.8814 26.4789 48.1689 25.6001 46.228 25.6001C44.689 25.6001 43.3484 25.9866 42.2534 26.3681C41.2371 26.7241 40.4515 27.0201 39.9633 27.1147C39.4751 27.0201 38.6938 26.7231 37.6732 26.3681C36.5782 25.9866 35.2354 25.6001 33.7029 25.6001C31.7555 25.6001 30.0441 26.4789 28.8155 27.7931C28.725 27.8938 28.6345 27.9996 28.5461 28.1054C27.283 26.6183 25.4811 25.6011 23.3807 25.6011C21.4678 25.6011 20.1206 26.1514 19.1776 26.5918C18.2346 27.0313 17.8133 27.253 17.2141 27.1686C16.7463 27.1045 15.8497 26.7495 14.7558 26.3691C13.6522 25.9876 12.3094 25.6011 10.7726 25.6011Z" fill="#D8B282"/>
</svg>
