<svg width="80" height="80" viewBox="0 0 80 80" fill="none" xmlns="http://www.w3.org/2000/svg">
<g clip-path="url(#clip0_402_1092)">
<path d="M72.5 45.6924C72.8974 45.5327 73.3217 45.4502 73.75 45.4495C74.5543 45.4505 75.337 45.7096 75.983 46.1886C76.629 46.6676 77.1043 47.3414 77.3389 48.1106C78.1087 48.3443 78.783 48.8194 79.2621 49.4656C79.7413 50.1118 80 50.895 80 51.6995C80 52.504 79.7413 53.2872 79.2621 53.9334C78.783 54.5797 78.1087 55.0547 77.3389 55.2884C77.1052 56.0582 76.6302 56.7325 75.9839 57.2116C75.3377 57.6908 74.5545 57.9495 73.75 57.9495C72.9455 57.9495 72.1623 57.6908 71.5161 57.2116C70.8699 56.7325 70.3948 56.0582 70.1611 55.2884C69.3919 55.0538 68.7182 54.5785 68.2391 53.9325C67.7601 53.2865 67.501 52.5038 67.5 51.6995C67.5005 51.2712 67.583 50.8469 67.7429 50.4495C67.5832 50.0521 67.5007 49.6278 67.5 49.1995C67.5006 48.6006 67.6453 48.0106 67.9219 47.4794C68.1985 46.9482 68.5989 46.4914 69.0892 46.1475C69.5795 45.8036 70.1454 45.5827 70.739 45.5035C71.3327 45.4243 71.9367 45.4891 72.5 45.6924ZM70.2063 51.0904C70.0837 51.271 70.0124 51.4815 70 51.6995C70.0002 52.031 70.132 52.3488 70.3664 52.5831C70.6007 52.8175 70.9185 52.9493 71.25 52.9495C71.4142 52.9494 71.5768 52.9817 71.7285 53.0445C71.8802 53.1073 72.018 53.1993 72.1341 53.3154C72.2502 53.4315 72.3423 53.5693 72.405 53.721C72.4678 53.8727 72.5001 54.0353 72.5 54.1995C72.5 54.531 72.6317 54.849 72.8661 55.0834C73.1005 55.3178 73.4185 55.4495 73.75 55.4495C74.0815 55.4495 74.3995 55.3178 74.6339 55.0834C74.8683 54.849 75 54.531 75 54.1995C74.9999 54.0353 75.0322 53.8727 75.095 53.721C75.1577 53.5693 75.2498 53.4315 75.3659 53.3154C75.482 53.1993 75.6198 53.1073 75.7715 53.0445C75.9232 52.9817 76.0858 52.9494 76.25 52.9495C76.5815 52.9495 76.8995 52.8178 77.1339 52.5834C77.3683 52.349 77.5 52.031 77.5 51.6995C77.5 51.368 77.3683 51.05 77.1339 50.8156C76.8995 50.5812 76.5815 50.4495 76.25 50.4495C76.0858 50.4496 75.9232 50.4173 75.7715 50.3546C75.6198 50.2918 75.482 50.1997 75.3659 50.0836C75.2498 49.9675 75.1577 49.8297 75.095 49.678C75.0322 49.5263 74.9999 49.3637 75 49.1995C74.9998 48.8681 74.868 48.5503 74.6336 48.3159C74.3993 48.0815 74.0815 47.9497 73.75 47.9495C73.5305 47.9625 73.3184 48.0342 73.136 48.157C72.9435 48.2713 72.7238 48.3316 72.5 48.3316C72.2762 48.3316 72.0565 48.2713 71.864 48.157C71.6815 48.0342 71.4695 47.9625 71.25 47.9495C70.9185 47.9497 70.6007 48.0815 70.3663 48.3159C70.132 48.5503 70.0002 48.8681 70 49.1995C70.0129 49.4183 70.0846 49.6296 70.2075 49.8111C70.3226 50.0046 70.3833 50.2257 70.3831 50.4509C70.3829 50.6761 70.3218 50.8971 70.2063 51.0904ZM72.4413 32.2787C72.3044 33.1602 71.8574 33.9639 71.1807 34.5452C70.504 35.1265 69.6421 35.4471 68.75 35.4495H61.25C60.7717 35.4483 60.2982 35.3548 59.8554 35.1742C59.6425 35.9685 59.1741 36.6706 58.5225 37.1722C57.8709 37.6738 57.0723 37.9469 56.25 37.9495H48.75C48.2599 37.9491 47.7747 37.852 47.3222 37.6639C47.3072 37.7156 47.3111 37.7669 47.2937 37.8189C47.3461 38.1728 47.349 38.5324 47.3022 38.8871L43.5423 58.2261L76.6601 64.6636C77.636 64.8535 78.4978 65.4233 79.0536 66.2477C79.6094 67.072 79.815 68.0834 79.6252 69.0594L79.1492 71.5151C79.0551 71.9984 78.8667 72.4585 78.5948 72.869C78.3229 73.2795 77.9728 73.6325 77.5645 73.9077C77.1562 74.1829 76.6977 74.375 76.2152 74.473C75.7326 74.5711 75.2355 74.5731 74.7522 74.479L6.0375 61.1234C4.41036 60.8067 2.97566 59.8566 2.04899 58.4822C1.12232 57.1077 0.779596 55.4214 1.0962 53.7943L1.5735 51.3406V51.3356L5.4725 31.2956C3.81113 30.3028 2.43435 28.8977 1.47557 27.2165C0.516795 25.5353 0.00852097 23.6349 0 21.6995L0 11.6995C0.00194521 10.0425 0.66105 8.45392 1.83273 7.28224C3.00441 6.11056 4.59299 5.45145 6.25 5.44951H73.75C75.407 5.45145 76.9956 6.11056 78.1673 7.28224C79.339 8.45392 79.9981 10.0425 80 11.6995V21.6995C79.9994 24.0306 79.2706 26.3032 77.9154 28.2C76.5603 30.0967 74.6464 31.5227 72.4413 32.2787ZM60 31.6995C60.0002 32.031 60.132 32.3488 60.3664 32.5831C60.6007 32.8175 60.9185 32.9493 61.25 32.9495H68.75C69.0815 32.9493 69.3993 32.8175 69.6336 32.5831C69.868 32.3488 69.9998 32.031 70 31.6995V25.4495C70 24.1234 69.4732 22.8517 68.5355 21.914C67.5979 20.9763 66.3261 20.4495 65 20.4495C63.6739 20.4495 62.4021 20.9763 61.4645 21.914C60.5268 22.8517 60 24.1234 60 25.4495V31.6995ZM47.5 34.1995C47.5002 34.531 47.632 34.8488 47.8664 35.0831C48.1007 35.3175 48.4185 35.4493 48.75 35.4495H56.25C56.5815 35.4493 56.8993 35.3175 57.1336 35.0831C57.368 34.8488 57.4998 34.531 57.5 34.1995V25.4495C57.5 24.1234 56.9732 22.8517 56.0355 21.914C55.0979 20.9763 53.8261 20.4495 52.5 20.4495C51.1739 20.4495 49.9021 20.9763 48.9645 21.914C48.0268 22.8517 47.5 24.1234 47.5 25.4495V34.1995ZM17.5 23.1924C17.8974 23.0327 18.3217 22.9502 18.75 22.9495C18.9557 22.9655 19.1595 22.9992 19.3594 23.0501C18.8292 22.076 17.9891 21.3065 16.9722 20.8637C15.9554 20.4209 14.8198 20.33 13.7454 20.6055C12.6711 20.8809 11.7193 21.5069 11.0409 22.3843C10.3625 23.2617 9.99616 24.3404 10 25.4495V27.3805L10.9521 27.117C11.2727 27.0315 11.6031 26.9884 11.9348 26.9888C12.1512 27.0049 12.3658 27.0393 12.5763 27.0917C12.5432 26.9626 12.5177 26.8316 12.5 26.6995C12.5 26.1004 12.6443 25.5101 12.9208 24.9786C13.1972 24.447 13.5976 23.9899 14.0881 23.6459C14.5786 23.3018 15.1447 23.081 15.7386 23.0021C16.3325 22.9232 16.9367 22.9884 17.5 23.1924ZM18.75 25.4495C18.5305 25.4625 18.3184 25.5342 18.136 25.657C17.9435 25.7713 17.7238 25.8316 17.5 25.8316C17.2762 25.8316 17.0565 25.7713 16.864 25.657C16.6816 25.5342 16.4695 25.4625 16.25 25.4495C15.9185 25.4497 15.6007 25.5815 15.3663 25.8159C15.132 26.0502 15.0002 26.3681 15 26.6995C15.0129 26.9183 15.0846 27.1296 15.2075 27.3111C15.3226 27.5046 15.3833 27.7257 15.3831 27.9509C15.3829 28.1761 15.3218 28.3971 15.2063 28.5904C15.0836 28.771 15.0123 28.9815 15 29.1995C15.0002 29.531 15.132 29.8488 15.3664 30.0831C15.6007 30.3175 15.9185 30.4493 16.25 30.4495C16.4142 30.4494 16.5768 30.4817 16.7285 30.5445C16.8802 30.6073 17.018 30.6993 17.1341 30.8154C17.2502 30.9315 17.3423 31.0693 17.405 31.221C17.4678 31.3727 17.5001 31.5353 17.5 31.6995C17.5 32.031 17.6317 32.349 17.8661 32.5834C18.1005 32.8178 18.4185 32.9495 18.75 32.9495C19.0815 32.9495 19.3995 32.8178 19.6339 32.5834C19.8683 32.349 20 32.031 20 31.6995C19.9999 31.5353 20.0322 31.3727 20.095 31.221C20.1577 31.0693 20.2498 30.9315 20.3659 30.8154C20.482 30.6993 20.6198 30.6073 20.7715 30.5445C20.9232 30.4817 21.0858 30.4494 21.25 30.4495C21.5815 30.4495 21.8995 30.3178 22.1339 30.0834C22.3683 29.849 22.5 29.531 22.5 29.1995C22.5 28.868 22.3683 28.55 22.1339 28.3156C21.8995 28.0812 21.5815 27.9495 21.25 27.9495C21.0858 27.9496 20.9232 27.9173 20.7715 27.8546C20.6198 27.7918 20.482 27.6997 20.3659 27.5836C20.2498 27.4675 20.1577 27.3297 20.095 27.178C20.0322 27.0263 19.9999 26.8637 20 26.6995C19.9998 26.3681 19.868 26.0502 19.6336 25.8159C19.3993 25.5815 19.0815 25.4497 18.75 25.4495ZM14.071 52.4976L21.4379 53.9295L25.1966 34.5914C25.242 34.3645 25.223 34.1293 25.1419 33.9126C25.0608 33.6958 24.9208 33.506 24.7376 33.3646L23.3423 32.298C23.0344 32.511 22.6961 32.6763 22.3389 32.7884C22.3271 32.8272 22.2993 32.8576 22.2864 32.8957C22.1786 33.2268 22.025 33.5411 21.83 33.8296C21.8103 33.8581 21.7851 33.8808 21.7645 33.9088C21.5699 34.1705 21.3421 34.4058 21.0869 34.6088C21.0379 34.6481 20.9944 34.6902 20.9433 34.7272C20.6652 34.928 20.3608 35.0895 20.0386 35.2072C19.9719 35.2317 19.9048 35.2493 19.8363 35.2702C19.0629 35.5289 18.2232 35.5071 17.4643 35.2087L14.071 52.4976ZM22.5 25.6894C23.4153 25.9931 24.1732 26.6467 24.6081 27.5074C25.043 28.3682 25.1196 29.366 24.821 30.283L26.261 31.3833C26.5372 31.5946 26.7824 31.8434 26.9896 32.1226C27.2263 31.967 27.4809 31.8405 27.7478 31.7459C27.7938 31.7277 27.8406 31.7118 27.8882 31.6984L27.887 31.6959L30.077 31.0878C30.1923 30.4338 30.4765 29.8212 30.9015 29.3109C31.3266 28.8006 31.8776 28.4102 32.5 28.1786V25.4495C32.5 24.1235 31.9732 22.8517 31.0355 21.914C30.0979 20.9763 28.8261 20.4495 27.5 20.4495C26.1739 20.4495 24.9021 20.9763 23.9645 21.914C23.0268 22.8517 22.5 24.1235 22.5 25.4495V25.6894ZM30 34.1995C30.0201 34.0208 30.0544 33.844 30.1027 33.6708L28.6621 34.0751C28.6106 34.0973 28.5576 34.1156 28.5034 34.1301C28.2262 34.2097 27.9899 34.3922 27.843 34.6404C27.7478 34.7676 27.682 34.9143 27.6501 35.07L23.8916 54.4064L26.8561 54.9828L31.2611 55.8341L34.3568 39.8979C34.3293 39.8829 34.3109 39.8635 34.2845 39.8479C34.138 39.7612 33.9978 39.6645 33.8647 39.5585C33.8192 39.5196 33.7505 39.4924 33.7086 39.451L33.484 39.2252C33.4409 39.1815 33.4013 39.1346 33.3656 39.0848C33.3289 39.0433 33.2923 38.9981 33.2716 38.97L33.2098 38.8821L33.1642 38.8173C33.1101 38.7375 33.0728 38.6771 33.0836 38.6771C33.0287 38.5765 32.9816 38.472 32.9427 38.3643C32.8322 38.1809 32.738 37.9882 32.6612 37.7884C31.8919 37.5538 31.2182 37.0786 30.7391 36.4325C30.2601 35.7865 30.001 35.0038 30 34.1995ZM32.7063 33.5904C32.5837 33.771 32.5124 33.9815 32.5 34.1995C32.5021 34.5087 32.6197 34.806 32.8297 35.0329C33.0397 35.2599 33.3269 35.4002 33.635 35.4263C33.6683 35.4234 33.6964 35.4056 33.7304 35.4056C33.9763 35.4006 34.2179 35.4713 34.4223 35.6081C34.6268 35.7449 34.7842 35.9413 34.8734 36.1706C34.9545 36.3352 34.9978 36.516 35 36.6995C35 36.7175 35.0094 36.7325 35.0102 36.7503L35.0206 36.8013C35.0285 36.8986 35.0479 36.9946 35.0784 37.0874L35.1131 37.2078C35.2342 37.4723 35.444 37.6862 35.7062 37.8125L35.7446 37.8348C35.7748 37.8471 35.8058 37.8576 35.8374 37.8662C35.969 37.9176 36.1086 37.9457 36.2499 37.9495C36.5813 37.9493 36.8991 37.8175 37.1335 37.5831C37.3679 37.3488 37.4996 37.031 37.4999 36.6995C37.4998 36.5353 37.532 36.3727 37.5948 36.221C37.6576 36.0693 37.7497 35.9315 37.8658 35.8154C37.9819 35.6993 38.1197 35.6073 38.2714 35.5445C38.4231 35.4817 38.5857 35.4494 38.7499 35.4495C39.0813 35.4493 39.3991 35.3175 39.6335 35.0831C39.8679 34.8488 39.9996 34.531 39.9999 34.1995L39.9993 34.1962C39.9968 34.1815 39.9871 34.1704 39.9852 34.1556L39.9868 34.1347C39.9717 33.8163 39.8349 33.5158 39.6048 33.2953C39.3746 33.0748 39.0686 32.951 38.7499 32.9495C38.5857 32.9496 38.4231 32.9173 38.2714 32.8546C38.1197 32.7918 37.9819 32.6997 37.8658 32.5836C37.7497 32.4675 37.6576 32.3297 37.5948 32.178C37.532 32.0263 37.4998 31.8637 37.4999 31.6995C37.4996 31.3681 37.3679 31.0502 37.1335 30.8159C36.8991 30.5815 36.5813 30.4497 36.2499 30.4495C36.0303 30.4625 35.8183 30.5342 35.6358 30.657C35.4434 30.7713 35.2237 30.8316 34.9999 30.8316C34.776 30.8316 34.5563 30.7713 34.3639 30.657C34.1814 30.5342 33.9694 30.4625 33.7499 30.4495C33.4184 30.4497 33.1006 30.5815 32.8662 30.8159C32.6318 31.0502 32.5001 31.3681 32.4999 31.6995C32.5128 31.9183 32.5845 32.1296 32.7074 32.3111C32.8225 32.5046 32.8833 32.7257 32.8831 32.9509C32.8829 33.1761 32.8218 33.3971 32.7063 33.5904ZM35 28.1924C35.3974 28.0327 35.8217 27.9502 36.25 27.9495C37.0543 27.9505 37.837 28.2096 38.483 28.6886C39.129 29.1676 39.6043 29.8413 39.8389 30.6106C40.3806 30.7796 40.8769 31.0693 41.2906 31.4577C41.7043 31.8462 42.0245 32.3233 42.2272 32.8534C42.7568 32.9481 43.2572 33.1644 43.689 33.4854L45 34.4984V25.4495C45 24.1234 44.4732 22.8517 43.5355 21.914C42.5979 20.9763 41.3261 20.4495 40 20.4495C38.6739 20.4495 37.4021 20.9763 36.4645 21.914C35.5268 22.8517 35 24.1234 35 25.4495V28.1924ZM44.84 38.4586C44.8697 38.2924 44.8672 38.1221 44.8327 37.9569C44.8221 37.9106 44.8148 37.8637 44.8107 37.8165C44.7381 37.5544 44.5794 37.3244 44.3603 37.1634L42.2387 35.5237C42.0374 36.059 41.7166 36.5412 41.3007 36.9337C40.8848 37.3262 40.3847 37.6185 39.8387 37.7884C39.6273 38.4578 39.2313 39.0539 38.6961 39.5082C38.161 39.9625 37.5085 40.2565 36.8137 40.3565L33.7146 56.3126L35.9046 56.7415L41.0891 57.7492L44.84 38.4586ZM3.5498 54.2728C3.36029 55.249 3.56617 56.2606 4.12219 57.0851C4.67822 57.9096 5.53888 58.4796 6.515 58.6697L75.2283 72.0255C75.5538 72.089 75.8912 72.0207 76.1664 71.8355C76.4416 71.6504 76.6319 71.3635 76.6955 71.038L77.1716 68.5819C77.2346 68.2566 77.1658 67.9195 76.9804 67.6448C76.795 67.3702 76.5081 67.1803 76.1829 67.1171L41.8866 60.4508C41.8695 60.4479 41.8516 60.4545 41.8347 60.4508L35.394 59.1889L26.1659 57.3951L22.1887 56.6262L12.3865 54.7256L6.62332 53.5967L3.789 53.0459L3.5498 54.2728ZM4.26513 50.5875L7.02317 51.1276L11.6333 52.0238L15.1514 33.9444L15.3232 33.12C15.2636 33.0122 15.2095 32.9016 15.1612 32.7884C14.4783 32.5731 13.8718 32.1659 13.4141 31.6153C12.9564 31.0647 12.6669 30.3941 12.58 29.6834C12.2877 29.509 11.9396 29.4538 11.6077 29.5291L8.91482 30.2774C8.69614 30.3462 8.49921 30.4709 8.34354 30.6392C8.18788 30.8075 8.07887 31.0135 8.02733 31.2369L4.26513 50.5875ZM77.5 11.6995C77.4989 10.7053 77.1035 9.75208 76.4005 9.04906C75.6974 8.34603 74.7442 7.95059 73.75 7.94951H6.25C5.25577 7.95059 4.30257 8.34603 3.59955 9.04906C2.89652 9.75208 2.50109 10.7053 2.5 11.6995V21.6995C2.50486 23.152 2.87169 24.5804 3.56731 25.8555C4.26293 27.1306 5.2654 28.2123 6.48408 29.0026C6.7731 28.6749 7.11685 28.3999 7.5 28.1899V25.4495C7.49861 23.8374 8.01719 22.2677 8.97874 20.9737C9.9403 19.6797 11.2935 18.7302 12.8375 18.2664C14.3815 17.8026 16.034 17.849 17.5495 18.3989C19.065 18.9488 20.3627 19.9728 21.25 21.3188C21.9312 20.2835 22.8589 19.4336 23.9498 18.8455C25.0407 18.2574 26.2607 17.9495 27.5 17.9495C28.7393 17.9495 29.9593 18.2574 31.0502 18.8455C32.1411 19.4336 33.0688 20.2835 33.75 21.3188C34.4312 20.2835 35.3589 19.4336 36.4498 18.8455C37.5407 18.2574 38.7607 17.9495 40 17.9495C41.2393 17.9495 42.4593 18.2574 43.5502 18.8455C44.6411 19.4336 45.5688 20.2835 46.25 21.3188C46.9312 20.2835 47.8589 19.4336 48.9498 18.8455C50.0407 18.2574 51.2607 17.9495 52.5 17.9495C53.7393 17.9495 54.9593 18.2574 56.0502 18.8455C57.1411 19.4336 58.0688 20.2835 58.75 21.3188C59.6373 19.9728 60.935 18.9488 62.4505 18.3989C63.966 17.849 65.6184 17.8026 67.1624 18.2664C68.7064 18.7302 70.0597 19.6797 71.0212 20.9737C71.9828 22.2677 72.5014 23.8373 72.5 25.4495V29.5892C73.9961 28.8841 75.2608 27.7678 76.1461 26.3707C77.0315 24.9737 77.5011 23.3535 77.5 21.6995V11.6995ZM55.8582 40.397C56.9892 40.3986 58.0889 40.7689 58.9905 41.4518C59.8922 42.1346 60.5465 43.0929 60.8545 44.1812C61.4241 44.1395 61.9962 44.215 62.5354 44.4031C63.0747 44.5912 63.5696 44.8879 63.9897 45.2748C64.4098 45.6617 64.7461 46.1306 64.9778 46.6526C65.2095 47.1746 65.3318 47.7385 65.337 48.3096C65.3317 49.1849 65.0488 50.036 64.5288 50.7402C64.0089 51.4444 63.2789 51.9653 62.4439 52.2281C62.242 52.8766 61.8828 53.4651 61.3982 53.9411C60.9137 54.4171 60.3189 54.7658 59.6668 54.9561C59.0148 55.1465 58.3258 55.1725 57.6613 55.032C56.9968 54.8914 56.3773 54.5886 55.8582 54.1506C55.2539 54.6579 54.5173 54.9823 53.735 55.0855C52.9527 55.1887 52.1572 55.0665 51.442 54.7331C50.7268 54.3998 50.1216 53.8693 49.6975 53.2039C49.2734 52.5385 49.048 51.7658 49.0479 50.9767C49.0466 50.2851 49.2223 49.6046 49.5585 49.0001C49.8946 48.3956 50.3799 47.8872 50.9681 47.5234C50.7325 46.9242 50.612 46.2861 50.6129 45.6423C50.6146 44.2517 51.1678 42.9186 52.1511 41.9353C53.1344 40.952 54.4676 40.3988 55.8582 40.397ZM53.1909 52.6211C53.5146 52.6218 53.8311 52.5267 54.1008 52.3477C54.3704 52.1686 54.5809 51.9138 54.7059 51.6153C54.8015 51.3889 54.9617 51.1957 55.1664 51.0598C55.3711 50.9239 55.6113 50.8514 55.857 50.8511C56.1027 50.851 56.3442 50.9232 56.5489 51.059C56.7537 51.1947 56.9139 51.3878 57.0094 51.6141C57.1348 51.9126 57.3456 52.1674 57.6154 52.3466C57.8851 52.5258 58.2017 52.6213 58.5255 52.6212C58.9401 52.6198 59.3384 52.4592 59.6378 52.1724C59.9373 51.8857 60.1151 51.4948 60.1344 51.0806C60.1553 50.7793 60.2844 50.4957 60.498 50.2822C60.7116 50.0686 60.9952 49.9394 61.2965 49.9185C61.7107 49.8992 62.1015 49.7214 62.3883 49.422C62.675 49.1225 62.8357 48.7243 62.837 48.3097C62.8366 47.8737 62.6633 47.4557 62.355 47.1474C62.0467 46.8391 61.6287 46.6658 61.1927 46.6654C60.9252 46.6768 60.6648 46.7558 60.4359 46.8949C60.2382 46.9937 60.0176 47.0376 59.7971 47.0222C59.5766 47.0067 59.3643 46.9324 59.1823 46.807C58.994 46.6789 58.8419 46.5045 58.7407 46.3005C58.6396 46.0965 58.5927 45.8698 58.6048 45.6424C58.6048 44.9142 58.3155 44.2157 57.8005 43.7007C57.2855 43.1858 56.5871 42.8965 55.8588 42.8965C55.1305 42.8965 54.4321 43.1858 53.9171 43.7007C53.4021 44.2157 53.1128 44.9142 53.1128 45.6424C53.117 46.2755 53.342 46.8872 53.7488 47.3722C53.8893 47.5432 53.9819 47.7484 54.0171 47.9669C54.0522 48.1854 54.0288 48.4093 53.9491 48.6158C53.8694 48.8222 53.7363 49.0038 53.5634 49.142C53.3905 49.2801 53.1841 49.3699 52.9651 49.4022C52.5783 49.4488 52.2216 49.634 51.961 49.9236C51.7004 50.2131 51.5536 50.5873 51.5479 50.9769C51.5482 51.4126 51.7214 51.8305 52.0294 52.1388C52.3374 52.447 52.7551 52.6205 53.1909 52.6211Z" fill="#D8B282"/>
</g>
<defs>
<clipPath id="clip0_402_1092">
<rect width="80" height="80" fill="white" transform="matrix(1 0 0 -1 0 80)"/>
</clipPath>
</defs>
</svg>
