<svg width="21" height="21" viewBox="0 0 21 21" fill="none" xmlns="http://www.w3.org/2000/svg">
<path d="M11.8607 0.302979V1.68043C13.2231 1.68043 14.4994 2.0248 15.6898 2.71352C16.8227 3.3879 17.7262 4.29186 18.4002 5.42539C19.0886 6.61631 19.4328 7.89333 19.4328 9.25644H20.8096C20.8096 7.63506 20.4008 6.12846 19.5834 4.73666C18.7946 3.3879 17.7262 2.31894 16.3781 1.52977C14.987 0.71191 13.4812 0.302979 11.8607 0.302979ZM4.74025 2.36916C4.35304 2.36916 4.01602 2.49112 3.7292 2.73505L1.51348 4.99493L1.57802 4.95189C1.21949 5.25321 0.98286 5.62627 0.86813 6.07107C0.767742 6.51587 0.796424 6.94633 0.954177 7.36243C1.35573 8.48162 1.89353 9.6295 2.56756 10.8061C3.51408 12.4275 4.63987 13.8838 5.94492 15.1752C8.03873 17.2844 10.6417 18.9488 13.7537 20.1685H13.7752C14.1911 20.3119 14.607 20.3406 15.0229 20.2546C15.4531 20.1685 15.8332 19.9819 16.163 19.695L18.3357 17.5212C18.6225 17.2342 18.7659 16.8827 18.7659 16.4666C18.7659 16.0361 18.6225 15.6774 18.3357 15.3904L15.5177 12.5494C15.2308 12.2624 14.8723 12.119 14.4421 12.119C14.0118 12.119 13.6533 12.2624 13.3665 12.5494L12.0112 13.9269C10.9213 13.4103 9.97479 12.7718 9.17169 12.0113C8.36858 11.2365 7.7304 10.2967 7.25714 9.19187L8.63389 7.81441C8.93506 7.49875 9.08564 7.12568 9.08564 6.69523C9.08564 6.25043 8.91354 5.89171 8.56936 5.61909L8.63389 5.68366L5.75131 2.73505C5.46449 2.49112 5.12747 2.36916 4.74025 2.36916ZM11.8607 3.05789V4.43534C12.7355 4.43534 13.5386 4.65057 14.27 5.08103C15.0157 5.51148 15.6037 6.09977 16.034 6.84589C16.4642 7.57766 16.6793 8.38118 16.6793 9.25644H18.0561C18.0561 8.13725 17.7764 7.09699 17.2171 6.13564C16.6578 5.20299 15.9121 4.45687 14.9799 3.89727C14.019 3.33768 12.9793 3.05789 11.8607 3.05789ZM4.74025 3.74662C4.78328 3.74662 4.83347 3.76814 4.89084 3.81118L7.70888 6.69523C7.72322 6.75262 7.70888 6.80284 7.66586 6.84589L5.62224 8.86903L5.77282 9.29948L6.05247 9.90212C6.28193 10.39 6.54725 10.8635 6.84841 11.3226C7.26431 11.9683 7.72322 12.5207 8.22517 12.9799C8.8992 13.6399 9.70948 14.2425 10.656 14.7878C11.1293 15.0604 11.5308 15.2613 11.8607 15.3904L12.2909 15.5841L14.3775 13.4964C14.4062 13.4677 14.4277 13.4534 14.4421 13.4534C14.4564 13.4534 14.4779 13.4677 14.5066 13.4964L17.4107 16.402C17.4394 16.4307 17.4537 16.4522 17.4537 16.4666C17.4537 16.4666 17.4394 16.4809 17.4107 16.5096L15.2595 18.6403C14.944 18.913 14.5998 18.9847 14.227 18.8556C11.3014 17.722 8.86335 16.1724 6.91295 14.2067C5.70829 13.0014 4.65421 11.6311 3.75071 10.0958C3.10536 8.99099 2.60342 7.92203 2.24489 6.88893V6.86741C2.18752 6.73828 2.18035 6.58762 2.22337 6.41543C2.2664 6.2289 2.34527 6.08542 2.46 5.98498L4.58967 3.81118C4.6327 3.76814 4.68289 3.74662 4.74025 3.74662ZM11.8607 5.8128V7.19025C12.4343 7.19025 12.9219 7.39113 13.3235 7.79289C13.725 8.19465 13.9258 8.6825 13.9258 9.25644H15.3025C15.3025 8.63945 15.1448 8.06551 14.8293 7.53462C14.5281 7.00372 14.1122 6.58762 13.5816 6.2863C13.051 5.97063 12.4773 5.8128 11.8607 5.8128Z" fill="#D8B282"/>
</svg>
