<svg width="80" height="70" viewBox="0 0 80 70" fill="none" xmlns="http://www.w3.org/2000/svg">
<path d="M72.5 40.243C72.8974 40.0832 73.3217 40.0008 73.75 40C74.5543 40.0011 75.337 40.2601 75.983 40.7392C76.629 41.2182 77.1043 41.8919 77.3389 42.6612C78.1087 42.8949 78.783 43.3699 79.2621 44.0161C79.7413 44.6623 80 45.4455 80 46.25C80 47.0545 79.7413 47.8377 79.2621 48.484C78.783 49.1302 78.1087 49.6052 77.3389 49.8389C77.1052 50.6087 76.6302 51.283 75.9839 51.7622C75.3377 52.2414 74.5545 52.5 73.75 52.5C72.9455 52.5 72.1623 52.2414 71.5161 51.7622C70.8699 51.283 70.3948 50.6087 70.1611 49.8389C69.3919 49.6043 68.7182 49.1291 68.2391 48.483C67.7601 47.837 67.501 47.0543 67.5 46.2501C67.5005 45.8217 67.583 45.3974 67.7429 45.0001C67.5832 44.6026 67.5007 44.1784 67.5 43.75C67.5006 43.1511 67.6453 42.5612 67.9219 42.03C68.1985 41.4988 68.5989 41.0419 69.0892 40.698C69.5795 40.3541 70.1454 40.1332 70.739 40.054C71.3327 39.9748 71.9367 40.0396 72.5 40.243ZM70.2063 45.6409C70.0837 45.8215 70.0124 46.0321 70 46.2501C70.0002 46.5815 70.132 46.8993 70.3664 47.1337C70.6007 47.3681 70.9185 47.4998 71.25 47.5001C71.4142 47.5 71.5768 47.5322 71.7285 47.595C71.8802 47.6578 72.018 47.7499 72.1341 47.866C72.2502 47.982 72.3423 48.1199 72.405 48.2716C72.4678 48.4233 72.5001 48.5859 72.5 48.7501C72.5 49.0816 72.6317 49.3995 72.8661 49.6339C73.1005 49.8684 73.4185 50.0001 73.75 50.0001C74.0815 50.0001 74.3995 49.8684 74.6339 49.6339C74.8683 49.3995 75 49.0816 75 48.7501C74.9999 48.5859 75.0322 48.4233 75.095 48.2716C75.1577 48.1199 75.2498 47.982 75.3659 47.866C75.482 47.7499 75.6198 47.6578 75.7715 47.595C75.9232 47.5322 76.0858 47.5 76.25 47.5001C76.5815 47.5001 76.8995 47.3684 77.1339 47.1339C77.3683 46.8995 77.5 46.5816 77.5 46.2501C77.5 45.9185 77.3683 45.6006 77.1339 45.3662C76.8995 45.1317 76.5815 45.0001 76.25 45.0001C76.0858 45.0001 75.9232 44.9679 75.7715 44.9051C75.6198 44.8423 75.482 44.7502 75.3659 44.6341C75.2498 44.5181 75.1577 44.3802 75.095 44.2285C75.0322 44.0768 74.9999 43.9142 75 43.75C74.9998 43.4186 74.868 43.1008 74.6336 42.8664C74.3993 42.632 74.0815 42.5003 73.75 42.5C73.5305 42.5131 73.3184 42.5847 73.136 42.7076C72.9435 42.8218 72.7238 42.8821 72.5 42.8821C72.2762 42.8821 72.0565 42.8218 71.864 42.7076C71.6815 42.5847 71.4695 42.5131 71.25 42.5C70.9185 42.5003 70.6007 42.632 70.3663 42.8664C70.132 43.1008 70.0002 43.4186 70 43.75C70.0129 43.9689 70.0846 44.1801 70.2075 44.3616C70.3226 44.5552 70.3833 44.7762 70.3831 45.0014C70.3829 45.2266 70.3218 45.4476 70.2063 45.6409ZM72.4413 26.8293C72.3044 27.7108 71.8574 28.5145 71.1807 29.0957C70.504 29.677 69.6421 29.9977 68.75 30H61.25C60.7717 29.9988 60.2982 29.9053 59.8554 29.7248C59.6425 30.519 59.1741 31.2211 58.5225 31.7227C57.8709 32.2243 57.0723 32.4975 56.25 32.5H48.75C48.2599 32.4996 47.7747 32.4025 47.3222 32.2144C47.3072 32.2661 47.3111 32.3174 47.2937 32.3694C47.3461 32.7234 47.349 33.0829 47.3022 33.4377L43.5423 52.7767L76.6601 59.2142C77.636 59.4041 78.4978 59.9739 79.0536 60.7982C79.6094 61.6226 79.815 62.634 79.6252 63.6099L79.1492 66.0657C79.0551 66.549 78.8667 67.009 78.5948 67.4195C78.3229 67.8301 77.9728 68.183 77.5645 68.4582C77.1562 68.7335 76.6977 68.9256 76.2152 69.0236C75.7326 69.1216 75.2355 69.1236 74.7522 69.0295L6.0375 55.6739C4.41036 55.3572 2.97566 54.4072 2.04899 53.0327C1.12232 51.6582 0.779596 49.972 1.0962 48.3448L1.5735 45.8912V45.8862L5.4725 25.8461C3.81113 24.8534 2.43435 23.4483 1.47557 21.767C0.516795 20.0858 0.00852097 18.1854 0 16.25L0 6.25005C0.00194521 4.59304 0.66105 3.00446 1.83273 1.83278C3.00441 0.661095 4.59299 0.00199127 6.25 4.57764e-05H73.75C75.407 0.00199127 76.9956 0.661095 78.1673 1.83278C79.339 3.00446 79.9981 4.59304 80 6.25005V16.25C79.9994 18.5811 79.2706 20.8538 77.9154 22.7505C76.5603 24.6472 74.6464 26.0732 72.4413 26.8293ZM60 26.25C60.0002 26.5815 60.132 26.8993 60.3664 27.1337C60.6007 27.3681 60.9185 27.4998 61.25 27.5H68.75C69.0815 27.4998 69.3993 27.3681 69.6336 27.1337C69.868 26.8993 69.9998 26.5815 70 26.25V20C70 18.674 69.4732 17.4022 68.5355 16.4645C67.5979 15.5268 66.3261 15 65 15C63.6739 15 62.4021 15.5268 61.4645 16.4645C60.5268 17.4022 60 18.674 60 20V26.25ZM47.5 28.75C47.5002 29.0815 47.632 29.3993 47.8664 29.6337C48.1007 29.8681 48.4185 29.9998 48.75 30H56.25C56.5815 29.9998 56.8993 29.8681 57.1336 29.6337C57.368 29.3993 57.4998 29.0815 57.5 28.75V20C57.5 18.674 56.9732 17.4022 56.0355 16.4645C55.0979 15.5268 53.8261 15 52.5 15C51.1739 15 49.9021 15.5268 48.9645 16.4645C48.0268 17.4022 47.5 18.674 47.5 20V28.75ZM17.5 17.743C17.8974 17.5832 18.3217 17.5008 18.75 17.5C18.9557 17.516 19.1595 17.5497 19.3594 17.6006C18.8292 16.6265 17.9891 15.8571 16.9722 15.4143C15.9554 14.9715 14.8198 14.8806 13.7454 15.156C12.6711 15.4314 11.7193 16.0574 11.0409 16.9348C10.3625 17.8123 9.99616 18.8909 10 20V21.931L10.9521 21.6675C11.2727 21.5821 11.6031 21.539 11.9348 21.5393C12.1512 21.5554 12.3658 21.5899 12.5763 21.6422C12.5432 21.5131 12.5177 21.3822 12.5 21.25C12.5 20.6509 12.6443 20.0606 12.9208 19.5291C13.1972 18.9976 13.5976 18.5404 14.0881 18.1964C14.5786 17.8524 15.1447 17.6315 15.7386 17.5526C16.3325 17.4737 16.9367 17.539 17.5 17.743ZM18.75 20C18.5305 20.0131 18.3184 20.0847 18.136 20.2075C17.9435 20.3218 17.7238 20.3821 17.5 20.3821C17.2762 20.3821 17.0565 20.3218 16.864 20.2075C16.6816 20.0847 16.4695 20.0131 16.25 20C15.9185 20.0003 15.6007 20.132 15.3663 20.3664C15.132 20.6008 15.0002 20.9186 15 21.25C15.0129 21.4689 15.0846 21.6801 15.2075 21.8616C15.3226 22.0552 15.3833 22.2762 15.3831 22.5014C15.3829 22.7266 15.3218 22.9476 15.2063 23.1409C15.0836 23.3215 15.0123 23.5321 15 23.75C15.0002 24.0815 15.132 24.3993 15.3664 24.6337C15.6007 24.8681 15.9185 24.9998 16.25 25C16.4142 25 16.5768 25.0322 16.7285 25.095C16.8802 25.1578 17.018 25.2499 17.1341 25.366C17.2502 25.482 17.3423 25.6199 17.405 25.7716C17.4678 25.9233 17.5001 26.0859 17.5 26.25C17.5 26.5816 17.6317 26.8995 17.8661 27.1339C18.1005 27.3684 18.4185 27.5 18.75 27.5C19.0815 27.5 19.3995 27.3684 19.6339 27.1339C19.8683 26.8995 20 26.5816 20 26.25C19.9999 26.0859 20.0322 25.9233 20.095 25.7716C20.1577 25.6199 20.2498 25.482 20.3659 25.366C20.482 25.2499 20.6198 25.1578 20.7715 25.095C20.9232 25.0322 21.0858 25 21.25 25C21.5815 25 21.8995 24.8684 22.1339 24.6339C22.3683 24.3995 22.5 24.0816 22.5 23.75C22.5 23.4185 22.3683 23.1006 22.1339 22.8662C21.8995 22.6317 21.5815 22.5 21.25 22.5C21.0858 22.5001 20.9232 22.4679 20.7715 22.4051C20.6198 22.3423 20.482 22.2502 20.3659 22.1341C20.2498 22.018 20.1577 21.8802 20.095 21.7285C20.0322 21.5768 19.9999 21.4142 20 21.25C19.9998 20.9186 19.868 20.6008 19.6336 20.3664C19.3993 20.132 19.0815 20.0003 18.75 20ZM14.071 47.0481L21.4379 48.48L25.1966 29.1419C25.242 28.915 25.223 28.6799 25.1419 28.4631C25.0608 28.2464 24.9208 28.0566 24.7376 27.9151L23.3423 26.8485C23.0344 27.0615 22.6961 27.2268 22.3389 27.339C22.3271 27.3777 22.2993 27.4081 22.2864 27.4462C22.1786 27.7773 22.025 28.0917 21.83 28.3801C21.8103 28.4086 21.7851 28.4314 21.7645 28.4593C21.5699 28.721 21.3421 28.9563 21.0869 29.1593C21.0379 29.1987 20.9944 29.2408 20.9433 29.2777C20.6652 29.4785 20.3608 29.64 20.0386 29.7577C19.9719 29.7823 19.9048 29.7998 19.8363 29.8207C19.0629 30.0794 18.2232 30.0576 17.4643 29.7592L14.071 47.0481ZM22.5 20.2399C23.4153 20.5436 24.1732 21.1972 24.6081 22.058C25.043 22.9187 25.1196 23.9166 24.821 24.8336L26.261 25.9339C26.5372 26.1451 26.7824 26.394 26.9896 26.6732C27.2263 26.5176 27.4809 26.3911 27.7478 26.2964C27.7938 26.2782 27.8406 26.2624 27.8882 26.2489L27.887 26.2464L30.077 25.6383C30.1923 24.9843 30.4765 24.3718 30.9015 23.8614C31.3266 23.3511 31.8776 22.9608 32.5 22.7291V20.0001C32.5 18.674 31.9732 17.4022 31.0355 16.4645C30.0979 15.5269 28.8261 15.0001 27.5 15.0001C26.1739 15.0001 24.9021 15.5269 23.9645 16.4645C23.0268 17.4022 22.5 18.674 22.5 20.0001V20.2399ZM30 28.75C30.0201 28.5714 30.0544 28.3945 30.1027 28.2213L28.6621 28.6256C28.6106 28.6478 28.5576 28.6662 28.5034 28.6806C28.2262 28.7602 27.9899 28.9428 27.843 29.1909C27.7478 29.3182 27.682 29.4649 27.6501 29.6206L23.8916 48.957L26.8561 49.5333L31.2611 50.3846L34.3568 34.4485C34.3293 34.4335 34.3109 34.414 34.2845 34.3985C34.138 34.3118 33.9978 34.2151 33.8647 34.109C33.8192 34.0701 33.7505 34.0429 33.7086 34.0015L33.484 33.7757C33.4409 33.7321 33.4013 33.6851 33.3656 33.6353C33.3289 33.5938 33.2923 33.5487 33.2716 33.5206L33.2098 33.4327L33.1642 33.3678C33.1101 33.288 33.0728 33.2276 33.0836 33.2276C33.0287 33.1271 32.9816 33.0225 32.9427 32.9148C32.8322 32.7315 32.738 32.5388 32.6612 32.3389C31.8919 32.1044 31.2182 31.6291 30.7391 30.9831C30.2601 30.337 30.001 29.5543 30 28.75ZM32.7063 28.1409C32.5837 28.3215 32.5124 28.5321 32.5 28.75C32.5021 29.0592 32.6197 29.3565 32.8297 29.5835C33.0397 29.8105 33.3269 29.9508 33.635 29.9769C33.6683 29.9739 33.6964 29.9561 33.7304 29.9561C33.9763 29.9511 34.2179 30.0218 34.4223 30.1586C34.6268 30.2955 34.7842 30.4918 34.8734 30.7211C34.9545 30.8858 34.9978 31.0665 35 31.25C35 31.2681 35.0094 31.283 35.0102 31.3008L35.0206 31.3518C35.0285 31.4491 35.0479 31.5452 35.0784 31.6379L35.1131 31.7583C35.2342 32.0229 35.444 32.2368 35.7062 32.363L35.7446 32.3853C35.7748 32.3977 35.8058 32.4082 35.8374 32.4167C35.969 32.4681 36.1086 32.4963 36.2499 32.5C36.5813 32.4998 36.8991 32.3681 37.1335 32.1337C37.3679 31.8993 37.4996 31.5815 37.4999 31.25C37.4998 31.0859 37.532 30.9233 37.5948 30.7716C37.6576 30.6199 37.7497 30.482 37.8658 30.366C37.9819 30.2499 38.1197 30.1578 38.2714 30.095C38.4231 30.0322 38.5857 30 38.7499 30C39.0813 29.9998 39.3991 29.8681 39.6335 29.6337C39.8679 29.3993 39.9996 29.0815 39.9999 28.75L39.9993 28.7467C39.9968 28.732 39.9871 28.7209 39.9852 28.7061L39.9868 28.6852C39.9717 28.3668 39.8349 28.0663 39.6048 27.8458C39.3746 27.6253 39.0686 27.5015 38.7499 27.5C38.5857 27.5001 38.4231 27.4679 38.2714 27.4051C38.1197 27.3423 37.9819 27.2502 37.8658 27.1341C37.7497 27.018 37.6576 26.8802 37.5948 26.7285C37.532 26.5768 37.4998 26.4142 37.4999 26.25C37.4996 25.9186 37.3679 25.6008 37.1335 25.3664C36.8991 25.132 36.5813 25.0003 36.2499 25C36.0303 25.0131 35.8183 25.0847 35.6358 25.2075C35.4434 25.3218 35.2237 25.3821 34.9999 25.3821C34.776 25.3821 34.5563 25.3218 34.3639 25.2075C34.1814 25.0847 33.9694 25.0131 33.7499 25C33.4184 25.0003 33.1006 25.132 32.8662 25.3664C32.6318 25.6008 32.5001 25.9186 32.4999 26.25C32.5128 26.4689 32.5845 26.6801 32.7074 26.8616C32.8225 27.0551 32.8833 27.2762 32.8831 27.5014C32.8829 27.7266 32.8218 27.9476 32.7063 28.1409ZM35 22.743C35.3974 22.5832 35.8217 22.5008 36.25 22.5C37.0543 22.501 37.837 22.7601 38.483 23.2391C39.129 23.7182 39.6043 24.3919 39.8389 25.1612C40.3806 25.3302 40.8769 25.6198 41.2906 26.0083C41.7043 26.3967 42.0245 26.8739 42.2272 27.4039C42.7568 27.4986 43.2572 27.715 43.689 28.0359L45 29.049V20C45 18.674 44.4732 17.4022 43.5355 16.4645C42.5979 15.5268 41.3261 15 40 15C38.6739 15 37.4021 15.5268 36.4645 16.4645C35.5268 17.4022 35 18.674 35 20V22.743ZM44.84 33.0091C44.8697 32.8429 44.8672 32.6726 44.8327 32.5074C44.8221 32.4612 44.8148 32.4143 44.8107 32.367C44.7381 32.105 44.5794 31.875 44.3603 31.714L42.2387 30.0742C42.0374 30.6095 41.7166 31.0918 41.3007 31.4843C40.8848 31.8767 40.3847 32.1691 39.8387 32.339C39.6273 33.0083 39.2313 33.6045 38.6961 34.0588C38.161 34.5131 37.5085 34.8071 36.8137 34.907L33.7146 50.8631L35.9046 51.2921L41.0891 52.2998L44.84 33.0091ZM3.5498 48.8233C3.36029 49.7995 3.56617 50.8111 4.12219 51.6356C4.67822 52.4601 5.53888 53.0301 6.515 53.2203L75.2283 66.576C75.5538 66.6396 75.8912 66.5713 76.1664 66.3861C76.4416 66.2009 76.6319 65.914 76.6955 65.5885L77.1716 63.1325C77.2346 62.8071 77.1658 62.4701 76.9804 62.1954C76.795 61.9207 76.5081 61.7309 76.1829 61.6676L41.8866 55.0014C41.8695 54.9985 41.8516 55.005 41.8347 55.0014L35.394 53.7395L26.1659 51.9457L22.1887 51.1768L12.3865 49.2761L6.62332 48.1473L3.789 47.5964L3.5498 48.8233ZM4.26513 45.138L7.02317 45.6782L11.6333 46.5743L15.1514 28.4949L15.3232 27.6705C15.2636 27.5628 15.2095 27.4521 15.1612 27.3389C14.4783 27.1237 13.8718 26.7164 13.4141 26.1659C12.9564 25.6153 12.6669 24.9446 12.58 24.2339C12.2877 24.0595 11.9396 24.0043 11.6077 24.0796L8.91482 24.8279C8.69614 24.8967 8.49921 25.0214 8.34354 25.1897C8.18788 25.358 8.07887 25.564 8.02733 25.7874L4.26513 45.138ZM77.5 6.25005C77.4989 5.25582 77.1035 4.30262 76.4005 3.59959C75.6974 2.89657 74.7442 2.50113 73.75 2.50005H6.25C5.25577 2.50113 4.30257 2.89657 3.59955 3.59959C2.89652 4.30262 2.50109 5.25582 2.5 6.25005V16.25C2.50486 17.7026 2.87169 19.1309 3.56731 20.4061C4.26293 21.6812 5.2654 22.7628 6.48408 23.5531C6.7731 23.2254 7.11685 22.9504 7.5 22.7404V20.0001C7.49861 18.3879 8.01719 16.8183 8.97874 15.5242C9.9403 14.2302 11.2935 13.2808 12.8375 12.8169C14.3815 12.3531 16.034 12.3996 17.5495 12.9495C19.065 13.4994 20.3627 14.5233 21.25 15.8694C21.9312 14.834 22.8589 13.9841 23.9498 13.396C25.0407 12.8079 26.2607 12.5001 27.5 12.5001C28.7393 12.5001 29.9593 12.8079 31.0502 13.396C32.1411 13.9841 33.0688 14.834 33.75 15.8694C34.4312 14.834 35.3589 13.9841 36.4498 13.396C37.5407 12.8079 38.7607 12.5001 40 12.5001C41.2393 12.5001 42.4593 12.8079 43.5502 13.396C44.6411 13.9841 45.5688 14.834 46.25 15.8694C46.9312 14.834 47.8589 13.9841 48.9498 13.396C50.0407 12.8079 51.2607 12.5001 52.5 12.5001C53.7393 12.5001 54.9593 12.8079 56.0502 13.396C57.1411 13.9841 58.0688 14.834 58.75 15.8694C59.6373 14.5233 60.935 13.4994 62.4505 12.9495C63.966 12.3996 65.6184 12.3531 67.1624 12.8169C68.7064 13.2808 70.0597 14.2302 71.0212 15.5242C71.9828 16.8182 72.5014 18.3879 72.5 20V24.1398C73.9961 23.4346 75.2608 22.3183 76.1461 20.9213C77.0315 19.5242 77.5011 17.9041 77.5 16.2501V6.25005ZM55.8582 34.9476C56.9892 34.9491 58.0889 35.3194 58.9905 36.0023C59.8922 36.6852 60.5465 37.6434 60.8545 38.7317C61.4241 38.69 61.9962 38.7656 62.5354 38.9537C63.0747 39.1418 63.5696 39.4384 63.9897 39.8253C64.4098 40.2122 64.7461 40.6812 64.9778 41.2031C65.2095 41.7251 65.3318 42.2891 65.337 42.8602C65.3317 43.7355 65.0488 44.5865 64.5288 45.2907C64.0089 45.9949 63.2789 46.5159 62.4439 46.7786C62.242 47.4271 61.8828 48.0156 61.3982 48.4916C60.9137 48.9676 60.3189 49.3163 59.6668 49.5067C59.0148 49.697 58.3258 49.7231 57.6613 49.5825C56.9968 49.4419 56.3773 49.1391 55.8582 48.7011C55.2539 49.2085 54.5173 49.5328 53.735 49.636C52.9527 49.7392 52.1572 49.617 51.442 49.2837C50.7268 48.9504 50.1216 48.4198 49.6975 47.7544C49.2734 47.089 49.048 46.3163 49.0479 45.5273C49.0466 44.8356 49.2223 44.1551 49.5585 43.5506C49.8946 42.9461 50.3799 42.4377 50.9681 42.0739C50.7325 41.4748 50.612 40.8366 50.6129 40.1928C50.6146 38.8022 51.1678 37.4691 52.1511 36.4858C53.1344 35.5025 54.4676 34.9493 55.8582 34.9476ZM53.1909 47.1717C53.5146 47.1724 53.8311 47.0772 54.1008 46.8982C54.3704 46.7192 54.5809 46.4643 54.7059 46.1658C54.8015 45.9395 54.9617 45.7463 55.1664 45.6104C55.3711 45.4745 55.6113 45.4019 55.857 45.4017C56.1027 45.4015 56.3442 45.4738 56.5489 45.6095C56.7537 45.7452 56.9139 45.9383 57.0094 46.1646C57.1348 46.4631 57.3456 46.718 57.6154 46.8971C57.8851 47.0763 58.2017 47.1718 58.5255 47.1717C58.9401 47.1704 59.3384 47.0097 59.6378 46.723C59.9373 46.4362 60.1151 46.0453 60.1344 45.6312C60.1553 45.3299 60.2844 45.0463 60.498 44.8327C60.7116 44.6191 60.9952 44.49 61.2965 44.4691C61.7107 44.4498 62.1015 44.272 62.3883 43.9725C62.675 43.673 62.8357 43.2748 62.837 42.8602C62.8366 42.4242 62.6633 42.0062 62.355 41.698C62.0467 41.3897 61.6287 41.2163 61.1927 41.2159C60.9252 41.2274 60.6648 41.3063 60.4359 41.4454C60.2382 41.5442 60.0176 41.5882 59.7971 41.5727C59.5766 41.5573 59.3643 41.4829 59.1823 41.3575C58.994 41.2295 58.8419 41.055 58.7407 40.851C58.6396 40.647 58.5927 40.4204 58.6048 40.193C58.6048 39.4647 58.3155 38.7662 57.8005 38.2513C57.2855 37.7363 56.5871 37.447 55.8588 37.447C55.1305 37.447 54.4321 37.7363 53.9171 38.2513C53.4021 38.7662 53.1128 39.4647 53.1128 40.193C53.117 40.826 53.342 41.4377 53.7488 41.9227C53.8893 42.0937 53.9819 42.2989 54.0171 42.5174C54.0522 42.7359 54.0288 42.9598 53.9491 43.1663C53.8694 43.3728 53.7363 43.5543 53.5634 43.6925C53.3905 43.8307 53.1841 43.9205 52.9651 43.9527C52.5783 43.9993 52.2216 44.1846 51.961 44.4741C51.7004 44.7637 51.5536 45.1379 51.5479 45.5274C51.5482 45.9632 51.7214 46.381 52.0294 46.6893C52.3374 46.9976 52.7551 47.171 53.1909 47.1717Z" fill="white"/>
</svg>
