<svg width="80" height="80" viewBox="0 0 80 80" fill="none" xmlns="http://www.w3.org/2000/svg">
<path d="M77.959 49.3024C76.9837 48.4146 75.7528 47.8576 74.4421 47.7111C74.3927 46.9196 74.2722 46.1343 74.0821 45.3644C73.9556 44.8891 73.7115 44.4532 73.3723 44.097C73.0331 43.7407 72.6098 43.4755 72.1412 43.3258C67.4837 41.8133 62.4613 41.8356 57.8174 43.3893C57.3538 43.543 56.9357 43.8096 56.6007 44.165C56.2658 44.5204 56.0244 44.9536 55.8985 45.4254C55.5928 46.7171 55.4869 48.0479 55.5844 49.3717L54.0381 49.5246C52.9737 49.6222 51.9141 49.6686 50.8496 49.6686H49.3909C49.5251 48.2267 49.4207 46.7724 49.082 45.3644C48.9555 44.8891 48.7114 44.4532 48.3722 44.097C48.033 43.7407 47.6097 43.4755 47.1411 43.3258C42.4836 41.8133 37.4612 41.8356 32.8173 43.3893C32.3537 43.543 31.9356 43.8096 31.6006 44.165C31.2657 44.5204 31.0243 44.9536 30.8983 45.4254C30.5645 46.8135 30.4614 48.2471 30.5932 49.6686H29.1503C28.0858 49.6686 27.0263 49.6206 25.9716 49.5246L24.3998 49.3696C24.4994 48.0261 24.3922 46.6753 24.082 45.3643C23.9554 44.889 23.7113 44.4531 23.3721 44.0968C23.033 43.7406 22.6096 43.4754 22.141 43.3257H22.1385C17.4811 41.8132 12.4611 41.8355 7.81723 43.3892C7.35364 43.5429 6.93554 43.8094 6.60057 44.1649C6.26559 44.5203 6.02425 44.9534 5.89828 45.4253C5.71325 46.1777 5.5955 46.9451 5.5464 47.7184C4.02086 47.8882 2.61153 48.6147 1.58818 49.7588C0.564837 50.9029 -0.00063658 52.3841 5.37793e-07 53.9191V68.4186C0.00153622 70.0757 0.66051 71.6646 1.83228 72.8363C3.00405 74.0081 4.59287 74.6671 6.25 74.6686H73.75C75.4071 74.6671 76.9959 74.0081 78.1677 72.8363C79.3395 71.6646 79.9985 70.0757 80 68.4186V53.9191C79.9988 53.0501 79.8168 52.1908 79.4654 51.396C79.114 50.6011 78.601 49.8881 77.959 49.3024ZM58.3252 46.0309C58.3515 45.9616 58.3945 45.8998 58.4502 45.8508C58.5059 45.8019 58.5728 45.7673 58.645 45.7502C62.771 44.3704 67.2313 44.3541 71.3672 45.7038C71.4327 45.7224 71.493 45.7561 71.5431 45.8024C71.5931 45.8486 71.6316 45.906 71.6553 45.9699C72.2929 48.5249 71.9642 51.2254 70.7324 53.5529L70.4149 54.1535L69.4164 51.9758C69.0286 51.13 68.4062 50.4134 67.623 49.911C66.8399 49.4085 65.9291 49.1414 64.9986 49.1414C64.0682 49.1414 63.1574 49.4085 62.3743 49.911C61.5912 50.4134 60.9687 51.13 60.5809 51.9758L59.5848 54.1535L59.2333 53.487C58.023 51.1982 57.6997 48.5433 58.3252 46.0309ZM33.3252 46.0309C33.3515 45.9616 33.3945 45.8998 33.4502 45.8508C33.506 45.8019 33.5728 45.7673 33.645 45.7502C37.771 44.3704 42.2313 44.3541 46.3672 45.7038C46.4327 45.7224 46.493 45.7561 46.5431 45.8024C46.5931 45.8486 46.6316 45.906 46.6553 45.9699C47.2929 48.5249 46.9642 51.2254 45.7324 53.5529L45.4149 54.1535L44.4164 51.9758C44.0286 51.13 43.4061 50.4134 42.623 49.911C41.8399 49.4085 40.9291 49.1414 39.9986 49.1414C39.0682 49.1414 38.1574 49.4085 37.3743 49.911C36.5912 50.4134 35.9687 51.13 35.5809 51.9758L34.5848 54.1535L34.2333 53.487C33.023 51.1982 32.6997 48.5433 33.3252 46.0309ZM8.32518 46.0309C8.35153 45.9616 8.39445 45.8998 8.4502 45.8508C8.50595 45.8019 8.57283 45.7673 8.645 45.7502C12.771 44.3704 17.2313 44.3541 21.3672 45.7038C21.4328 45.7224 21.493 45.7561 21.5431 45.8024C21.5931 45.8486 21.6316 45.906 21.6553 45.9699C22.2929 48.5249 21.9642 51.2254 20.7324 53.5529L20.4149 54.1535L19.4164 51.9758C19.0286 51.13 18.4061 50.4134 17.623 49.911C16.8399 49.4085 15.9291 49.1414 14.9987 49.1414C14.0682 49.1414 13.1574 49.4085 12.3743 49.911C11.5912 50.4134 10.9687 51.13 10.5809 51.9758L9.58483 54.1535L9.23328 53.487C8.02302 51.1982 7.69966 48.5433 8.32518 46.0309ZM77.5 68.4186C77.4989 69.4128 77.1035 70.366 76.4005 71.0691C75.6974 71.7721 74.7442 72.1675 73.75 72.1686H6.25C5.25577 72.1675 4.30258 71.7721 3.59955 71.0691C2.89652 70.366 2.50109 69.4128 2.5 68.4186V53.9191C2.49598 53.034 2.80967 52.1769 3.38405 51.5035C3.95843 50.8301 4.75537 50.3852 5.63 50.2495C5.82693 51.789 6.29819 53.2808 7.02145 54.654L7.55855 55.6721C7.76114 56.0506 8.0645 56.3656 8.43507 56.5823C8.80564 56.7991 9.22895 56.909 9.65815 56.9001C10.0897 56.89 10.5096 56.7584 10.8698 56.5205C11.23 56.2825 11.5157 55.9479 11.6943 55.5549L12.854 53.0158C13.0601 52.6256 13.3687 52.299 13.7467 52.0712C14.1246 51.8434 14.5575 51.7231 14.9988 51.7231C15.44 51.7231 15.873 51.8434 16.2509 52.0712C16.6288 52.299 16.9375 52.6256 17.1436 53.0158L18.3081 55.5573C18.4864 55.9498 18.7718 56.284 19.1316 56.5215C19.4913 56.7591 19.9108 56.8903 20.3418 56.9001H20.4053C20.8246 56.9015 21.2363 56.7878 21.5953 56.5712C21.9544 56.3547 22.2471 56.0436 22.4414 55.672L22.9443 54.7199C23.4107 53.8065 23.7687 52.8418 24.0111 51.8453L25.7373 52.0148C26.875 52.1173 28.0127 52.1686 29.1504 52.1686H31.0432C31.2829 53.0285 31.6107 53.8614 32.0215 54.654L32.5586 55.672C32.7597 56.0528 33.0634 56.3696 33.4353 56.5866C33.8073 56.8036 34.2325 56.9121 34.6629 56.8999C35.0933 56.8877 35.5117 56.7553 35.8707 56.5176C36.2298 56.2798 36.5151 55.9464 36.6943 55.5549L37.854 53.0158C38.0601 52.6256 38.3687 52.2991 38.7467 52.0713C39.1246 51.8435 39.5575 51.7231 39.9988 51.7231C40.44 51.7231 40.873 51.8435 41.2509 52.0713C41.6288 52.2991 41.9375 52.6256 42.1436 53.0158L43.3081 55.5573C43.4864 55.9498 43.7718 56.284 44.1316 56.5216C44.4913 56.7591 44.9108 56.8903 45.3418 56.9001H45.4053C45.8246 56.9016 46.2363 56.7878 46.5953 56.5712C46.9544 56.3547 47.2471 56.0436 47.4414 55.6721L47.9443 54.7199C48.3644 53.9064 48.6986 53.0514 48.9415 52.1686H50.8496C51.9873 52.1686 53.125 52.1174 54.2724 52.0148L55.9739 51.8471C56.2132 52.8202 56.5647 53.7621 57.0214 54.654L57.5585 55.6721C57.7597 56.0528 58.0634 56.3696 58.4353 56.5866C58.8072 56.8036 59.2324 56.9122 59.6628 56.9C60.0933 56.8878 60.5117 56.7553 60.8707 56.5176C61.2297 56.2799 61.515 55.9464 61.6943 55.5549L62.854 53.0158C63.06 52.6256 63.3687 52.2991 63.7466 52.0713C64.1245 51.8435 64.5575 51.7231 64.9987 51.7231C65.44 51.7231 65.8729 51.8435 66.2508 52.0713C66.6288 52.2991 66.9374 52.6256 67.1435 53.0158L68.308 55.5573C68.4864 55.9498 68.7718 56.284 69.1315 56.5216C69.4913 56.7591 69.9108 56.8903 70.3418 56.9001H70.4052C70.8245 56.9016 71.2362 56.7878 71.5953 56.5713C71.9543 56.3547 72.247 56.0437 72.4413 55.6721L72.9443 54.7199C73.6799 53.3214 74.1585 51.8021 74.3574 50.2345C75.0711 50.3509 75.7365 50.6697 76.2744 51.153C76.6625 51.5014 76.9724 51.9279 77.1836 52.4047C77.3949 52.8815 77.5027 53.3976 77.5 53.9191V68.4186ZM65.3393 24.6686C65.1752 24.6685 65.0126 24.7008 64.8609 24.7636C64.7092 24.8264 64.5713 24.9184 64.4553 25.0345C64.3392 25.1506 64.2471 25.2884 64.1843 25.4401C64.1215 25.5918 64.0893 25.7544 64.0893 25.9186V32.9157L62.688 31.5143C62.4528 31.2838 62.1361 31.1555 61.8068 31.1571C61.4775 31.1588 61.1622 31.2903 60.9294 31.5232C60.6965 31.756 60.565 32.0714 60.5633 32.4007C60.5616 32.73 60.69 33.0466 60.9205 33.2818L64.4556 36.817C64.5717 36.933 64.7094 37.0251 64.8611 37.088C65.0127 37.1508 65.1752 37.1831 65.3394 37.1831C65.5035 37.1831 65.666 37.1508 65.8177 37.088C65.9693 37.0251 66.1071 36.933 66.2231 36.817L69.7606 33.2818C69.9911 33.0466 70.1195 32.73 70.1178 32.4007C70.1161 32.0714 69.9846 31.756 69.7517 31.5232C69.5189 31.2903 69.2036 31.1588 68.8743 31.1571C68.545 31.1555 68.2283 31.2838 67.9931 31.5143L66.5893 32.9168V25.9186C66.5894 25.7544 66.5572 25.5918 66.4944 25.4401C66.4316 25.2885 66.3395 25.1506 66.2234 25.0345C66.1073 24.9184 65.9695 24.8264 65.8178 24.7636C65.6661 24.7008 65.5035 24.6685 65.3393 24.6686ZM56.1938 18.3722C56.2633 18.5779 56.3852 18.762 56.5475 18.9062C56.7097 19.0505 56.9067 19.15 57.1191 19.195L58.5303 19.4928C60.6586 19.9466 62.8287 20.1757 65.0049 20.1764C67.1919 20.1758 69.3728 19.9442 71.5112 19.4855L72.8809 19.195C73.0931 19.1496 73.2899 19.0499 73.4521 18.9057C73.6143 18.7615 73.7363 18.5777 73.8062 18.3722L75.5029 13.3527C75.8593 12.2993 75.9196 11.1682 75.6772 10.0828C75.4348 8.99744 74.899 7.99948 74.1283 7.19776C73.3575 6.39604 72.3814 5.82136 71.3065 5.53639C70.2315 5.25141 69.0989 5.26709 68.0322 5.58171L65.5566 6.31171C65.1935 6.41425 64.809 6.41425 64.4458 6.31171L61.9678 5.58171C60.9011 5.26709 59.7685 5.25141 58.6935 5.53639C57.6186 5.82136 56.6425 6.39604 55.8717 7.19776C55.101 7.99948 54.5652 8.99744 54.3228 10.0828C54.0804 11.1682 54.1407 12.2993 54.4971 13.3527L56.1938 18.3722ZM57.6733 8.92888C58.1239 8.45296 58.6981 8.112 59.3316 7.94425C59.9651 7.77649 60.6328 7.78859 61.2598 7.97918L63.21 8.55306C63.0293 8.90412 62.8933 9.27644 62.8052 9.66131C62.7335 9.98505 62.7932 10.324 62.9713 10.6037C63.1494 10.8834 63.4312 11.081 63.7549 11.153C63.8439 11.1723 63.9348 11.1821 64.0259 11.1823C64.3104 11.1823 64.5863 11.0853 64.8083 10.9073C65.0302 10.7293 65.1848 10.481 65.2466 10.2033C65.3238 9.86217 65.4783 9.54333 65.6982 9.27137C65.9182 8.9994 66.1976 8.78158 66.5151 8.63471L68.7402 7.97918C69.3679 7.7938 70.0344 7.78442 70.667 7.95205C71.2996 8.11968 71.874 8.4579 72.3275 8.92976C72.781 9.40163 73.0961 9.98901 73.2384 10.6278C73.3808 11.2666 73.3449 11.9322 73.1348 12.5519L71.665 16.8975L70.9912 17.0391C67.0554 17.8863 62.9846 17.8888 59.0478 17.0465L58.335 16.8952L56.8653 12.5519C56.6485 11.9328 56.6092 11.2653 56.752 10.625C56.8948 9.98476 57.214 9.39722 57.6733 8.92888ZM6.19385 18.3722C6.26335 18.5779 6.38523 18.762 6.54747 18.9062C6.70972 19.0505 6.90675 19.15 7.11915 19.195L8.53028 19.4928C10.6587 19.9466 12.8288 20.1757 15.005 20.1764C17.1921 20.1758 19.3729 19.9442 21.5113 19.4855L22.8808 19.195C23.0931 19.1496 23.2899 19.05 23.4521 18.9058C23.6143 18.7616 23.7363 18.5777 23.8062 18.3723L25.5029 13.3528C25.8593 12.2993 25.9196 11.1682 25.6772 10.0829C25.4348 8.99749 24.899 7.99953 24.1282 7.19781C23.3575 6.39609 22.3814 5.82141 21.3065 5.53644C20.2315 5.25146 19.0989 5.26714 18.0322 5.58176L15.5567 6.31176C15.1935 6.4143 14.809 6.4143 14.4458 6.31176L11.9678 5.58176C10.9011 5.26714 9.76851 5.25146 8.69354 5.53644C7.61857 5.82141 6.64249 6.39609 5.87175 7.19781C5.10102 7.99953 4.56523 8.99749 4.32282 10.0829C4.08041 11.1682 4.14068 12.2993 4.49708 13.3528L6.19385 18.3722ZM7.67335 8.92888C8.12386 8.45296 8.69807 8.112 9.33157 7.94425C9.96506 7.77649 10.6328 7.78859 11.2598 7.97918L13.21 8.55306C13.0293 8.90412 12.8933 9.27644 12.8052 9.66131C12.7335 9.98505 12.7932 10.324 12.9713 10.6037C13.1494 10.8834 13.4312 11.081 13.7549 11.153C13.8439 11.1723 13.9348 11.1821 14.0259 11.1823C14.3104 11.1823 14.5863 11.0853 14.8083 10.9073C15.0302 10.7293 15.1848 10.481 15.2466 10.2033C15.3238 9.86217 15.4783 9.54333 15.6982 9.27136C15.9181 8.99939 16.1976 8.78157 16.515 8.63469L18.7402 7.97916C19.3678 7.79378 20.0343 7.78439 20.667 7.95202C21.2996 8.11966 21.874 8.45787 22.3274 8.92974C22.7809 9.4016 23.096 9.98898 23.2384 10.6278C23.3808 11.2665 23.3449 11.9321 23.1347 12.5519L21.665 16.8975L20.9912 17.0391C17.0554 17.8863 12.9847 17.8888 9.04782 17.0465L8.335 16.8952L6.86528 12.5519C6.64846 11.9328 6.60924 11.2653 6.75204 10.625C6.89485 9.98476 7.21399 9.39722 7.67335 8.92888ZM15.3394 24.6686C15.1752 24.6685 15.0126 24.7008 14.8609 24.7636C14.7092 24.8264 14.5714 24.9184 14.4553 25.0345C14.3392 25.1506 14.2471 25.2885 14.1843 25.4402C14.1215 25.5919 14.0893 25.7545 14.0894 25.9186V32.9157L12.688 31.5143C12.4528 31.2838 12.1362 31.1555 11.8069 31.1572C11.4776 31.1588 11.1622 31.2904 10.9294 31.5232C10.6965 31.7561 10.565 32.0714 10.5633 32.4007C10.5617 32.73 10.69 33.0466 10.9205 33.2818L14.4557 36.817C14.5717 36.9331 14.7095 37.0252 14.8611 37.088C15.0127 37.1508 15.1753 37.1832 15.3394 37.1832C15.5035 37.1832 15.6661 37.1508 15.8177 37.088C15.9693 37.0252 16.1071 36.9331 16.2232 36.817L19.7607 33.2818C19.9911 33.0466 20.1195 32.73 20.1178 32.4007C20.1162 32.0714 19.9846 31.7561 19.7518 31.5232C19.5189 31.2904 19.2036 31.1588 18.8743 31.1572C18.545 31.1555 18.2283 31.2838 17.9931 31.5143L16.5893 32.9168V25.9186C16.5894 25.7544 16.5572 25.5918 16.4944 25.4401C16.4316 25.2884 16.3395 25.1506 16.2234 25.0345C16.1074 24.9184 15.9695 24.8264 15.8178 24.7636C15.6661 24.7008 15.5036 24.6685 15.3394 24.6686ZM31.1939 18.3723C31.2634 18.5779 31.3853 18.762 31.5475 18.9063C31.7097 19.0505 31.9068 19.15 32.1192 19.195L33.5303 19.4929C35.6586 19.9466 37.8287 20.1757 40.0049 20.1765C42.192 20.1758 44.3728 19.9442 46.5112 19.4855L47.8809 19.195C48.0931 19.1496 48.2899 19.0499 48.4521 18.9057C48.6143 18.7615 48.7363 18.5777 48.8062 18.3723L50.5029 13.3527C50.8593 12.2993 50.9196 11.1682 50.6772 10.0828C50.4348 8.99746 49.899 7.9995 49.1283 7.19779C48.3575 6.39607 47.3815 5.82139 46.3065 5.53641C45.2315 5.25144 44.0989 5.26711 43.0322 5.58174L40.5567 6.31173C40.1935 6.41428 39.809 6.41428 39.4458 6.31173L36.9678 5.58174C35.9011 5.26711 34.7685 5.25144 33.6936 5.53641C32.6186 5.82139 31.6425 6.39607 30.8718 7.19779C30.101 7.9995 29.5653 8.99746 29.3228 10.0828C29.0804 11.1682 29.1407 12.2993 29.4971 13.3527L31.1939 18.3723ZM32.6734 8.92891C33.1241 8.45324 33.6983 8.11246 34.3317 7.94472C34.9651 7.77699 35.6328 7.78893 36.2598 7.97921L38.21 8.55308C38.0293 8.90415 37.8933 9.27646 37.8052 9.66133C37.7335 9.98507 37.7933 10.324 37.9713 10.6037C38.1494 10.8834 38.4312 11.081 38.7549 11.153C38.844 11.1723 38.9348 11.1821 39.0259 11.1823C39.3104 11.1823 39.5864 11.0853 39.8083 10.9073C40.0302 10.7294 40.1848 10.481 40.2466 10.2033C40.3238 9.8622 40.4783 9.54336 40.6983 9.27139C40.9182 8.99943 41.1976 8.78161 41.5151 8.63474L43.7403 7.97921C44.3679 7.79383 45.0344 7.78444 45.667 7.95207C46.2996 8.11971 46.874 8.45792 47.3275 8.92979C47.781 9.40165 48.0961 9.98903 48.2385 10.6278C48.3808 11.2666 48.345 11.9322 48.1348 12.552L46.665 16.8975L45.9912 17.0391C42.0554 17.8863 37.9846 17.8888 34.0478 17.0465L33.335 16.8952L31.8653 12.5519C31.6485 11.9328 31.6092 11.2653 31.752 10.625C31.8949 9.98476 32.214 9.39724 32.6734 8.92891ZM40.3394 24.6687C40.1752 24.6686 40.0126 24.7008 39.8609 24.7636C39.7092 24.8264 39.5714 24.9185 39.4553 25.0346C39.3392 25.1507 39.2471 25.2885 39.1844 25.4402C39.1216 25.5919 39.0893 25.7545 39.0894 25.9187V32.9157L37.688 31.5144C37.4528 31.2839 37.1362 31.1555 36.8069 31.1572C36.4776 31.1588 36.1623 31.2904 35.9294 31.5232C35.6966 31.7561 35.565 32.0714 35.5633 32.4007C35.5617 32.73 35.69 33.0467 35.9205 33.2819L39.4557 36.817C39.5717 36.9331 39.7095 37.0252 39.8611 37.088C40.0128 37.1508 40.1753 37.1832 40.3394 37.1832C40.5036 37.1832 40.6661 37.1508 40.8177 37.088C40.9694 37.0252 41.1071 36.9331 41.2232 36.817L44.7607 33.2819C44.9912 33.0467 45.1195 32.73 45.1179 32.4007C45.1162 32.0714 44.9846 31.7561 44.7518 31.5232C44.5189 31.2904 44.2036 31.1588 43.8743 31.1572C43.545 31.1555 43.2284 31.2839 42.9932 31.5144L41.5894 32.9169V25.9186C41.5895 25.7544 41.5572 25.5918 41.4944 25.4401C41.4316 25.2884 41.3396 25.1506 41.2235 25.0345C41.1074 24.9184 40.9695 24.8263 40.8178 24.7636C40.6661 24.7008 40.5036 24.6686 40.3394 24.6687Z" fill="white"/>
</svg>
