<svg width="80" height="80" viewBox="0 0 80 80" fill="none" xmlns="http://www.w3.org/2000/svg">
<g clip-path="url(#clip0_662_220)">
<path d="M44.5409 10.5158L38.0686 12.4115C38.0124 12.4216 37.957 12.4355 37.9026 12.453L37.6463 12.5385C36.2254 12.9502 34.7168 12.9507 33.2957 12.5397L26.3939 10.5158C23.6465 9.70677 20.721 9.7296 17.9865 10.5814C17.4155 9.18318 16.9803 7.73333 16.6869 6.25184C16.6245 5.9753 16.47 5.72821 16.2486 5.55117C16.0272 5.37413 15.7521 5.27769 15.4686 5.27769C15.1852 5.27769 14.9101 5.37413 14.6887 5.55117C14.4673 5.72821 14.3127 5.9753 14.2504 6.25184C12.8051 12.652 11.9042 13.5504 5.50537 14.9957C5.22883 15.0585 4.98181 15.2134 4.80483 15.4349C4.62784 15.6565 4.53137 15.9316 4.53125 16.2152C4.53137 16.4988 4.62784 16.7739 4.80483 16.9955C4.98181 17.2171 5.22883 17.3719 5.50537 17.4347C6.66521 17.6826 7.81021 17.9954 8.93495 18.3717C8.11984 20.0622 7.64718 21.8971 7.54421 23.771C7.44124 25.6449 7.70997 27.5206 8.33495 29.2902L13.059 43.266C13.6033 44.9192 13.5853 46.706 13.0077 48.3478C11.5731 52.708 11.0292 57.3121 11.4084 61.8866C11.7875 66.4611 13.0819 70.9128 15.2147 74.9774L16.7136 77.7997C17.0593 78.5069 17.6054 79.0968 18.284 79.4958C18.9625 79.8947 19.7435 80.0852 20.5296 80.0433C21.3125 80.0254 22.0746 79.7878 22.729 79.3576C23.3834 78.9275 23.9038 78.3221 24.2307 77.6105L31.6772 61.3165C32.0108 60.5926 32.5447 59.9794 33.2158 59.5494C33.8869 59.1193 34.6672 58.8904 35.4643 58.8898C36.2613 58.8891 37.0419 59.1168 37.7137 59.5457C38.3856 59.9747 38.9205 60.5871 39.2553 61.3104L46.7113 77.619C47.0386 78.3287 47.5586 78.9323 48.2121 79.3609C48.8656 79.7895 49.6263 80.026 50.4076 80.0434L50.5151 80.0446C51.2794 80.0451 52.0292 79.8361 52.6831 79.4403C53.3369 79.0446 53.8697 78.4771 54.2236 77.7997L55.625 75.1483C58.2426 70.1821 59.6134 64.6538 59.6191 59.0399C59.6112 55.3494 59.0171 51.6835 57.8589 48.1793C57.3403 46.5815 57.3471 44.8596 57.8784 43.266L62.6025 29.2926C63.4652 26.7461 63.6117 24.0115 63.0258 21.3875C62.4399 18.7634 61.1442 16.3508 59.2803 14.413C57.4164 12.4753 55.0559 11.087 52.4566 10.3997C49.8572 9.71241 47.119 9.75255 44.5409 10.5158ZM15.4686 11.0724C15.6613 11.5517 15.8864 12.0174 16.1425 12.4661C16.1521 12.4967 16.1475 12.5279 16.1596 12.558C16.1892 12.6118 16.2232 12.6631 16.2611 12.7115C17.2369 14.369 18.783 15.6145 20.6103 16.2152C19.4087 16.6069 18.3167 17.2768 17.4232 18.1705C16.5297 19.0643 15.86 20.1564 15.4686 21.358C15.1366 20.3581 14.6076 19.4348 13.9129 18.6427C13.2181 17.8505 12.3717 17.2056 11.4236 16.746C11.3942 16.7242 11.3768 16.6925 11.3451 16.6731C11.2522 16.6245 11.1532 16.5883 11.0509 16.5656C10.8045 16.4516 10.5986 16.3208 10.327 16.2152C11.5285 15.8236 12.6206 15.1536 13.5141 14.2599C14.4076 13.3662 15.0773 12.274 15.4686 11.0724ZM60.2343 28.4894L55.5101 42.4652C54.8072 44.5696 54.797 46.8438 55.4809 48.9545C56.558 52.2082 57.1109 55.6125 57.119 59.0399C57.1139 64.2469 55.842 69.3744 53.413 73.9801L52.0116 76.6302C51.8711 76.9155 51.6506 77.1536 51.3771 77.3158C51.1035 77.4779 50.7888 77.557 50.4711 77.5433C50.1561 77.5394 49.8487 77.4458 49.5849 77.2735C49.3212 77.1012 49.112 76.8573 48.9818 76.5704L41.5258 60.2643C40.9911 59.1069 40.136 58.1269 39.0618 57.4403C37.9876 56.7536 36.7392 56.3891 35.4642 56.3897C34.1893 56.3904 32.9413 56.7562 31.8678 57.4439C30.7942 58.1316 29.9402 59.1125 29.4066 60.2704L21.9603 76.5619C21.8276 76.8493 21.6169 77.0938 21.352 77.2673C21.0872 77.4409 20.7789 77.5365 20.4624 77.5434C20.1458 77.5503 19.8337 77.4681 19.5616 77.3062C19.2894 77.1443 19.0683 76.9092 18.9232 76.6278L17.4242 73.8068C15.4409 70.015 14.2421 65.8625 13.8994 61.5971C13.5567 57.3317 14.0771 53.0411 15.4296 48.9813C16.1393 46.8671 16.1384 44.5788 15.4271 42.4652L10.703 28.4857C9.66156 25.549 9.82644 22.3193 11.1615 19.5039C12.7475 20.6973 13.4273 22.5337 14.2503 26.1786C14.3127 26.4551 14.4673 26.7022 14.6887 26.8792C14.9101 27.0563 15.1851 27.1527 15.4686 27.1527C15.7521 27.1527 16.0271 27.0563 16.2485 26.8792C16.4699 26.7022 16.6245 26.4551 16.6868 26.1786C18.1322 19.7784 19.033 18.88 25.4319 17.4347C25.7085 17.372 25.9556 17.2172 26.1326 16.9956C26.3096 16.774 26.406 16.4988 26.406 16.2152C26.406 15.9316 26.3096 15.6564 26.1326 15.4348C25.9556 15.2132 25.7085 15.0583 25.4319 14.9957C23.3062 14.7154 21.2772 13.9359 19.5105 12.721C21.5538 12.2522 23.6835 12.3193 25.6932 12.9157L32.5975 14.9409C33.0922 15.081 33.5966 15.1842 34.1065 15.2497C32.838 16.6558 31.9527 18.3646 31.5355 20.2118C31.5001 20.3722 31.4965 20.538 31.5252 20.6998C31.5539 20.8615 31.6141 21.016 31.7026 21.1545C31.791 21.2929 31.9059 21.4125 32.0406 21.5065C32.1753 21.6005 32.3272 21.667 32.4877 21.7023C32.5759 21.7215 32.6659 21.7313 32.7563 21.7316C33.0408 21.7313 33.3169 21.634 33.5388 21.4558C33.7607 21.2777 33.9152 21.0292 33.977 20.7513C34.27 19.4527 34.8595 18.2395 35.6993 17.2065C36.5392 16.1736 37.6066 15.3489 38.8181 14.7971L45.2465 12.9144C47.3853 12.2804 49.6572 12.2463 51.814 12.8159C53.9708 13.3856 55.9297 14.537 57.4765 16.1444C59.0233 17.7518 60.0986 19.7534 60.585 21.9305C61.0713 24.1077 60.95 26.3765 60.2343 28.4894ZM74.5116 7.66176C69.4799 6.52529 68.8427 5.88926 67.705 0.85511C67.6145 0.604625 67.4489 0.38813 67.2309 0.235115C67.0129 0.0820989 66.7531 0 66.4867 0C66.2204 0 65.9605 0.0820989 65.7425 0.235115C65.5245 0.38813 65.359 0.604625 65.2684 0.85511C64.1307 5.88806 63.4934 6.52406 58.4594 7.66176C58.1828 7.72441 57.9357 7.87924 57.7586 8.10084C57.5816 8.32243 57.4852 8.59763 57.4852 8.88125C57.4852 9.16487 57.5816 9.44006 57.7586 9.66166C57.9357 9.88325 58.1828 10.0381 58.4594 10.1007C63.4936 11.2385 64.1307 11.8744 65.2684 16.906C65.3308 17.1825 65.4854 17.4296 65.7068 17.6067C65.9282 17.7837 66.2032 17.8802 66.4867 17.8802C66.7702 17.8802 67.0452 17.7837 67.2666 17.6067C67.488 17.4296 67.6426 17.1825 67.705 16.906C68.8427 11.8731 69.48 11.2371 74.5116 10.1006C74.7882 10.0379 75.0353 9.8831 75.2124 9.66151C75.3894 9.43991 75.4858 9.16472 75.4858 8.8811C75.4858 8.59748 75.3894 8.32228 75.2124 8.10069C75.0353 7.87909 74.7882 7.72441 74.5116 7.66176ZM66.4866 12.3676C66.163 11.5856 65.6882 10.8751 65.0896 10.2768C64.4909 9.67859 63.7801 9.20434 62.9979 8.88124C63.7802 8.55808 64.4912 8.08367 65.0898 7.48521C65.6885 6.88675 66.1632 6.17601 66.4866 5.39373C66.8096 6.17591 67.2838 6.88662 67.8821 7.48509C68.4803 8.08357 69.1909 8.55802 69.9729 8.88124C69.1909 9.20423 68.4804 9.67847 67.8822 10.2767C67.2839 10.875 66.8096 11.5856 66.4866 12.3676Z" fill="white"/>
</g>
<defs>
<clipPath id="clip0_662_220">
<rect width="80" height="80" fill="white"/>
</clipPath>
</defs>
</svg>
