<svg width="80" height="30" viewBox="0 0 80 30" fill="none" xmlns="http://www.w3.org/2000/svg">
<path d="M29.2789 11.8826C31.0238 11.91 32.7858 11.9355 35.1222 11.9405V12.5987C35.1222 14.2088 36.52 15.5332 38.225 15.5332H41.7609C43.468 15.5332 44.8765 14.2078 44.8765 12.5987V11.9405C47.1731 11.9355 48.9072 11.91 50.6315 11.8826C50.5345 12.1216 50.4332 12.3545 50.3114 12.5875C49.1539 14.7693 48.4427 15.7285 48.0321 18.0344C47.4706 21.1805 47.7734 22.6788 45.9941 25.9582C45.2634 27.2998 44.4724 27.5226 44.0683 27.4788C43.6641 27.4371 43.3268 27.2144 43.3268 26.4362V23.226C43.3268 22.1702 43.1479 21.2334 42.5821 20.4705C42.0099 19.7026 40.999 19.2632 39.9547 19.2632C38.9104 19.2632 37.9006 19.7026 37.3272 20.4705C36.7593 21.2334 36.5804 22.1712 36.5804 23.226V26.4362C36.5804 27.2154 36.2431 27.4371 35.8389 27.4788C35.4348 27.5226 34.6438 27.2998 33.9131 25.9582C32.1349 22.6788 32.4377 21.1805 31.8751 18.0344C31.471 15.7285 30.7597 14.7693 29.5979 12.5875C29.4751 12.3545 29.3803 12.1216 29.2789 11.8826ZM61.1553 8.36113H64.6793C65.1848 8.36113 65.5555 8.70595 65.5555 9.18198V12.5997C65.5555 13.0747 65.1848 13.4256 64.6793 13.4256H61.1553C60.6498 13.4256 60.2737 13.0757 60.2737 12.5997V9.18198C60.2737 8.70595 60.6509 8.36113 61.1553 8.36113ZM38.225 8.36113H41.7609C42.2663 8.36113 42.6371 8.70595 42.6371 9.18198V12.5997C42.6371 13.0747 42.2663 13.4256 41.7609 13.4256H38.225C37.7195 13.4256 37.3553 13.0757 37.3553 12.5997V9.18198C37.3553 8.70595 37.7195 8.36113 38.225 8.36113ZM15.3065 8.36113H18.8425C19.3479 8.36113 19.7143 8.70595 19.7143 9.18198V12.5997C19.7143 13.0747 19.3479 13.4256 18.8425 13.4256H15.3065C14.8011 13.4256 14.4304 13.0757 14.4304 12.5997V9.18198C14.4314 8.70595 14.8022 8.36113 15.3065 8.36113ZM10.7726 2.10859C11.9118 2.10859 12.9658 2.40052 13.9659 2.75043C14.966 3.09423 15.8518 3.52347 16.8681 3.66181C18.2368 3.85711 19.28 3.30173 20.1627 2.89385C21.0442 2.48087 21.887 2.10859 23.3731 2.10859C24.9121 2.10859 26.215 2.91928 27.1623 4.31788C27.2022 4.37688 27.2464 4.42875 27.2927 4.48165C26.9102 5.31471 26.6407 6.2149 26.5017 7.15782C26.2937 8.55032 28.5159 8.84225 28.725 7.44873C28.9546 5.91789 29.6012 4.53963 30.4935 3.59162C31.3794 2.63752 32.4506 2.10757 33.6975 2.10757C34.8324 2.10757 35.8928 2.3995 36.8865 2.74941C37.8866 3.09321 38.7832 3.49093 39.7887 3.66079C39.9105 3.68215 40.0118 3.67707 40.126 3.66079C41.1401 3.53365 42.0293 3.09321 43.0261 2.74941C44.0262 2.3995 45.0802 2.10757 46.2215 2.10757C47.4609 2.10757 48.5332 2.63752 49.4255 3.59162C50.3136 4.53963 50.9645 5.91789 51.1897 7.44873C51.3956 8.84225 53.6189 8.55032 53.413 7.15782C53.2783 6.24644 53.0132 5.37269 52.6554 4.562C52.7168 4.48775 52.7772 4.41452 52.8278 4.31788C53.7838 2.91928 55.0845 2.10859 56.617 2.10859C58.1118 2.10859 58.9535 2.48087 59.8329 2.89385C60.7145 3.30071 61.7523 3.85711 63.1231 3.66181C64.1394 3.52347 65.0318 3.09423 66.0297 2.75043C67.0233 2.40052 68.0838 2.10859 69.2186 2.10859C70.6164 2.10859 71.8051 2.78196 72.7319 3.95882C73.5294 4.95972 74.0575 6.33188 74.2138 7.81491C72.5864 8.25026 70.4882 8.63678 67.7767 8.93379C67.6355 7.43957 66.2991 6.24237 64.6826 6.24237H61.1585C59.4514 6.24237 58.0428 7.57283 58.0428 9.183V9.57563C54.0187 9.73939 50.6886 9.81873 44.8787 9.82483V9.18402C44.8787 7.57384 43.4701 6.24338 41.7631 6.24338H38.2271C36.5222 6.24338 35.1244 7.57384 35.1244 9.18402V9.82483C29.3091 9.81975 25.9855 9.73939 21.9603 9.57563V9.183C21.9603 7.57283 20.5517 6.24237 18.8446 6.24237H15.3087C13.6921 6.24237 12.3579 7.43957 12.2232 8.93379C9.51171 8.63678 7.40696 8.25026 5.77855 7.81491C5.94236 6.3329 6.46936 4.95972 7.26039 3.95882C8.19045 2.78094 9.37916 2.10859 10.7726 2.10859ZM10.7726 0.00101661C8.59459 0.00101661 6.71831 1.10261 5.45524 2.68634C4.48531 3.91508 3.85162 5.43677 3.59836 7.07746C2.8569 6.75502 2.28895 6.4163 1.92468 6.07759C1.71776 5.8711 1.42678 5.75413 1.12395 5.75413C0.117375 5.74904 -0.380524 6.90861 0.342615 7.57181C1.22418 8.40283 2.45384 9.04975 4.0747 9.5736C4.13829 9.60615 4.19864 9.62039 4.26653 9.63768C6.25382 10.2622 8.82953 10.7077 12.192 11.0627V12.5997C12.192 14.2099 13.6027 15.5342 15.3076 15.5342H18.8435C20.5506 15.5342 21.9592 14.2088 21.9592 12.5997V11.6883C23.6329 11.7575 25.2257 11.7992 26.8994 11.8419C27.0168 12.1969 27.1516 12.5468 27.3035 12.8967C26.2528 14.8456 25.5792 15.8526 25.1923 18.0354C24.6319 21.1815 24.9358 22.6798 23.1544 25.9592C22.4258 27.3008 21.6348 27.5236 21.2307 27.4798C20.8201 27.4381 20.4892 27.2154 20.4892 26.4372V23.2271C20.4892 22.1712 20.3081 21.2293 19.7316 20.4614C19.1528 19.6924 18.1366 19.2642 17.075 19.2642C16.0135 19.2642 14.9994 19.6924 14.4142 20.4614C13.8376 21.2283 13.663 22.1712 13.663 23.2271V26.4372C13.663 27.2164 13.3257 27.4381 12.9216 27.4798C12.5174 27.5236 11.7264 27.3008 10.9957 25.9592C9.2175 22.6798 9.52034 21.1815 8.95778 18.0354C8.54933 15.7295 7.83589 14.7703 6.68059 12.5885C6.47798 12.1908 6.04043 11.9578 5.58025 11.9904C4.77844 12.0484 4.29455 12.8641 4.67067 13.5416C5.88309 15.8149 6.39931 16.3601 6.75926 18.3772C7.27548 21.2812 7.05132 23.3105 9.00951 26.9173C10.0161 28.7727 11.6089 29.741 13.1641 29.5833C14.7138 29.4247 15.909 28.0576 15.909 26.4362V23.226C15.909 22.4154 16.0879 21.9119 16.2398 21.684C16.5491 21.212 17.5977 21.212 17.9135 21.684C18.059 21.9119 18.2443 22.4154 18.2443 23.226V26.4362C18.2443 28.0576 19.4395 29.4247 20.9893 29.5833C22.5444 29.741 24.1383 28.7737 25.1427 26.9173C27.102 23.3105 26.8832 21.2812 27.3951 18.3772C27.6311 17.06 28.018 16.2371 28.5407 15.2779C29.0569 16.2371 29.4438 17.0589 29.6799 18.3772C30.1961 21.2812 29.9719 23.3105 31.9301 26.9173C32.9367 28.7727 34.5403 29.741 36.089 29.5833C37.6441 29.4247 38.8296 28.0576 38.8296 26.4362V23.226C38.8296 22.4154 39.0149 21.9068 39.1669 21.6789C39.4363 21.2599 40.4569 21.2283 40.7543 21.6789C40.9063 21.9119 41.0873 22.4154 41.0873 23.226V26.4362C41.0873 28.0576 42.2825 29.4247 43.8322 29.5833C45.3852 29.741 46.9813 28.7737 47.9857 26.9173C49.945 23.3105 49.7262 21.2812 50.236 18.3772C50.4784 17.0264 50.8826 16.1954 51.4214 15.2107C51.9603 16.1954 52.358 17.0264 52.6004 18.3772C53.1167 21.2812 52.8925 23.3105 54.8507 26.9173C55.8616 28.7727 57.4609 29.741 59.0095 29.5833C60.5647 29.4247 61.7501 28.0576 61.7501 26.4362V23.226C61.7501 22.4154 61.9118 21.9007 62.0875 21.684C62.4345 21.2395 63.3883 21.2334 63.7547 21.684C63.9271 21.9007 64.092 22.4154 64.092 23.226V26.4362C64.092 28.0576 65.2872 29.4247 66.8369 29.5833C68.3866 29.741 69.986 28.7737 70.9904 26.9173C72.9496 23.3105 72.7309 21.2812 73.2471 18.3772C73.607 16.3601 74.1168 15.8139 75.3249 13.5416C75.9985 12.2742 73.995 11.3211 73.3214 12.5875C72.1597 14.7693 71.4462 15.7285 71.0356 18.0344C70.4795 21.1805 70.7791 22.6788 68.9977 25.9582C68.2735 27.2998 67.4824 27.5226 67.074 27.4788C66.6699 27.4371 66.3368 27.2144 66.3368 26.4362V23.226C66.3368 22.1702 66.158 21.2283 65.5792 20.4604C65.0027 19.6914 63.9799 19.2632 62.9184 19.2632C61.8633 19.2632 60.8427 19.6914 60.264 20.4604C59.6853 21.2273 59.5128 22.1702 59.5128 23.226V26.4362C59.5128 27.2154 59.1755 27.4371 58.7714 27.4788C58.3608 27.5226 57.5805 27.2998 56.852 25.9582C55.0716 22.6788 55.3637 21.1805 54.8087 18.0344C54.4153 15.8251 53.731 14.8222 52.6468 12.8153C52.788 12.4929 52.9119 12.1684 53.024 11.8409C54.7311 11.8042 56.3476 11.7564 58.0482 11.6873V12.5987C58.0482 14.2088 59.4568 15.5332 61.1639 15.5332H64.688C66.395 15.5332 67.809 14.2078 67.809 12.5987V11.0617C74.0791 10.4056 77.6764 9.43628 79.653 7.57079C80.3944 6.89742 79.8653 5.72056 78.8447 5.75311C78.5462 5.75921 78.2724 5.87619 78.0698 6.07657C77.7034 6.41529 77.1441 6.74892 76.4069 7.07238C76.1504 5.43067 75.5103 3.91407 74.5382 2.68533C73.2816 1.1016 71.4021 0 69.2229 0C67.6904 0 66.3541 0.386523 65.2591 0.767962C64.1642 1.14838 63.2611 1.50439 62.7966 1.56746C62.1942 1.65188 61.7738 1.42912 60.8309 0.990724C59.8879 0.550289 58.5407 0 56.6214 0C54.5058 0 52.6877 1.03751 51.4247 2.55818C51.3234 2.43714 51.2221 2.30999 51.1111 2.19302C49.8814 0.878834 48.1689 0 46.228 0C44.689 0 43.3484 0.386523 42.2534 0.767962C41.2371 1.12397 40.4515 1.41997 39.9633 1.51457C39.4751 1.41997 38.6938 1.12295 37.6732 0.767962C36.5782 0.386523 35.2354 0 33.7029 0C31.7555 0 30.0441 0.878834 28.8155 2.19302C28.725 2.29372 28.6345 2.3995 28.5461 2.50529C27.283 1.01819 25.4811 0.00101661 23.3807 0.00101661C21.4678 0.00101661 20.1206 0.551306 19.1776 0.99174C18.2346 1.43116 17.8133 1.6529 17.2141 1.56847C16.7463 1.50439 15.8497 1.1494 14.7558 0.76898C13.6522 0.387542 12.3094 0.00101661 10.7726 0.00101661Z" fill="white"/>
</svg>
