<svg width="80" height="80" viewBox="0 0 80 80" fill="none" xmlns="http://www.w3.org/2000/svg">
<g clip-path="url(#clip0_662_353)">
<path d="M55.8838 32.9736L52.3487 36.5088C52.2307 36.6244 52.1368 36.7623 52.0724 36.9144C52.008 37.0666 51.9745 37.2299 51.9736 37.3951C51.9728 37.5603 52.0047 37.7241 52.0675 37.8768C52.1304 38.0296 52.2229 38.1684 52.3397 38.2852C52.4565 38.4021 52.5953 38.4946 52.7481 38.5574C52.9009 38.6202 53.0646 38.6521 53.2298 38.6513C53.395 38.6505 53.5584 38.6169 53.7105 38.5525C53.8627 38.4882 54.0005 38.3943 54.1162 38.2763L57.6513 34.7411C57.8818 34.5059 58.0102 34.1893 58.0085 33.86C58.0068 33.5307 57.8753 33.2154 57.6424 32.9825C57.4096 32.7497 57.0942 32.6181 56.7649 32.6164C56.4357 32.6148 56.119 32.7431 55.8838 32.9736ZM67.3487 34.7411L70.8838 38.2763C71.119 38.5068 71.4357 38.6351 71.765 38.6335C72.0942 38.6318 72.4096 38.5002 72.6424 38.2674C72.8753 38.0345 73.0068 37.7192 73.0085 37.3899C73.0102 37.0606 72.8818 36.744 72.6513 36.5088L69.1162 32.9736C68.881 32.7431 68.5643 32.6148 68.235 32.6164C67.9057 32.6181 67.5904 32.7497 67.3575 32.9825C67.1247 33.2154 66.9931 33.5307 66.9915 33.86C66.9898 34.1893 67.1182 34.5059 67.3487 34.7411ZM6.25001 20H32.7303C32.9871 20.7291 33.4633 21.3608 34.0935 21.8084C34.7237 22.256 35.477 22.4976 36.25 22.5H38.75C39.7442 22.4989 40.6974 22.1035 41.4005 21.4005C42.1035 20.6974 42.4989 19.7442 42.5 18.75V17.5H56.25C56.5814 17.5004 56.8991 17.6323 57.1334 17.8666C57.3677 18.1009 57.4996 18.4186 57.5 18.75V25C57.5 26.3261 58.0268 27.5979 58.9645 28.5355C59.9022 29.4732 61.1739 30 62.5 30C63.8261 30 65.0979 29.4732 66.0355 28.5355C66.9732 27.5979 67.5 26.3261 67.5 25V16.25C67.4972 13.9302 66.5744 11.7063 64.9341 10.0659C63.2938 8.42559 61.0698 7.50281 58.75 7.5H42.5V6.25C42.4989 5.25577 42.1035 4.30257 41.4005 3.59955C40.6974 2.89652 39.7442 2.50109 38.75 2.5H36.25C35.477 2.50238 34.7237 2.74396 34.0935 3.19158C33.4633 3.6392 32.9871 4.27092 32.7303 5H6.25001C4.59294 5.00174 3.00424 5.66078 1.83252 6.8325C0.66079 8.00423 0.00175068 9.59293 1.01851e-05 11.25V13.75C0.00175068 15.4071 0.66079 16.9958 1.83252 18.1675C3.00424 19.3392 4.59294 19.9983 6.25001 20ZM65 25C65 25.663 64.7366 26.2989 64.2678 26.7678C63.7989 27.2366 63.1631 27.5 62.5 27.5C61.837 27.5 61.2011 27.2366 60.7322 26.7678C60.2634 26.2989 60 25.663 60 25V22.5H65V25ZM42.5 10H58.75C60.4071 10.0017 61.9958 10.6608 63.1675 11.8325C64.3392 13.0042 64.9983 14.5929 65 16.25V20H60V18.75C59.9989 17.7558 59.6035 16.8026 58.9005 16.0995C58.1974 15.3965 57.2442 15.0011 56.25 15H42.5V10ZM35 6.25C35.0004 5.91861 35.1323 5.60092 35.3666 5.36659C35.6009 5.13226 35.9186 5.00043 36.25 5H38.75C39.0814 5.00043 39.3991 5.13226 39.6334 5.36659C39.8677 5.60092 39.9996 5.91861 40 6.25V18.75C39.9996 19.0814 39.8677 19.3991 39.6334 19.6334C39.3991 19.8677 39.0814 19.9996 38.75 20H36.25C35.9186 19.9996 35.6009 19.8677 35.3666 19.6334C35.1323 19.3991 35.0004 19.0814 35 18.75V6.25ZM2.50001 11.25C2.5011 10.2558 2.89653 9.30257 3.59956 8.59955C4.30259 7.89652 5.25578 7.50109 6.25001 7.5H32.5V17.5H6.25001C5.25578 17.4989 4.30259 17.1035 3.59956 16.4005C2.89653 15.6974 2.5011 14.7442 2.50001 13.75V11.25ZM61.25 33.75V38.75C61.25 39.0815 61.3817 39.3995 61.6161 39.6339C61.8506 39.8683 62.1685 40 62.5 40C62.8315 40 63.1495 39.8683 63.3839 39.6339C63.6183 39.3995 63.75 39.0815 63.75 38.75V33.75C63.75 33.4185 63.6183 33.1005 63.3839 32.8661C63.1495 32.6317 62.8315 32.5 62.5 32.5C62.1685 32.5 61.8506 32.6317 61.6161 32.8661C61.3817 33.1005 61.25 33.4185 61.25 33.75ZM66.25 62.5C66.0028 62.5 65.7611 62.5733 65.5556 62.7107C65.35 62.848 65.1898 63.0432 65.0952 63.2716C65.0006 63.5001 64.9758 63.7514 65.024 63.9939C65.0723 64.2363 65.1913 64.4591 65.3661 64.6339C65.5409 64.8087 65.7637 64.9277 66.0061 64.976C66.2486 65.0242 66.5 64.9995 66.7284 64.9048C66.9568 64.8102 67.152 64.65 67.2894 64.4445C67.4267 64.2389 67.5 63.9972 67.5 63.75C67.5 63.4185 67.3683 63.1005 67.1339 62.8661C66.8995 62.6317 66.5815 62.5 66.25 62.5ZM73.75 62.5C73.5028 62.5 73.2611 62.5733 73.0556 62.7107C72.85 62.848 72.6898 63.0432 72.5952 63.2716C72.5006 63.5001 72.4758 63.7514 72.524 63.9939C72.5723 64.2363 72.6913 64.4591 72.8661 64.6339C73.0409 64.8087 73.2637 64.9277 73.5061 64.976C73.7486 65.0242 74 64.9995 74.2284 64.9048C74.4568 64.8102 74.652 64.65 74.7894 64.4445C74.9267 64.2389 75 63.9972 75 63.75C75 63.4185 74.8683 63.1005 74.6339 62.8661C74.3995 62.6317 74.0815 62.5 73.75 62.5ZM71.25 57.5C71.0028 57.5 70.7611 57.5733 70.5556 57.7107C70.35 57.848 70.1898 58.0432 70.0952 58.2716C70.0006 58.5001 69.9758 58.7514 70.024 58.9939C70.0723 59.2363 70.1913 59.4591 70.3661 59.6339C70.5409 59.8087 70.7637 59.9277 71.0061 59.976C71.2486 60.0242 71.5 59.9995 71.7284 59.9048C71.9568 59.8102 72.152 59.65 72.2894 59.4445C72.4267 59.2389 72.5 58.9972 72.5 58.75C72.5 58.4185 72.3683 58.1005 72.1339 57.8661C71.8995 57.6317 71.5815 57.5 71.25 57.5ZM36.25 67.5C36.0028 67.5 35.7611 67.5733 35.5555 67.7107C35.35 67.848 35.1898 68.0432 35.0952 68.2716C35.0006 68.5001 34.9758 68.7514 35.024 68.9939C35.0723 69.2363 35.1913 69.4591 35.3661 69.6339C35.5409 69.8087 35.7637 69.9277 36.0061 69.976C36.2486 70.0242 36.5 69.9995 36.7284 69.9048C36.9568 69.8102 37.152 69.65 37.2894 69.4445C37.4267 69.2389 37.5 68.9972 37.5 68.75C37.5 68.4185 37.3683 68.1005 37.1339 67.8661C36.8995 67.6317 36.5815 67.5 36.25 67.5ZM69.1214 50.0375C69.1958 49.3142 69.1254 48.5833 68.9143 47.8874C68.7031 47.1916 68.3556 46.5448 67.8918 45.9847C67.428 45.4247 66.8574 44.9626 66.2131 44.6254C65.5689 44.2882 64.8639 44.0828 64.1394 44.021L61.8359 43.7988C61.5238 43.7693 61.2268 43.6506 60.9802 43.457L59.1626 42.0165C58.3617 41.3837 57.4025 40.9828 56.3894 40.8575C55.3764 40.7323 54.3484 40.8875 53.4175 41.3063C52.4866 41.7251 51.6885 42.3914 51.1102 43.2325C50.5319 44.0737 50.1956 45.0574 50.1379 46.0765L49.9158 50H43.8928L44.5398 48.086C44.8673 47.119 44.9229 46.0807 44.7006 45.0843C44.4783 44.0879 43.9866 43.1716 43.2791 42.4356C42.5717 41.6996 41.6756 41.172 40.6888 40.9104C39.702 40.6488 38.6623 40.6632 37.6831 40.9521L35.4639 41.6064C35.1614 41.6956 34.8398 41.6956 34.5373 41.6064L32.3181 40.9521C31.3389 40.6636 30.2993 40.6494 29.3126 40.9111C28.3259 41.1728 27.43 41.7004 26.7226 42.4363C26.0152 43.1722 25.5233 44.0882 25.3007 45.0844C25.0781 46.0807 25.1333 47.1189 25.4602 48.086L26.1069 50H21.1502L22.0398 47.3682C22.3667 46.4012 22.4219 45.3631 22.1994 44.367C21.9769 43.3708 21.4852 42.4549 20.7779 41.719C20.0705 40.9831 19.1748 40.4555 18.1882 40.1937C17.2017 39.9319 16.1622 39.946 15.1831 40.2344L12.9638 40.8887C12.6616 40.979 12.3395 40.979 12.0373 40.8887L9.81806 40.2344C8.83889 39.9458 7.79929 39.9316 6.81261 40.1933C5.82592 40.4551 4.93002 40.9826 4.22257 41.7185C3.51513 42.4544 3.02329 43.3704 2.80068 44.3667C2.57807 45.3629 2.63324 46.4011 2.96016 47.3682L4.48116 51.8677C4.51746 51.9933 4.53821 52.1229 4.54296 52.2536C3.1325 53.2911 1.98622 54.6462 1.19696 56.2092C0.407696 57.7722 -0.00235631 59.4991 1.01851e-05 61.25V71.25C0.00175068 72.9071 0.66079 74.4958 1.83252 75.6675C3.00424 76.8392 4.59294 77.4983 6.25001 77.5H73.75C75.4071 77.4983 76.9958 76.8392 78.1675 75.6675C79.3392 74.4958 79.9983 72.9071 80 71.25V61.25C79.9937 58.3355 78.8559 55.5373 76.8264 53.4456C74.7969 51.3538 72.0344 50.1319 69.1214 50.0375ZM51.3855 53.4058C51.7629 52.9391 52.033 52.3951 52.1764 51.8123C52.2706 51.6396 52.3218 51.4467 52.3255 51.25C52.3255 51.229 52.3146 51.2116 52.3136 51.1908C52.3226 51.1113 52.3601 51.0399 52.3645 50.9595L52.6331 46.2183C52.665 45.6562 52.8506 45.1136 53.1696 44.6497C53.4885 44.1857 53.9286 43.8182 54.442 43.5871C54.9554 43.3559 55.5223 43.2701 56.0811 43.3389C56.6399 43.4076 57.1691 43.6284 57.6111 43.9771L59.4311 45.4175C60.0542 45.9093 60.8054 46.2119 61.5954 46.2891L63.9001 46.5112C64.4606 46.5653 64.9956 46.7722 65.4466 47.1094C65.8976 47.4466 66.2473 47.9012 66.4578 48.4235C66.6682 48.9458 66.7312 49.5159 66.6398 50.0716C66.5485 50.6273 66.3064 51.1472 65.9399 51.5747L62.8467 55.1807C62.2642 55.8637 61.9179 56.7166 61.8592 57.6123C61.7765 58.8849 61.4389 60.1278 60.8665 61.2674C60.294 62.4069 59.4983 63.4197 58.5267 64.2456L58.2605 64.4702L58.0175 59.3262C57.9944 58.753 57.8052 58.1989 57.4729 57.7312C57.1407 57.2635 56.6798 56.9025 56.1462 56.6919C55.7883 56.5467 55.4057 56.4721 55.0195 56.4722C54.2575 56.4734 53.5252 56.768 52.9748 57.2949L49.2358 60.8399L49.193 60.4249C49.0675 59.1676 49.1969 57.8979 49.5737 56.6918C49.9504 55.4857 50.5666 54.3681 51.3855 53.4058ZM28.5242 44.1675C28.9122 43.7581 29.4064 43.4648 29.9517 43.3203C30.4969 43.1759 31.0716 43.186 31.6113 43.3496L33.833 44.0039C34.5952 44.2285 35.406 44.2285 36.1682 44.0039L38.3899 43.3496C38.93 43.1903 39.5035 43.1824 40.0479 43.3268C40.5922 43.4711 41.0864 43.7622 41.4766 44.1683C41.8668 44.5743 42.138 45.0798 42.2605 45.6294C42.3831 46.1791 42.3523 46.7518 42.1716 47.2852L40.6506 51.7822C40.3641 52.634 40.3611 53.5556 40.6421 54.4092C41.0408 55.6209 41.1918 56.9004 41.0861 58.1717C40.9804 59.4429 40.6202 60.68 40.0269 61.8092L39.8645 62.1144L37.7185 57.4342C37.4797 56.914 37.0966 56.4733 36.6147 56.1643C36.1328 55.8553 35.5724 55.6911 35 55.6911C34.4276 55.6911 33.8672 55.8553 33.3853 56.1643C32.9035 56.4733 32.5204 56.914 32.2815 57.4342L30.1355 62.1144L29.9426 61.7506C29.3563 60.631 29.0021 59.4045 28.9012 58.1447C28.8003 56.8849 28.9548 55.6177 29.3555 54.4191C29.6422 53.564 29.6401 52.6385 29.3494 51.7848L27.8284 47.2853C27.6423 46.7524 27.6089 46.1781 27.7318 45.6272C27.8548 45.0763 28.1292 44.5707 28.5242 44.1675ZM6.02419 43.4497C6.41204 43.0401 6.9063 42.7467 7.45157 42.6022C7.99684 42.4578 8.57157 42.468 9.11134 42.6319L11.333 43.2862C12.0952 43.5108 12.906 43.5108 13.6682 43.2862L15.8899 42.6319C16.43 42.4725 17.0036 42.4646 17.5479 42.609C18.0922 42.7534 18.5865 43.0445 18.9767 43.4505C19.3669 43.8566 19.638 44.362 19.7606 44.9117C19.8831 45.4614 19.8524 46.0341 19.6716 46.5675L18.2575 50.7484L18.24 50.7997L18.1504 51.0645C17.8639 51.9162 17.8609 52.8378 18.1419 53.6914C18.5407 54.9032 18.6917 56.1828 18.5858 57.4541C18.4799 58.7254 18.1193 59.9624 17.5254 61.0914L17.3643 61.3989L15.2183 56.7164C14.9795 56.1962 14.5964 55.7555 14.1145 55.4465C13.6326 55.1375 13.0722 54.9733 12.4998 54.9733C11.9274 54.9733 11.367 55.1375 10.8851 55.4465C10.4033 55.7555 10.0202 56.1962 9.78131 56.7164L7.63531 61.3989L7.44244 61.0327C6.85642 59.913 6.50237 58.6866 6.40148 57.4268C6.30059 56.167 6.45494 54.8999 6.85529 53.7012C6.88566 53.6096 6.87664 53.5144 6.90046 53.422C7.02529 53.1843 7.06932 52.9124 7.02589 52.6474C7.07114 52.1141 7.0111 51.5771 6.84919 51.0669L5.32819 46.5674C5.14217 46.0345 5.10876 45.4602 5.23174 44.9093C5.35472 44.3585 5.62919 43.8529 6.02419 43.4497ZM77.5 71.25C77.4989 72.2442 77.1035 73.1974 76.4005 73.9005C75.6974 74.6035 74.7442 74.9989 73.75 75H6.25001C5.25578 74.9989 4.30259 74.6035 3.59956 73.9005C2.89653 73.1974 2.5011 72.2442 2.50001 71.25V61.25C2.51296 59.5789 3.00931 57.9472 3.92916 56.552C3.88703 58.5136 4.33481 60.4548 5.23196 62.1997L5.71414 63.1128C5.89927 63.4664 6.17793 63.7625 6.51974 63.9687C6.86156 64.1749 7.25342 64.2834 7.65261 64.2822H7.71731C8.12753 64.272 8.52657 64.1464 8.8686 63.9196C9.21063 63.6929 9.48178 63.3743 9.65091 63.0005L12.0545 57.7563C12.2815 57.2631 12.7186 57.2631 12.9456 57.7563L15.3492 63.0005C15.5183 63.3743 15.7895 63.6929 16.1315 63.9196C16.4735 64.1464 16.8726 64.272 17.2828 64.2822C17.6925 64.2924 18.0969 64.1884 18.4509 63.9819C18.8049 63.7754 19.0945 63.4745 19.2872 63.1128L19.7364 62.2583C20.4868 60.8312 20.9424 59.2677 21.0762 57.6609C21.21 56.0541 21.0192 54.4368 20.5152 52.9053C20.4767 52.7734 20.455 52.6373 20.4508 52.5H26.9515L26.9812 52.5879C27.0997 52.9438 27.0941 53.3293 26.9653 53.6816C26.4675 55.1939 26.2789 56.7909 26.4108 58.3776C26.5427 59.9643 26.9924 61.5082 27.7332 62.9175L28.2129 63.8257C28.4034 64.1892 28.6921 64.4919 29.046 64.6995C29.4 64.9071 29.8052 65.0112 30.2154 65C30.6256 64.9888 31.0245 64.8628 31.3666 64.6362C31.7088 64.4096 31.9805 64.0915 32.1509 63.7182L34.5545 58.474C34.7815 57.9809 35.2185 57.9809 35.4456 58.474L37.8492 63.7182C38.0184 64.0922 38.2897 64.4109 38.632 64.6377C38.9742 64.8644 39.3735 64.99 39.7839 65H39.8462C40.2459 65.0015 40.6384 64.893 40.9805 64.6863C41.3226 64.4796 41.6013 64.1827 41.7859 63.8281L42.2363 62.9761C42.9867 61.549 43.4423 59.9855 43.5761 58.3787C43.7099 56.7719 43.5191 55.1546 43.0151 53.6231C42.9041 53.2859 42.9053 52.9219 43.0188 52.5855L43.0477 52.5H48.9838C47.2393 54.8527 46.4276 57.7679 46.7053 60.6836L46.8115 61.709C46.8539 62.1168 47.0095 62.5046 47.2607 62.8286C47.512 63.1526 47.8489 63.3998 48.2333 63.5423C48.6178 63.6848 49.0344 63.7169 49.4361 63.635C49.8378 63.553 50.2086 63.3603 50.5065 63.0786L54.6948 59.1114C54.7604 59.0433 54.8455 58.9972 54.9384 58.9793C55.0312 58.9615 55.1273 58.9726 55.2136 59.0113C55.3022 59.0442 55.3789 59.103 55.4336 59.1801C55.4882 59.2572 55.5183 59.349 55.52 59.4435L55.7922 65.2052C55.8105 65.6151 55.9434 66.0116 56.1759 66.3497C56.4084 66.6877 56.731 66.9538 57.1072 67.1176C57.4834 67.2814 57.898 67.3364 58.3038 67.2762C58.7097 67.2161 59.0905 67.0433 59.403 66.7775L60.1403 66.155C61.3689 65.1109 62.3751 63.8305 63.099 62.3898C63.8229 60.9492 64.2497 59.3777 64.3542 57.7687C64.3775 57.4144 64.5145 57.0771 64.7448 56.8068L67.8369 53.2009C68.005 52.9791 68.156 52.7448 68.2886 52.5H68.75C71.0698 52.5028 73.2938 53.4256 74.9341 55.0659C76.5744 56.7063 77.4972 58.9302 77.5 61.25V71.25ZM55.9046 70.0488C54.4613 70.5254 52.9042 70.5331 51.4563 70.0708C50.6713 69.7726 49.9451 69.3378 49.3115 68.7866C48.4736 68.0229 47.4383 67.5095 46.3233 67.3047C45.1693 67.2515 44.0181 67.4592 42.9555 67.9123C41.8929 68.3654 40.9461 69.0523 40.1856 69.9219C40.066 70.0343 39.9697 70.1691 39.9022 70.3187C39.8347 70.4683 39.7974 70.6297 39.7923 70.7937C39.7872 70.9577 39.8144 71.1211 39.8725 71.2746C39.9305 71.4281 40.0182 71.5687 40.1306 71.6883C40.243 71.8078 40.3778 71.9041 40.5274 71.9716C40.677 72.0391 40.8384 72.0765 41.0024 72.0816C41.1665 72.0867 41.3299 72.0594 41.4834 72.0014C41.6368 71.9433 41.7774 71.8556 41.897 71.7432C42.3924 71.1392 43.0137 70.6506 43.7175 70.3116C44.4213 69.9726 45.1906 69.7913 45.9717 69.7803C46.6519 69.9286 47.276 70.2673 47.771 70.7569C48.6189 71.4752 49.585 72.0411 50.6262 72.4293C51.5544 72.7539 52.5312 72.9174 53.5144 72.9127C54.558 72.9044 55.5952 72.749 56.5955 72.4512C56.7532 72.4059 56.9005 72.3299 57.0288 72.2276C57.1572 72.1253 57.2642 71.9987 57.3436 71.8551C57.4231 71.7115 57.4735 71.5536 57.4919 71.3905C57.5104 71.2275 57.4965 71.0623 57.4512 70.9046C57.4058 70.7468 57.3298 70.5996 57.2275 70.4712C57.1253 70.3428 56.9987 70.2359 56.8551 70.1564C56.7115 70.077 56.5536 70.0266 56.3905 70.0081C56.2274 69.9897 56.0623 70.0035 55.9046 70.0488ZM68.75 67.5C68.5028 67.5 68.2611 67.5733 68.0556 67.7107C67.85 67.848 67.6898 68.0432 67.5952 68.2716C67.5006 68.5001 67.4758 68.7514 67.524 68.9939C67.5723 69.2363 67.6913 69.4591 67.8661 69.6339C68.0409 69.8087 68.2637 69.9277 68.5061 69.976C68.7486 70.0242 69 69.9995 69.2284 69.9048C69.4568 69.8102 69.652 69.65 69.7894 69.4445C69.9267 69.2389 70 68.9972 70 68.75C70 68.4185 69.8683 68.1005 69.6339 67.8661C69.3995 67.6317 69.0815 67.5 68.75 67.5ZM63.75 70C63.5028 70 63.2611 70.0733 63.0556 70.2107C62.85 70.348 62.6898 70.5432 62.5952 70.7716C62.5006 71.0001 62.4758 71.2514 62.524 71.4939C62.5723 71.7363 62.6913 71.9591 62.8661 72.1339C63.0409 72.3087 63.2637 72.4277 63.5062 72.476C63.7486 72.5242 64 72.4995 64.2284 72.4048C64.4568 72.3102 64.652 72.15 64.7894 71.9445C64.9267 71.7389 65 71.4972 65 71.25C65 70.9185 64.8683 70.6005 64.6339 70.3661C64.3995 70.1317 64.0815 70 63.75 70Z" fill="white"/>
</g>
<defs>
<clipPath id="clip0_662_353">
<rect width="80" height="80" fill="white"/>
</clipPath>
</defs>
</svg>
