<svg width="64" height="80" viewBox="0 0 64 80" fill="none" xmlns="http://www.w3.org/2000/svg">
<path d="M62.7458 21.9968C63.7518 19.1142 63.9322 16.0079 63.2665 13.0283C62.6009 10.0487 61.1158 7.31441 58.9787 5.134C56.8845 2.91208 54.2109 1.31985 51.2597 0.537055C48.3085 -0.245737 45.1972 -0.187914 42.2771 0.703997L34.3767 3.03187C32.7145 3.52259 30.946 3.52259 29.2839 3.03187L21.3835 0.704073C18.4635 -0.188895 15.3519 -0.247252 12.4005 0.535597C9.44903 1.31845 6.77542 2.91129 4.68184 5.13407C2.54481 7.31447 1.05968 10.0487 0.394049 13.0283C-0.271587 16.0079 -0.0912389 19.1143 0.914743 21.9968L6.32974 38.0112C6.97269 39.9372 6.95551 42.0226 6.28092 43.9377C4.64344 48.9087 4.02244 54.1583 4.45486 59.3741C4.88729 64.59 6.3643 69.6656 8.79804 74.299L10.5119 77.5425C10.8472 78.175 11.327 78.7195 11.9122 79.1319C12.4974 79.5443 13.1715 79.8128 13.88 79.9158C13.9458 79.9345 14.0132 79.9475 14.0813 79.9546L14.1643 79.9521L14.1844 79.9466C14.3619 79.9761 14.5411 79.9942 14.7209 80.0009C15.5828 79.9804 16.4215 79.7171 17.1405 79.2415C17.8596 78.7658 18.4299 78.0969 18.7859 77.3117L27.3382 58.6545C27.7325 57.7945 28.3654 57.0658 29.1617 56.5549C29.958 56.044 30.8843 55.7724 31.8304 55.7724C32.7765 55.7724 33.7027 56.044 34.499 56.5549C35.2953 57.0658 35.9282 57.7945 36.3225 58.6545L44.8748 77.3117C45.1881 77.9881 45.6628 78.577 46.2572 79.0267C46.8516 79.4765 47.5474 79.7732 48.2834 79.8908C48.3265 79.9052 48.3704 79.9172 48.4148 79.9265C48.4305 79.9275 48.4441 79.9199 48.4598 79.9204C48.6183 79.9558 48.7785 79.9827 48.9398 80.0009L49.0716 80.0034C49.9114 80.006 50.7358 79.7778 51.4548 79.3439C52.1738 78.9099 52.7598 78.2868 53.1488 77.5425L54.7528 74.5066C57.2201 69.8098 58.7181 64.6649 59.1576 59.3777C59.5972 54.0905 58.9693 48.7688 57.3114 43.7291C56.7001 41.8707 56.7069 39.8643 57.3309 38.0101L62.7458 21.9968ZM47.3579 76.6045C47.2769 76.4995 47.2057 76.3873 47.1452 76.2693L38.593 57.612C37.9995 56.3172 37.0467 55.2199 35.8479 54.4506C34.6491 53.6814 33.2547 53.2724 31.8303 53.2724C30.4059 53.2724 29.0114 53.6814 27.8126 54.4506C26.6138 55.2199 25.661 56.3172 25.0676 57.612L16.5153 76.2692C16.3965 76.5357 16.2228 76.774 16.0055 76.9687C15.7882 77.1634 15.5323 77.3099 15.2544 77.3988C15.1841 76.1096 15.1275 74.5454 15.1456 72.7524C15.2553 68.0509 15.6745 63.3618 16.4006 58.7155C17.3834 50.559 19.1168 42.5105 21.5788 34.6725C24.7886 33.2466 28.2606 32.5061 31.7729 32.4981C35.2851 32.4901 38.7605 33.2149 41.9767 34.6261C42.5578 37.6144 45.0431 50.5221 46.176 58.7155C47.1572 64.6251 47.5531 70.6171 47.3579 76.6045ZM20.8781 23.1552C21.1576 22.7422 21.5169 22.3893 21.935 22.1173C22.353 21.8454 22.8213 21.66 23.3122 21.572L28.0266 20.715C30.5408 20.2568 33.1172 20.2564 35.6316 20.7138L40.3484 21.5719C40.8387 21.6606 41.3064 21.8462 41.7242 22.1178C42.142 22.3894 42.5014 22.7415 42.7814 23.1537C43.0615 23.5658 43.2566 24.0296 43.3553 24.518C43.454 25.0065 43.4543 25.5097 43.3562 25.9982L42.1487 32.0372C38.6898 30.6429 34.9879 29.9515 31.2589 30.0033C27.9134 30.0816 24.6099 30.7676 21.5098 32.0277L20.3043 25.9982C20.2049 25.51 20.2044 25.0069 20.303 24.5185C20.4015 24.0302 20.5971 23.5666 20.8781 23.1552ZM54.9381 44.5163C56.491 49.2361 57.079 54.2199 56.6671 59.1715C56.2552 64.123 54.8519 68.9412 52.5406 73.3396L50.9366 76.3755C50.6914 76.8144 50.296 77.1501 49.823 77.3209C50.0885 70.9817 49.6959 64.632 48.6515 58.3737C47.4474 49.6671 44.7408 35.7292 44.3541 33.7572L45.8072 26.489C45.8233 26.4092 45.8184 26.3294 45.8312 26.2494L51.1295 28.0209C51.2569 28.064 51.3905 28.0858 51.525 28.0856C51.7758 28.0855 52.0208 28.0099 52.2281 27.8686C52.4354 27.7273 52.5953 27.5269 52.6871 27.2934L54.0079 23.9377C54.0685 23.785 54.0984 23.6218 54.0959 23.4575C54.0934 23.2932 54.0584 23.1311 53.9931 22.9803C53.9278 22.8295 53.8334 22.6931 53.7153 22.5789C53.5972 22.4647 53.4577 22.3749 53.3048 22.3147C53.1519 22.2544 52.9887 22.225 52.8244 22.228C52.6601 22.2309 52.498 22.2663 52.3474 22.332C52.1968 22.3978 52.0607 22.4925 51.9468 22.611C51.8329 22.7294 51.7435 22.8691 51.6837 23.0222L50.7974 25.2744L45.8278 23.6133L47.8165 17.9477L50.9806 16.7599C51.2898 16.6425 51.5398 16.4073 51.676 16.1058C51.8122 15.8044 51.8233 15.4613 51.7071 15.1516C51.5909 14.8419 51.3566 14.5909 51.0558 14.4536C50.7549 14.3162 50.4118 14.3036 50.1017 14.4186L46.3907 15.8115C46.2196 15.8758 46.0646 15.977 45.9368 16.1077C45.809 16.2385 45.7114 16.3957 45.651 16.5683L44.4128 20.0977L42.8875 15.8347L44.1985 11.5402C44.2927 11.2237 44.2579 10.8828 44.1017 10.5919C43.9455 10.3009 43.6806 10.0836 43.3648 9.98719C43.0489 9.89082 42.7078 9.92327 42.4158 10.0775C42.1237 10.2317 41.9046 10.4951 41.806 10.8102L40.3753 15.5014C40.2974 15.7588 40.3042 16.0344 40.3948 16.2875L41.475 19.3066C41.253 19.2296 41.0268 19.1651 40.7976 19.1135L36.0784 18.2541C33.2685 17.743 30.3895 17.7434 27.5798 18.2553L22.863 19.1135C21.7013 19.3144 20.6222 19.8463 19.7553 20.6453C18.8884 21.4444 18.2706 22.4767 17.976 23.6183L15.6584 20.7675L15.4704 16.2802C15.4722 16.1134 15.4388 15.948 15.3725 15.7948C15.3062 15.6417 15.2083 15.5042 15.0853 15.3913C14.9624 15.2785 14.817 15.1928 14.6587 15.1398C14.5005 15.0869 14.3328 15.0678 14.1667 15.0839C13.8356 15.0981 13.5236 15.243 13.2993 15.487C13.075 15.731 12.9567 16.0541 12.9704 16.3852L13.1779 21.2863C13.1896 21.5556 13.2881 21.8138 13.4586 22.0224L17.472 26.9602L13.5905 28.8254L12.8678 26.1423C12.8253 25.9839 12.752 25.8355 12.6522 25.7054C12.5523 25.5753 12.4278 25.4662 12.2858 25.3842C12.1438 25.3023 11.987 25.2491 11.8244 25.2277C11.6618 25.2064 11.4966 25.2173 11.3382 25.2597C11.1798 25.3022 11.0314 25.3755 10.9013 25.4753C10.7713 25.5752 10.6621 25.6997 10.5802 25.8417C10.4982 25.9837 10.445 26.1405 10.4237 26.3031C10.4023 26.4657 10.4132 26.6309 10.4557 26.7893L11.5666 30.9275C11.6141 31.105 11.7001 31.2698 11.8185 31.4102C11.937 31.5506 12.0849 31.6632 12.2519 31.7399C12.4188 31.8166 12.6006 31.8556 12.7843 31.854C12.968 31.8524 13.1491 31.8103 13.3146 31.7307L18.4117 29.2826L19.2895 33.6726C16.7288 41.7193 14.9326 49.9897 13.925 58.3737C13.1845 63.1253 12.7571 67.9204 12.6457 72.728C12.6326 74.0648 12.66 75.2651 12.7028 76.3355L11.01 73.1321C8.7243 68.7675 7.34256 63.9866 6.94742 59.0756C6.55228 54.1646 7.15185 49.2244 8.71027 44.5505C9.51077 42.1682 9.50648 39.5888 8.69807 37.2092L3.28289 21.196C2.4277 18.7465 2.27422 16.1067 2.83979 13.5747C3.40535 11.0426 4.66744 8.71899 6.48359 6.86617C8.26316 4.97826 10.535 3.62534 13.0427 2.96013C15.5504 2.29492 18.1941 2.34389 20.6755 3.10152L28.5759 5.4294C29.2544 5.62139 29.9491 5.75056 30.6512 5.8153C29.0887 7.45131 28 9.48118 27.5017 11.6879C27.43 12.0115 27.4898 12.3503 27.6679 12.6298C27.846 12.9094 28.1278 13.1067 28.4514 13.1784C28.5404 13.1976 28.6313 13.2074 28.7224 13.2077C29.007 13.2074 29.283 13.1102 29.5049 12.932C29.7268 12.7538 29.8813 12.5053 29.9431 12.2275C30.2851 10.7115 30.9735 9.29518 31.9543 8.08962C32.9351 6.88406 34.1817 5.92195 35.5964 5.27865L42.985 3.10152C45.4664 2.34407 48.1101 2.29518 50.6178 2.96038C53.1254 3.62559 55.3973 4.9784 57.1769 6.86617C58.9931 8.71899 60.2552 11.0426 60.8207 13.5747C61.3863 16.1067 61.2328 18.7465 60.3776 21.196L54.9626 37.208C54.1661 39.5776 54.1575 42.1414 54.9381 44.5163Z" fill="white"/>
</svg>
