<svg width="100" height="100" viewBox="0 0 100 100" fill="none" xmlns="http://www.w3.org/2000/svg">
<rect width="100" height="100" fill="#010C0D"/>
<path d="M57.0834 62.75V59.9167C57.0834 58.4138 56.4863 56.9724 55.4236 55.9097C54.3609 54.847 52.9196 54.25 51.4167 54.25H40.0834C38.5805 54.25 37.1391 54.847 36.0764 55.9097C35.0137 56.9724 34.4167 58.4138 34.4167 59.9167V62.75" stroke="white" stroke-width="2" stroke-linecap="round" stroke-linejoin="round"/>
<path d="M45.75 48.5833C48.8796 48.5833 51.4166 46.0463 51.4166 42.9167C51.4166 39.7871 48.8796 37.25 45.75 37.25C42.6204 37.25 40.0833 39.7871 40.0833 42.9167C40.0833 46.0463 42.6204 48.5833 45.75 48.5833Z" fill="white" stroke="white" stroke-width="2" stroke-linecap="round" stroke-linejoin="round"/>
<path d="M65.5833 62.75V59.9167C65.5824 58.6612 65.1645 57.4415 64.3952 56.4491C63.626 55.4568 62.549 54.7481 61.3333 54.4342" stroke="white" stroke-width="2" stroke-linecap="round" stroke-linejoin="round"/>
<path d="M55.6667 37.4342C56.8856 37.7463 57.966 38.4552 58.7375 39.4491C59.509 40.4431 59.9278 41.6655 59.9278 42.9238C59.9278 44.182 59.509 45.4045 58.7375 46.3984C57.966 47.3924 56.8856 48.1013 55.6667 48.4134" stroke="white" stroke-width="2" stroke-linecap="round" stroke-linejoin="round"/>
</svg>
