<svg width="75" height="75" viewBox="0 0 75 75" fill="none" xmlns="http://www.w3.org/2000/svg">
<rect width="74.5868" height="74.5868" transform="translate(0 -0.00341797)" fill="#D8B282"/>
<path opacity="0.5" d="M33.5 39.4902H25.5C24.3954 39.4902 23.5 40.3857 23.5 41.4902V49.4902C23.5 50.5948 24.3954 51.4902 25.5 51.4902H33.5C34.6046 51.4902 35.5 50.5948 35.5 49.4902V41.4902C35.5 40.3857 34.6046 39.4902 33.5 39.4902Z" fill="#D8B282"/>
<path d="M32 52.4902H26.5C26.4224 52.4902 26.3458 52.4721 26.2764 52.4374C26.207 52.4027 26.1466 52.3523 26.1 52.2902C26.0534 52.2281 26.022 52.156 26.0081 52.0796C25.9942 52.0032 25.9983 51.9247 26.02 51.8502L26.235 51.1002C26.6845 49.526 27.55 48.1022 28.7405 46.9785C29.9311 45.8549 31.4025 45.073 33 44.7152C33.0928 44.6962 33.189 44.7041 33.2775 44.7377C33.3661 44.7713 33.4432 44.8294 33.5 44.9052C33.5591 44.9833 33.5939 45.0771 33.6001 45.1749C33.6063 45.2727 33.5837 45.3701 33.535 45.4552L32.175 47.8352L33.285 48.5752C33.3954 48.6477 33.4727 48.761 33.4998 48.8903C33.527 49.0195 33.5019 49.1543 33.43 49.2652L32.265 51.0302L32.5 51.8602C32.5202 51.9343 32.5231 52.0122 32.5083 52.0876C32.4936 52.163 32.4617 52.2341 32.415 52.2952C32.3664 52.3584 32.3034 52.4091 32.2312 52.443C32.159 52.477 32.0797 52.4931 32 52.4902ZM27.165 51.4902H31.345L31.23 51.0752C31.2131 51.0068 31.2101 50.9356 31.2213 50.8661C31.2325 50.7965 31.2575 50.7299 31.295 50.6702L32.295 49.1302L31.21 48.4052C31.1038 48.3354 31.0282 48.2278 30.9985 48.1043C30.9688 47.9808 30.9872 47.8506 31.05 47.7402L32.015 46.0552C30.8546 46.5109 29.8148 47.2279 28.9763 48.1506C28.1378 49.0732 27.5231 50.1766 27.18 51.3752L27.165 51.4902Z" fill="white"/>
<path d="M36.9999 52.4903C36.887 52.4942 36.7762 52.4597 36.6854 52.3925C36.5946 52.3253 36.5292 52.2294 36.4999 52.1203L34.9999 46.4153C34.9687 46.3045 34.9767 46.1863 35.0225 46.0807C35.0684 45.9751 35.1492 45.8886 35.2515 45.8357C35.3537 45.7828 35.4711 45.7668 35.5838 45.7904C35.6964 45.814 35.7975 45.8758 35.8699 45.9653C36.0107 46.1283 36.185 46.259 36.3808 46.3486C36.5767 46.4382 36.7895 46.4846 37.0049 46.4846C37.2203 46.4846 37.4331 46.4382 37.629 46.3486C37.8248 46.259 37.9991 46.1283 38.1399 45.9653C38.2128 45.8774 38.3135 45.817 38.4254 45.7943C38.5372 45.7716 38.6535 45.7878 38.7549 45.8403C38.855 45.8941 38.9338 45.9803 38.9783 46.0848C39.0229 46.1893 39.0305 46.3059 38.9999 46.4153L37.4999 52.1203C37.4706 52.2294 37.4052 52.3253 37.3145 52.3925C37.2237 52.4597 37.1128 52.4942 36.9999 52.4903ZM36.2899 47.3903L36.9999 50.0503L37.7099 47.3903C37.2455 47.5202 36.7543 47.5202 36.2899 47.3903Z" fill="white"/>
<path d="M47.5 52.4902H42C41.9236 52.4901 41.8483 52.4724 41.7798 52.4386C41.7114 52.4048 41.6515 52.3557 41.605 52.2952C41.5583 52.2341 41.5264 52.1631 41.5116 52.0877C41.4969 52.0122 41.4997 51.9344 41.52 51.8602L41.745 51.0302L40.58 49.2652C40.5081 49.1544 40.483 49.0196 40.5101 48.8903C40.5373 48.761 40.6145 48.6478 40.725 48.5752L41.835 47.8352L40.5 45.4552C40.4513 45.3702 40.4286 45.2728 40.4348 45.175C40.4411 45.0772 40.4759 44.9834 40.535 44.9052C40.5924 44.8304 40.6698 44.7733 40.7582 44.7405C40.8467 44.7078 40.9427 44.7008 41.035 44.7202C42.2904 45.007 43.4712 45.5556 44.5 46.3302C46.0878 47.5177 47.2391 49.1963 47.775 51.1052L48 51.8502C48.0217 51.9248 48.0258 52.0033 48.0119 52.0797C47.998 52.1561 47.9665 52.2281 47.92 52.2902C47.8714 52.3551 47.8078 52.4072 47.7346 52.4421C47.6615 52.4769 47.5809 52.4934 47.5 52.4902ZM42.655 51.4902H46.835L46.805 51.3802C46.327 49.6816 45.3025 48.1879 43.89 47.1302C43.3009 46.6877 42.6551 46.3262 41.97 46.0552L42.935 47.7402C42.9978 47.8507 43.0162 47.9809 42.9865 48.1044C42.9567 48.2279 42.8811 48.3355 42.775 48.4052L41.69 49.1302L42.69 50.6702C42.7274 50.7299 42.7525 50.7965 42.7637 50.8661C42.7748 50.9357 42.7719 51.0068 42.755 51.0752L42.655 51.4902Z" fill="white"/>
<path d="M37 47.4903C36.6373 47.4898 36.279 47.4104 35.9501 47.2576C35.6211 47.1047 35.3293 46.8822 35.095 46.6053C35.0492 46.5494 35.0152 46.4847 34.995 46.4153L34.495 44.6203C34.4918 44.5769 34.4934 44.5333 34.5 44.4903V41.7003C34.5 41.6227 34.5181 41.5461 34.5528 41.4767C34.5875 41.4072 34.6379 41.3469 34.7 41.3003C34.7627 41.2529 34.8356 41.221 34.913 41.2071C34.9903 41.1932 35.0698 41.1977 35.145 41.2203C36.3554 41.5807 37.6446 41.5807 38.855 41.2203C38.9303 41.1977 39.0098 41.1932 39.0871 41.2071C39.1644 41.221 39.2373 41.2529 39.3 41.3003C39.3621 41.3469 39.4125 41.4072 39.4472 41.4767C39.4819 41.5461 39.5 41.6227 39.5 41.7003V44.4903C39.5049 44.5335 39.5049 44.5771 39.5 44.6203L39 46.3953C38.9837 46.4722 38.9494 46.5441 38.9 46.6053C38.6662 46.8815 38.3753 47.1037 38.0472 47.2565C37.7192 47.4093 37.3619 47.4891 37 47.4903ZM35.93 46.0403C36.2163 46.3173 36.5991 46.4723 36.9975 46.4723C37.3959 46.4723 37.7787 46.3173 38.065 46.0403L38.5 44.4253V42.3403C37.51 42.5403 36.49 42.5403 35.5 42.3403V44.4253L35.93 46.0403Z" fill="white"/>
<path d="M31.5 32.9902H29C28.8674 32.9902 28.7402 32.9376 28.6464 32.8438C28.5527 32.75 28.5 32.6228 28.5 32.4902V29.9902C28.5 29.8576 28.5527 29.7304 28.6464 29.6367C28.7402 29.5429 28.8674 29.4902 29 29.4902H35.5C35.6082 29.4902 35.7135 29.5253 35.8 29.5902C36.0081 29.7488 36.2458 29.8641 36.4991 29.9294C36.7524 29.9946 37.0162 30.0085 37.275 29.9702C37.3833 29.9533 37.4942 29.9725 37.5906 30.0247C37.6869 30.077 37.7634 30.1595 37.8083 30.2595C37.8532 30.3595 37.864 30.4715 37.839 30.5782C37.814 30.685 37.7546 30.7806 37.67 30.8502C35.9123 32.2367 33.7387 32.9906 31.5 32.9902ZM29.5 31.9902H31.5C33.0644 31.9896 34.6016 31.5811 35.96 30.8052C35.7414 30.7255 35.5333 30.6198 35.34 30.4902H29.5V31.9902Z" fill="white"/>
<path d="M45 32.9902C44.2776 32.9905 43.5623 32.8484 42.8948 32.5722C42.2274 32.2959 41.6209 31.8909 41.11 31.3802C40.773 31.0373 40.4791 30.6544 40.235 30.2402C40.1911 30.1642 40.168 30.078 40.168 29.9902C40.168 29.9025 40.1911 29.8162 40.235 29.7402C40.279 29.6639 40.3424 29.6006 40.4188 29.5567C40.4952 29.5128 40.5819 29.4899 40.67 29.4902H45C45.1326 29.4902 45.2597 29.5429 45.3535 29.6367C45.4473 29.7305 45.5 29.8576 45.5 29.9902V32.4902C45.5 32.6228 45.4473 32.75 45.3535 32.8438C45.2597 32.9376 45.1326 32.9902 45 32.9902ZM41.645 30.4902C41.7 30.5502 41.76 30.6152 41.82 30.6702C42.441 31.2975 43.2347 31.7257 44.1 31.9002C44.23 31.9252 44.365 31.9452 44.5 31.9602V30.4902H41.645Z" fill="white"/>
<path d="M37 42.4902C36.82 42.4902 36.645 42.4902 36.47 42.4902H36.395C36.225 42.4902 36.06 42.4902 35.895 42.4402C35.73 42.3902 35.56 42.3852 35.395 42.3502H35.36L34.945 42.2402C34.735 42.1802 34.535 42.1152 34.345 42.0402C34.263 42.0139 34.1828 41.9821 34.105 41.9452C33.8974 41.8465 33.6954 41.7364 33.5 41.6152C31.9006 40.7759 30.6578 39.3875 30 37.7052L29.935 37.5402C29.905 37.4602 29.88 37.3752 29.855 37.2952V37.2302L29.825 37.1402C29.77 36.9652 29.725 36.7902 29.685 36.6102C29.645 36.4302 29.615 36.2652 29.59 36.0802C29.5316 35.7198 29.5015 35.3554 29.5 34.9902V32.4902C29.5 32.3576 29.5527 32.2305 29.6464 32.1367C29.7402 32.0429 29.8674 31.9902 30 31.9902H31.5C33.5126 31.9888 35.4667 31.3128 37.05 30.0702C37.1192 30.0113 37.2046 29.9747 37.295 29.9652C37.6246 29.9226 37.9369 29.7932 38.2 29.5902C38.2865 29.5253 38.3918 29.4902 38.5 29.4902H40.67C40.7581 29.4899 40.8447 29.5128 40.9211 29.5567C40.9975 29.6006 41.0609 29.6639 41.105 29.7402C41.2998 30.0814 41.5403 30.3943 41.82 30.6702C42.441 31.2975 43.2347 31.7257 44.1 31.9002C44.2146 31.9236 44.3174 31.9865 44.3905 32.0778C44.4636 32.1692 44.5024 32.2833 44.5 32.4002V34.9902C44.5001 35.6924 44.4008 36.391 44.205 37.0652C44.1096 37.4076 43.9876 37.7419 43.84 38.0652C43.79 38.1802 43.725 38.3102 43.66 38.4352C43.595 38.5602 43.515 38.7052 43.435 38.8452C43.355 38.9852 43.29 39.0752 43.215 39.1852L43.05 39.4152C43.0306 39.4512 43.0071 39.4847 42.98 39.5152C42.92 39.5952 42.855 39.6702 42.795 39.7452C42.4835 40.1317 42.1315 40.4837 41.745 40.7952L41.59 40.9202L41.535 40.9602C41.3284 41.1189 41.1131 41.2658 40.89 41.4002C40.81 41.4552 40.72 41.5002 40.635 41.5502C40.55 41.6002 40.34 41.7102 40.19 41.7802C40.04 41.8502 40.005 41.8652 39.9 41.9052C39.6228 42.0218 39.339 42.1219 39.05 42.2052L38.63 42.3152H38.595C38.43 42.3502 38.265 42.3802 38.095 42.4052C37.9294 42.4309 37.7624 42.4476 37.595 42.4552C37.5644 42.4696 37.5326 42.4813 37.5 42.4902C37.3335 42.4993 37.1665 42.4993 37 42.4902ZM36.535 41.4902H36.565C36.8559 41.5202 37.1491 41.5202 37.44 41.4902H37.5C37.644 41.4829 37.7876 41.4679 37.93 41.4452C38.095 41.4452 38.25 41.3952 38.4 41.3602H38.43L38.765 41.2752C39.0198 41.2012 39.2702 41.1127 39.515 41.0102L39.755 40.9052L40.135 40.7102L40.355 40.5802C40.5462 40.4646 40.7314 40.3394 40.91 40.2052L40.97 40.1552C41.0088 40.1297 41.0455 40.1013 41.08 40.0702C41.4233 39.7919 41.7367 39.4786 42.015 39.1352C42.0717 39.0713 42.1251 39.0045 42.175 38.9352L42.225 38.8752C42.285 38.7952 42.32 38.7402 42.36 38.6802C42.4 38.6202 42.505 38.4602 42.565 38.3602C42.6351 38.2474 42.6986 38.1305 42.755 38.0102C42.815 37.9002 42.87 37.8002 42.915 37.6952C43.043 37.4118 43.1499 37.1194 43.235 36.8202C43.4108 36.2261 43.5001 35.6098 43.5 34.9902V32.7802C42.5958 32.5278 41.7724 32.0455 41.11 31.3802C40.8403 31.1089 40.599 30.8107 40.39 30.4902H38.66C38.3288 30.711 37.9563 30.8624 37.565 30.9352C35.8232 32.2665 33.6923 32.9886 31.5 32.9902H30.5V34.9902C30.5002 35.3065 30.5236 35.6224 30.57 35.9352C30.595 36.0952 30.62 36.2502 30.655 36.4002C30.6833 36.5493 30.7217 36.6963 30.77 36.8402L30.795 36.9302V36.9952C30.82 37.0602 30.84 37.1302 30.865 37.1952L30.915 37.3252C31.4748 38.7843 32.5392 39.9942 33.915 40.7352C34.08 40.8202 34.25 40.9052 34.415 40.9802L34.64 41.0652C34.8152 41.1342 34.9938 41.1942 35.175 41.2452C35.28 41.2752 35.39 41.3052 35.51 41.3302H35.535C35.685 41.3652 35.84 41.3902 35.995 41.4152C36.15 41.4402 36.29 41.4502 36.435 41.4602L36.535 41.4902Z" fill="white"/>
<path d="M30.29 37.4902H29.75C29.0211 37.4889 28.3224 37.1988 27.8069 36.6833C27.2915 36.1679 27.0013 35.4692 27 34.7402C27.0013 34.0113 27.2915 33.3126 27.8069 32.7972C28.3224 32.2817 29.0211 31.9916 29.75 31.9902H30C30.1326 31.9902 30.2598 32.0429 30.3536 32.1367C30.4473 32.2304 30.5 32.3576 30.5 32.4902V34.9902C30.4985 35.6185 30.5895 36.2435 30.77 36.8452C30.7926 36.9205 30.7971 37 30.7832 37.0773C30.7693 37.1546 30.7374 37.2276 30.69 37.2902C30.6434 37.3523 30.583 37.4027 30.5136 37.4374C30.4442 37.4722 30.3676 37.4902 30.29 37.4902ZM29.5 32.9902C29.1198 33.0394 28.7674 33.2156 28.5 33.4902C28.3383 33.6532 28.2108 33.8469 28.125 34.0598C28.0391 34.2727 27.9966 34.5007 28 34.7302C27.9967 35.1793 28.1661 35.6124 28.4733 35.94C28.7804 36.2676 29.2017 36.4646 29.65 36.4902C29.5493 35.9966 29.4991 35.494 29.5 34.9902V32.9902Z" fill="white"/>
<path d="M44.25 37.4902H43.71C43.6324 37.4902 43.5559 37.4722 43.4864 37.4374C43.417 37.4027 43.3566 37.3523 43.31 37.2902C43.2627 37.2276 43.2308 37.1546 43.2169 37.0773C43.203 37 43.2075 36.9205 43.23 36.8452C43.4105 36.2435 43.5015 35.6185 43.5 34.9902V32.4902C43.5 32.3576 43.5527 32.2304 43.6465 32.1367C43.7403 32.0429 43.8674 31.9902 44 31.9902H44.25C44.979 31.9916 45.6777 32.2817 46.1931 32.7972C46.7086 33.3126 46.9987 34.0113 47 34.7402C46.9987 35.4692 46.7086 36.1679 46.1931 36.6833C45.6777 37.1988 44.979 37.4889 44.25 37.4902ZM44.5 32.9902V34.9902C44.501 35.494 44.4507 35.9966 44.35 36.4902C44.7831 36.4762 45.1944 36.2974 45.5 35.9902C45.6617 35.8272 45.7892 35.6336 45.8751 35.4206C45.9609 35.2077 46.0034 34.9798 46 34.7502C46.0068 34.3246 45.8583 33.9111 45.5822 33.5872C45.3061 33.2632 44.9213 33.051 44.5 32.9902Z" fill="white"/>
<path d="M45.5 30.4902H38.5C38.3951 30.4902 38.2928 30.4572 38.2076 30.3959C38.1225 30.3345 38.0588 30.2479 38.0257 30.1484C37.9925 30.0488 37.9915 29.9413 38.0227 29.8412C38.054 29.741 38.116 29.6532 38.2 29.5902C38.5358 29.3384 38.7839 28.9872 38.909 28.5866C39.0342 28.1859 39.0301 27.756 38.8974 27.3578C38.7646 26.9596 38.51 26.6132 38.1694 26.3678C37.8289 26.1223 37.4198 25.9902 37 25.9902C36.5802 25.9902 36.1711 26.1223 35.8306 26.3678C35.49 26.6132 35.2354 26.9596 35.1026 27.3578C34.9699 27.756 34.9658 28.1859 35.091 28.5866C35.2161 28.9872 35.4642 29.3384 35.8 29.5902C35.884 29.6532 35.946 29.741 35.9773 29.8412C36.0085 29.9413 36.0075 30.0488 35.9743 30.1484C35.9412 30.2479 35.8775 30.3345 35.7924 30.3959C35.7072 30.4572 35.6049 30.4902 35.5 30.4902H28.5C28.3674 30.4902 28.2402 30.4376 28.1464 30.3438C28.0527 30.25 28 30.1228 28 29.9902V28.9902C28 27.2663 28.6848 25.613 29.9038 24.394C31.1228 23.1751 32.7761 22.4902 34.5 22.4902H39.5C40.4537 22.4888 41.396 22.6973 42.2601 23.1008C43.1242 23.5043 43.8889 24.0931 44.5 24.8252L44.53 24.8652C45.4798 26.0303 45.999 27.4871 46 28.9902V29.9902C46 30.1228 45.9473 30.25 45.8536 30.3438C45.7598 30.4376 45.6326 30.4902 45.5 30.4902ZM39.595 29.4902H45V28.9902C45.0007 27.7133 44.557 26.4758 43.745 25.4902C43.2287 24.8644 42.5804 24.3606 41.8465 24.0148C41.1126 23.669 40.3113 23.4899 39.5 23.4902H34.5C33.0413 23.4902 31.6424 24.0697 30.6109 25.1012C29.5795 26.1326 29 27.5316 29 28.9902V29.4902H34.405C34.1405 29.0343 34.0008 28.5167 34 27.9895C33.9992 27.4624 34.1373 26.9444 34.4004 26.4876C34.6635 26.0308 35.0423 25.6514 35.4987 25.3876C35.955 25.1238 36.4729 24.9849 37 24.9849C37.5271 24.9849 38.045 25.1238 38.5013 25.3876C38.9577 25.6514 39.3365 26.0308 39.5996 26.4876C39.8627 26.9444 40.0008 27.4624 40 27.9895C39.9992 28.5167 39.8595 29.0343 39.595 29.4902Z" fill="white"/>
<path d="M37 30.9902C36.3505 30.9928 35.7181 30.782 35.2 30.3902C34.6963 30.0124 34.3242 29.4857 34.1365 28.8847C33.9487 28.2837 33.9548 27.6389 34.1539 27.0416C34.3531 26.4442 34.7351 25.9247 35.2459 25.5565C35.7567 25.1883 36.3704 24.9902 37 24.9902C37.6296 24.9902 38.2433 25.1883 38.7541 25.5565C39.2649 25.9247 39.6469 26.4442 39.8461 27.0416C40.0452 27.6389 40.0513 28.2837 39.8635 28.8847C39.6758 29.4857 39.3037 30.0124 38.8 30.3902C38.398 30.6938 37.9243 30.8885 37.425 30.9552C37.2845 30.9781 37.1424 30.9898 37 30.9902ZM37 25.9902C36.5802 25.9902 36.1711 26.1223 35.8306 26.3678C35.49 26.6132 35.2354 26.9596 35.1026 27.3578C34.9699 27.756 34.9658 28.1859 35.091 28.5866C35.2161 28.9872 35.4642 29.3384 35.8 29.5902C36.0081 29.7488 36.2458 29.8641 36.4991 29.9294C36.7524 29.9946 37.0162 30.0085 37.275 29.9702C37.6115 29.9275 37.9306 29.7964 38.2 29.5902C38.5358 29.3384 38.7839 28.9872 38.909 28.5866C39.0342 28.1859 39.0301 27.756 38.8974 27.3578C38.7646 26.9596 38.51 26.6132 38.1694 26.3678C37.8289 26.1223 37.4198 25.9902 37 25.9902Z" fill="white"/>
<path d="M38 42.4902H36C34.9391 42.4902 33.9217 42.0688 33.1716 41.3187C32.4214 40.5685 32 39.5511 32 38.4902V35.9902C32 35.8576 32.0527 35.7304 32.1464 35.6367C32.2402 35.5429 32.3674 35.4902 32.5 35.4902H41.5C41.6326 35.4902 41.7598 35.5429 41.8536 35.6367C41.9473 35.7304 42 35.8576 42 35.9902V38.4902C42 39.5511 41.5786 40.5685 40.8284 41.3187C40.0783 42.0688 39.0609 42.4902 38 42.4902ZM33 36.4902V38.4902C33 39.2859 33.3161 40.0489 33.8787 40.6116C34.4413 41.1742 35.2044 41.4902 36 41.4902H38C38.7956 41.4902 39.5587 41.1742 40.1213 40.6116C40.6839 40.0489 41 39.2859 41 38.4902V36.4902H33Z" fill="white"/>
<path d="M32.5 36.4903C32.4278 36.4903 32.3564 36.4746 32.2908 36.4444C32.2252 36.4142 32.167 36.3701 32.12 36.3153L29.12 32.8153C29.0338 32.7145 28.9912 32.5836 29.0015 32.4514C29.0118 32.3192 29.0742 32.1965 29.175 32.1103C29.2758 32.0241 29.4067 31.9814 29.5389 31.9918C29.6711 32.0021 29.7938 32.0645 29.88 32.1653L32.88 35.6653C32.9422 35.7379 32.9822 35.8268 32.9953 35.9215C33.0085 36.0162 32.9942 36.1126 32.9542 36.1994C32.9142 36.2863 32.8502 36.3598 32.7697 36.4113C32.6892 36.4629 32.5956 36.4903 32.5 36.4903Z" fill="#D8B282"/>
<path d="M41.5 36.4903C41.4045 36.4903 41.3109 36.4629 41.2304 36.4113C41.1499 36.3598 41.0858 36.2863 41.0459 36.1994C41.0059 36.1126 40.9916 36.0162 41.0048 35.9215C41.0179 35.8268 41.0579 35.7379 41.12 35.6653L44.12 32.1653C44.1627 32.1154 44.2148 32.0743 44.2733 32.0446C44.3319 32.0148 44.3957 31.9969 44.4611 31.9917C44.5266 31.9866 44.5924 31.9945 44.6549 32.0148C44.7173 32.0351 44.7751 32.0676 44.825 32.1103C44.8749 32.1529 44.9159 32.205 44.9457 32.2636C44.9755 32.3221 44.9934 32.3859 44.9985 32.4514C45.0037 32.5168 44.9958 32.5827 44.9755 32.6451C44.9551 32.7075 44.9227 32.7654 44.88 32.8153L41.88 36.3153C41.8331 36.3701 41.7748 36.4142 41.7092 36.4444C41.6436 36.4746 41.5723 36.4903 41.5 36.4903Z" fill="#D8B282"/>
<path d="M37 52.4901H32C31.8871 52.494 31.7762 52.4595 31.6854 52.3923C31.5946 52.3251 31.5293 52.2292 31.5 52.1201L31.21 51.0751C31.1931 51.0067 31.1901 50.9356 31.2013 50.866C31.2124 50.7964 31.2375 50.7298 31.275 50.6701L32.275 49.1301L31.19 48.4051C31.0838 48.3353 31.0082 48.2277 30.9785 48.1042C30.9488 47.9807 30.9672 47.8505 31.03 47.7401L33.03 44.2401C33.0768 44.1584 33.1458 44.0916 33.2289 44.0473C33.3121 44.0031 33.406 43.9833 33.5 43.9901H35C35.1129 43.9862 35.2237 44.0207 35.3145 44.0879C35.4053 44.1551 35.4707 44.251 35.5 44.3601L37.5 51.8601C37.5195 51.9346 37.5215 52.0127 37.5059 52.0881C37.4903 52.1636 37.4575 52.2344 37.41 52.2951C37.3619 52.3576 37.2996 52.4079 37.2284 52.4418C37.1571 52.4757 37.0788 52.4922 37 52.4901ZM32.38 51.4901H36.35L34.615 44.9901H33.79L32.165 47.8351L33.275 48.5751C33.3854 48.6476 33.4626 48.7609 33.4898 48.8902C33.517 49.0195 33.4919 49.1542 33.42 49.2651L32.255 51.0301L32.38 51.4901Z" fill="white"/>
<path d="M42.0001 52.4902H37.0001C36.9237 52.4901 36.8484 52.4724 36.78 52.4386C36.7115 52.4048 36.6517 52.3557 36.6051 52.2952C36.5576 52.2346 36.5248 52.1637 36.5091 52.0883C36.4935 52.0128 36.4956 51.9348 36.5151 51.8602L38.0151 46.1852C38.0151 46.1852 38.0151 46.1852 38.0151 46.1502L38.5151 44.3602C38.5438 44.2537 38.6069 44.1596 38.6946 44.0927C38.7824 44.0258 38.8898 43.9898 39.0001 43.9902H40.5001C40.5882 43.9899 40.6748 44.0128 40.7512 44.0567C40.8276 44.1006 40.8911 44.1639 40.9351 44.2402L42.9351 47.7402C42.9979 47.8507 43.0163 47.9809 42.9866 48.1044C42.9569 48.2279 42.8813 48.3355 42.7751 48.4052L41.6901 49.1302L42.6901 50.6702C42.7276 50.7299 42.7526 50.7965 42.7638 50.8661C42.775 50.9357 42.772 51.0068 42.7551 51.0752L42.5001 52.1202C42.4708 52.2293 42.4054 52.3253 42.3146 52.3925C42.2239 52.4596 42.113 52.4941 42.0001 52.4902ZM37.6501 51.4902H41.6201L41.7451 51.0302L40.5801 49.2652C40.5082 49.1544 40.4831 49.0196 40.5103 48.8903C40.5375 48.761 40.6147 48.6478 40.7251 48.5752L41.8351 47.8352L40.2101 44.9902H39.3851L39.0001 46.3802C39.0001 46.3802 39.0001 46.3802 39.0001 46.4152L37.6501 51.4902Z" fill="white"/>
</svg>
