<svg width="75" height="75" viewBox="0 0 75 75" fill="none" xmlns="http://www.w3.org/2000/svg">
<rect width="74.5868" height="74.5868" transform="translate(0 -0.00341797)" fill="#D8B282"/>
<path opacity="0.5" d="M42 40.2134H34C32.8954 40.2134 32 41.1088 32 42.2134V50.2134C32 51.3179 32.8954 52.2134 34 52.2134H42C43.1046 52.2134 44 51.3179 44 50.2134V42.2134C44 41.1088 43.1046 40.2134 42 40.2134Z" fill="#D8B282"/>
<path d="M40.2 47.2134H24.5C24.3674 47.2134 24.2402 47.1607 24.1464 47.0669C24.0527 46.9732 24 46.846 24 46.7134V30.7134C24 30.5808 24.0527 30.4536 24.1464 30.3598C24.2402 30.2661 24.3674 30.2134 24.5 30.2134H45C45.1326 30.2134 45.2598 30.2661 45.3536 30.3598C45.4473 30.4536 45.5 30.5808 45.5 30.7134V39.4334C45.505 39.5437 45.4735 39.6525 45.4101 39.743C45.3468 39.8334 45.2554 39.9004 45.15 39.9334C44.3508 40.1796 43.4935 40.1621 42.705 39.8834C42.605 39.8508 42.5031 39.8241 42.4 39.8034C42.1238 39.7255 41.8364 39.6951 41.55 39.7134C41.2586 39.7359 40.973 39.8068 40.705 39.9234C40.2368 40.1229 39.8313 40.4452 39.5311 40.8562C39.231 41.2672 39.0475 41.7517 39 42.2584C38.9314 42.9911 39.1562 43.7211 39.625 44.2884C40.1416 44.9431 40.4962 45.7106 40.66 46.5284V46.6334C40.6714 46.7052 40.6671 46.7786 40.6472 46.8486C40.6273 46.9185 40.5925 46.9833 40.545 47.0384C40.502 47.089 40.4493 47.1305 40.3901 47.1606C40.3309 47.1906 40.2662 47.2086 40.2 47.2134ZM25 46.2134H39.555C39.4078 45.745 39.1756 45.3077 38.87 44.9234C38.4944 44.4692 38.2299 43.9338 38.0975 43.3595C37.9651 42.7852 37.9684 42.188 38.1072 41.6152C38.246 41.0424 38.5165 40.51 38.8972 40.06C39.2778 39.6101 39.7582 39.2552 40.3 39.0234C40.6683 38.8558 41.0621 38.7511 41.465 38.7134C41.8501 38.6763 42.2387 38.7033 42.615 38.7934C42.7554 38.8219 42.8939 38.8586 43.03 38.9034C43.501 39.0711 44.0074 39.1141 44.5 39.0284V31.2134H25V46.2134Z" fill="white"/>
<path d="M45 31.2134H24.5C24.3674 31.2134 24.2402 31.1607 24.1464 31.0669C24.0527 30.9732 24 30.846 24 30.7134V26.7134C24 26.5808 24.0527 26.4536 24.1464 26.3598C24.2402 26.2661 24.3674 26.2134 24.5 26.2134H45C45.1326 26.2134 45.2598 26.2661 45.3536 26.3598C45.4473 26.4536 45.5 26.5808 45.5 26.7134V30.7134C45.5 30.846 45.4473 30.9732 45.3536 31.0669C45.2598 31.1607 45.1326 31.2134 45 31.2134ZM25 30.2134H44.5V27.2134H25V30.2134Z" fill="white"/>
<path d="M27.5 28.7134C27.3674 28.7134 27.2402 28.6607 27.1464 28.5669C27.0527 28.4732 27 28.346 27 28.2134V25.2134C27 25.0808 27.0527 24.9536 27.1464 24.8598C27.2402 24.7661 27.3674 24.7134 27.5 24.7134C27.6326 24.7134 27.7598 24.7661 27.8536 24.8598C27.9473 24.9536 28 25.0808 28 25.2134V28.2134C28 28.346 27.9473 28.4732 27.8536 28.5669C27.7598 28.6607 27.6326 28.7134 27.5 28.7134Z" fill="white"/>
<path d="M30.5 28.7134C30.3674 28.7134 30.2402 28.6607 30.1464 28.5669C30.0527 28.4732 30 28.346 30 28.2134V25.2134C30 25.0808 30.0527 24.9536 30.1464 24.8598C30.2402 24.7661 30.3674 24.7134 30.5 24.7134C30.6326 24.7134 30.7598 24.7661 30.8536 24.8598C30.9473 24.9536 31 25.0808 31 25.2134V28.2134C31 28.346 30.9473 28.4732 30.8536 28.5669C30.7598 28.6607 30.6326 28.7134 30.5 28.7134Z" fill="white"/>
<path d="M39 28.7134C38.8674 28.7134 38.7402 28.6607 38.6464 28.5669C38.5527 28.4732 38.5 28.346 38.5 28.2134V25.2134C38.5 25.0808 38.5527 24.9536 38.6464 24.8598C38.7402 24.7661 38.8674 24.7134 39 24.7134C39.1326 24.7134 39.2598 24.7661 39.3536 24.8598C39.4473 24.9536 39.5 25.0808 39.5 25.2134V28.2134C39.5 28.346 39.4473 28.4732 39.3536 28.5669C39.2598 28.6607 39.1326 28.7134 39 28.7134Z" fill="white"/>
<path d="M42 28.7134C41.8674 28.7134 41.7402 28.6607 41.6464 28.5669C41.5527 28.4732 41.5 28.346 41.5 28.2134V25.2134C41.5 25.0808 41.5527 24.9536 41.6464 24.8598C41.7402 24.7661 41.8674 24.7134 42 24.7134C42.1326 24.7134 42.2598 24.7661 42.3536 24.8598C42.4473 24.9536 42.5 25.0808 42.5 25.2134V28.2134C42.5 28.346 42.4473 28.4732 42.3536 28.5669C42.2598 28.6607 42.1326 28.7134 42 28.7134Z" fill="white"/>
<path d="M33.5 35.7134H31.5C31.3674 35.7134 31.2402 35.6607 31.1464 35.5669C31.0527 35.4732 31 35.346 31 35.2134V33.2134C31 33.0808 31.0527 32.9536 31.1464 32.8598C31.2402 32.7661 31.3674 32.7134 31.5 32.7134H33.5C33.6326 32.7134 33.7598 32.7661 33.8536 32.8598C33.9473 32.9536 34 33.0808 34 33.2134V35.2134C34 35.346 33.9473 35.4732 33.8536 35.5669C33.7598 35.6607 33.6326 35.7134 33.5 35.7134ZM32 34.7134H33V33.7134H32V34.7134Z" fill="white"/>
<path d="M38 35.7134H36C35.8674 35.7134 35.7402 35.6607 35.6464 35.5669C35.5527 35.4732 35.5 35.346 35.5 35.2134V33.2134C35.5 33.0808 35.5527 32.9536 35.6464 32.8598C35.7402 32.7661 35.8674 32.7134 36 32.7134H38C38.1326 32.7134 38.2598 32.7661 38.3536 32.8598C38.4473 32.9536 38.5 33.0808 38.5 33.2134V35.2134C38.5 35.346 38.4473 35.4732 38.3536 35.5669C38.2598 35.6607 38.1326 35.7134 38 35.7134ZM36.5 34.7134H37.5V33.7134H36.5V34.7134Z" fill="white"/>
<path d="M42.5 35.7134H40.5C40.3674 35.7134 40.2402 35.6607 40.1464 35.5669C40.0527 35.4732 40 35.346 40 35.2134V33.2134C40 33.0808 40.0527 32.9536 40.1464 32.8598C40.2402 32.7661 40.3674 32.7134 40.5 32.7134H42.5C42.6326 32.7134 42.7598 32.7661 42.8536 32.8598C42.9473 32.9536 43 33.0808 43 33.2134V35.2134C43 35.346 42.9473 35.4732 42.8536 35.5669C42.7598 35.6607 42.6326 35.7134 42.5 35.7134ZM41 34.7134H42V33.7134H41V34.7134Z" fill="white"/>
<path d="M29 40.2134H27C26.8674 40.2134 26.7402 40.1607 26.6464 40.0669C26.5527 39.9732 26.5 39.846 26.5 39.7134V37.7134C26.5 37.5808 26.5527 37.4536 26.6464 37.3598C26.7402 37.2661 26.8674 37.2134 27 37.2134H29C29.1326 37.2134 29.2598 37.2661 29.3536 37.3598C29.4473 37.4536 29.5 37.5808 29.5 37.7134V39.7134C29.5 39.846 29.4473 39.9732 29.3536 40.0669C29.2598 40.1607 29.1326 40.2134 29 40.2134ZM27.5 39.2134H28.5V38.2134H27.5V39.2134Z" fill="white"/>
<path d="M33.5 40.2134H31.5C31.3674 40.2134 31.2402 40.1607 31.1464 40.0669C31.0527 39.9732 31 39.846 31 39.7134V37.7134C31 37.5808 31.0527 37.4536 31.1464 37.3598C31.2402 37.2661 31.3674 37.2134 31.5 37.2134H33.5C33.6326 37.2134 33.7598 37.2661 33.8536 37.3598C33.9473 37.4536 34 37.5808 34 37.7134V39.7134C34 39.846 33.9473 39.9732 33.8536 40.0669C33.7598 40.1607 33.6326 40.2134 33.5 40.2134ZM32 39.2134H33V38.2134H32V39.2134Z" fill="white"/>
<path d="M38 40.2134H36C35.8674 40.2134 35.7402 40.1607 35.6464 40.0669C35.5527 39.9732 35.5 39.846 35.5 39.7134V37.7134C35.5 37.5808 35.5527 37.4536 35.6464 37.3598C35.7402 37.2661 35.8674 37.2134 36 37.2134H38C38.1326 37.2134 38.2598 37.2661 38.3536 37.3598C38.4473 37.4536 38.5 37.5808 38.5 37.7134V39.7134C38.5 39.846 38.4473 39.9732 38.3536 40.0669C38.2598 40.1607 38.1326 40.2134 38 40.2134ZM36.5 39.2134H37.5V38.2134H36.5V39.2134Z" fill="white"/>
<path d="M29 44.7134H27C26.8674 44.7134 26.7402 44.6607 26.6464 44.5669C26.5527 44.4732 26.5 44.346 26.5 44.2134V42.2134C26.5 42.0808 26.5527 41.9536 26.6464 41.8598C26.7402 41.7661 26.8674 41.7134 27 41.7134H29C29.1326 41.7134 29.2598 41.7661 29.3536 41.8598C29.4473 41.9536 29.5 42.0808 29.5 42.2134V44.2134C29.5 44.346 29.4473 44.4732 29.3536 44.5669C29.2598 44.6607 29.1326 44.7134 29 44.7134ZM27.5 43.7134H28.5V42.7134H27.5V43.7134Z" fill="white"/>
<path d="M33.5 44.7134H31.5C31.3674 44.7134 31.2402 44.6607 31.1464 44.5669C31.0527 44.4732 31 44.346 31 44.2134V42.2134C31 42.0808 31.0527 41.9536 31.1464 41.8598C31.2402 41.7661 31.3674 41.7134 31.5 41.7134H33.5C33.6326 41.7134 33.7598 41.7661 33.8536 41.8598C33.9473 41.9536 34 42.0808 34 42.2134V44.2134C34 44.346 33.9473 44.4732 33.8536 44.5669C33.7598 44.6607 33.6326 44.7134 33.5 44.7134ZM32 43.7134H33V42.7134H32V43.7134Z" fill="white"/>
<path d="M46.185 50.7134C45.8264 50.7144 45.4779 50.5946 45.1958 50.3733C44.9137 50.1519 44.7143 49.8419 44.63 49.4934L44.16 47.5584C44.1511 47.5227 44.1304 47.4911 44.1015 47.4685C44.0725 47.446 44.0368 47.4337 44 47.4337C43.9633 47.4337 43.9276 47.446 43.8986 47.4685C43.8696 47.4911 43.849 47.5227 43.84 47.5584L43.37 49.4934C43.2838 49.841 43.0852 50.1503 42.805 50.3734C42.5907 50.5417 42.3369 50.6524 42.0678 50.6951C41.7986 50.7378 41.5231 50.7111 41.2671 50.6174C41.0112 50.5238 40.7835 50.3663 40.6055 50.16C40.4275 49.9536 40.3051 49.7053 40.25 49.4384L40.055 48.4884C39.945 47.9384 39.82 47.3434 39.71 46.8184V46.7384C39.5808 46.0772 39.2983 45.4555 38.885 44.9234C38.5094 44.4692 38.2449 43.9337 38.1125 43.3595C37.9801 42.7852 37.9834 42.188 38.1223 41.6152C38.2611 41.0424 38.5316 40.51 38.9122 40.06C39.2929 39.6101 39.7732 39.2552 40.315 39.0234C40.6787 38.8574 41.0673 38.7527 41.465 38.7134C41.8502 38.6763 42.2388 38.7033 42.615 38.7934C42.7554 38.8219 42.894 38.8586 43.03 38.9034C43.6168 39.1114 44.2548 39.1254 44.85 38.9434L44.935 38.9134L45.175 38.8384H45.235C45.6607 38.7188 46.1044 38.6764 46.545 38.7134C46.9189 38.7409 47.2856 38.8305 47.63 38.9784C47.9495 39.1006 48.2494 39.2691 48.52 39.4784C48.9396 39.7998 49.2878 40.2049 49.5426 40.6679C49.7974 41.131 49.9531 41.6419 50 42.1684C50.0901 43.1651 49.7828 44.1571 49.145 44.9284C48.9004 45.2292 48.7047 45.5667 48.565 45.9284C48.4576 46.1899 48.3756 46.4611 48.32 46.7384C48.205 47.2984 48.07 47.9484 47.945 48.5384C47.88 48.8784 47.82 49.1784 47.765 49.4434C47.7497 49.5255 47.7262 49.6059 47.695 49.6834C47.5902 49.9482 47.4178 50.1809 47.195 50.3584C46.9099 50.5906 46.5528 50.7162 46.185 50.7134ZM44 46.4334C44.2611 46.43 44.5154 46.5159 44.7209 46.6768C44.9264 46.8378 45.0708 47.0641 45.13 47.3184L45.6 49.2534C45.6316 49.3847 45.7064 49.5016 45.8126 49.585C45.9188 49.6685 46.05 49.7137 46.185 49.7134C46.3199 49.7156 46.4512 49.6695 46.555 49.5834C46.6391 49.5181 46.7046 49.4319 46.745 49.3334C46.745 49.3334 46.745 49.2834 46.745 49.2584C46.805 48.9784 46.865 48.6884 46.925 48.3734C47.055 47.7484 47.19 47.0984 47.305 46.5334C47.3708 46.1907 47.4713 45.8556 47.605 45.5334C47.7819 45.0756 48.03 44.6487 48.34 44.2684C48.8163 43.7115 49.0535 42.9892 49 42.2584C48.9632 41.876 48.8484 41.5052 48.6626 41.169C48.4769 40.8327 48.2241 40.5381 47.92 40.3034C47.7207 40.1437 47.4982 40.0156 47.26 39.9234C47.0069 39.8094 46.7365 39.7385 46.46 39.7134C46.1382 39.6787 45.8126 39.7042 45.5 39.7884H45.445L45.305 39.8334H45.255L45.11 39.8784C44.3225 40.1158 43.4797 40.0948 42.705 39.8184C42.605 39.7858 42.5032 39.7591 42.4 39.7384C42.1201 39.6822 41.8328 39.6738 41.55 39.7134C41.2586 39.7358 40.9731 39.8068 40.705 39.9234C40.2369 40.1229 39.8313 40.4452 39.5312 40.8562C39.2311 41.2672 39.0476 41.7517 39 42.2584C38.9315 42.9911 39.1562 43.7211 39.625 44.2884C40.1416 44.9431 40.4963 45.7106 40.66 46.5284V46.6334C40.765 47.1334 40.885 47.7384 41 48.2884L41.195 49.2384C41.2185 49.3771 41.2899 49.5031 41.3968 49.5945C41.5037 49.6859 41.6394 49.7368 41.78 49.7384C41.9123 49.7392 42.041 49.6951 42.145 49.6134C42.2534 49.5312 42.3309 49.415 42.365 49.2834L42.835 47.3434C42.8904 47.0785 43.0377 46.8418 43.251 46.6752C43.4643 46.5086 43.7296 46.4229 44 46.4334Z" fill="white"/>
<path d="M44 41.8185C43.1599 41.7917 42.3441 41.5301 41.645 41.0635C41.5888 41.0263 41.5407 40.9781 41.5036 40.9219C41.4665 40.8656 41.4411 40.8025 41.429 40.7362C41.4169 40.6699 41.4184 40.6018 41.4332 40.5361C41.4481 40.4704 41.4761 40.4084 41.5156 40.3537C41.555 40.2991 41.6051 40.253 41.6628 40.2182C41.7205 40.1835 41.7847 40.1607 41.8514 40.1513C41.9181 40.142 41.9861 40.1462 42.0511 40.1637C42.1162 40.1813 42.177 40.2118 42.23 40.2535C42.7583 40.5978 43.3699 40.793 44 40.8185C44.6301 40.793 45.2417 40.5978 45.77 40.2535C45.823 40.2118 45.8838 40.1813 45.9489 40.1637C46.0139 40.1462 46.0818 40.142 46.1486 40.1513C46.2153 40.1607 46.2794 40.1835 46.3372 40.2182C46.3949 40.253 46.445 40.2991 46.4844 40.3537C46.5239 40.4084 46.5519 40.4704 46.5667 40.5361C46.5816 40.6018 46.5831 40.6699 46.571 40.7362C46.5589 40.8025 46.5335 40.8656 46.4964 40.9219C46.4593 40.9781 46.4112 41.0263 46.355 41.0635C45.6559 41.5301 44.8401 41.7917 44 41.8185Z" fill="#D8B282"/>
</svg>
