<svg width="75" height="75" viewBox="0 0 75 75" fill="none" xmlns="http://www.w3.org/2000/svg">
<rect width="74.5868" height="74.5868" transform="translate(0 -0.00341797)" fill="#D8B282"/>
<path opacity="0.5" d="M32.1875 29.9561H21.1875C19.6687 29.9561 18.4375 31.1873 18.4375 32.7061V43.7061C18.4375 45.2248 19.6687 46.4561 21.1875 46.4561H32.1875C33.7063 46.4561 34.9375 45.2248 34.9375 43.7061V32.7061C34.9375 31.1873 33.7063 29.9561 32.1875 29.9561Z" fill="#D8B282"/>
<path d="M44.1087 51.9608C43.3048 51.9605 42.5246 51.6888 41.8944 51.1897C41.2643 50.6906 40.8211 49.9933 40.6368 49.2108L39.3924 44.1164C39.3523 43.8718 39.2266 43.6494 39.0377 43.489C38.8488 43.3285 38.609 43.2404 38.3612 43.2404C38.1133 43.2404 37.8735 43.3285 37.6846 43.489C37.4957 43.6494 37.37 43.8718 37.3299 44.1164L36.113 49.2108C35.9188 49.9977 35.4628 50.6953 34.82 51.1891C34.1772 51.6828 33.3857 51.9435 32.5753 51.9283C31.7649 51.9131 30.9837 51.623 30.3598 51.1055C29.7359 50.588 29.3065 49.8738 29.1418 49.0802C28.7362 47.1277 28.1518 44.2677 27.6843 41.9921C27.3395 40.1536 26.5487 38.4279 25.3812 36.9664C23.827 35.0671 23.0857 32.6308 23.3187 30.1877C23.5374 28.0231 24.4972 26.0005 26.0356 24.4621C27.574 22.9237 29.5966 21.9639 31.7612 21.7452C33.0705 21.6238 34.3906 21.7856 35.6318 22.2196C37.4118 22.8448 39.3518 22.8448 41.1318 22.2196C42.8568 21.6267 44.718 21.5536 46.4842 22.0095C48.2503 22.4654 49.8437 23.4302 51.0662 24.7839C51.1627 24.8908 51.2233 25.0252 51.2393 25.1683C51.2553 25.3114 51.226 25.4559 51.1555 25.5814C50.9222 26.0071 50.6306 26.3981 50.2893 26.7433C49.9672 27.0625 49.6043 27.3376 49.2099 27.5614C49.9982 28.0162 50.6527 28.6707 51.1074 29.4589C51.3297 29.0656 51.605 28.7048 51.9255 28.3864C51.9746 28.3344 52.0274 28.2862 52.0837 28.2421C52.1723 28.1714 52.2771 28.1237 52.3887 28.1033C52.5002 28.0829 52.6151 28.0904 52.723 28.1252C52.8314 28.1595 52.9296 28.2202 53.0088 28.3018C53.088 28.3834 53.1457 28.4833 53.1768 28.5927C53.5779 30.0348 53.6229 31.5528 53.308 33.0161C52.993 34.4795 52.3275 35.8445 51.3687 36.9939C50.2012 38.4554 49.4103 40.1811 49.0655 42.0196C48.598 44.3089 47.9999 47.1483 47.608 49.1077C47.4444 49.9144 47.0063 50.6395 46.3683 51.1597C45.7303 51.6799 44.9318 51.9629 44.1087 51.9608ZM38.3749 41.9714C38.918 41.965 39.4471 42.1441 39.8746 42.4791C40.3022 42.8142 40.6026 43.285 40.7262 43.8139L41.9705 48.9083C42.0896 49.3927 42.3697 49.8222 42.7649 50.1265C43.1602 50.4307 43.647 50.5916 44.1457 50.5829C44.6444 50.5741 45.1253 50.3961 45.5096 50.0781C45.8938 49.7601 46.1586 49.3209 46.2605 48.8327C46.6662 46.8802 47.2505 44.0202 47.718 41.7446C48.1141 39.6961 49.0038 37.7752 50.3099 36.1483C51.6272 34.5725 52.2783 32.5452 52.1249 30.4971C51.9044 30.976 51.7873 31.4961 51.7812 32.0233C51.7812 32.2057 51.7087 32.3805 51.5798 32.5095C51.4509 32.6384 51.276 32.7108 51.0937 32.7108C50.9113 32.7108 50.7365 32.6384 50.6075 32.5095C50.4786 32.3805 50.4062 32.2057 50.4062 32.0233C50.4044 31.021 50.0054 30.0603 49.2967 29.3516C48.5879 28.6428 47.6272 28.2439 46.6249 28.2421C46.4426 28.2421 46.2677 28.1696 46.1388 28.0407C46.0099 27.9118 45.9374 27.7369 45.9374 27.5546C45.9374 27.3722 46.0099 27.1974 46.1388 27.0684C46.2677 26.9395 46.4426 26.8671 46.6249 26.8671C47.63 26.8677 48.5943 26.4696 49.3062 25.7602C49.4402 25.6269 49.5621 25.4819 49.6705 25.3271C48.6185 24.3083 47.3057 23.5998 45.8767 23.2796C44.4477 22.9593 42.958 23.0398 41.5718 23.5121C39.5011 24.2303 37.2488 24.2303 35.178 23.5121C34.1217 23.1445 32.9985 23.0085 31.8849 23.1133C30.0305 23.2926 28.2959 24.1105 26.9779 25.4273C25.6599 26.744 24.8403 28.4778 24.6593 30.3321C24.5574 31.3711 24.6623 32.42 24.9679 33.4183C25.2735 34.4166 25.7738 35.3444 26.4399 36.1483C27.7497 37.7834 28.6395 39.7141 29.0318 41.7721C29.4993 44.0683 30.0837 46.9146 30.4893 48.8671C30.5651 49.234 30.7333 49.5756 30.978 49.8593C31.2228 50.143 31.5359 50.3595 31.8878 50.4883C32.2397 50.6171 32.6186 50.6538 32.9887 50.5951C33.3588 50.5364 33.7077 50.3841 34.0024 50.1527C34.3916 49.8496 34.6657 49.4227 34.7793 48.9427L36.0237 43.8483C36.1405 43.3131 36.438 42.8343 36.8661 42.4925C37.2943 42.1507 37.8271 41.9667 38.3749 41.9714Z" fill="white"/>
<path d="M38.3749 27.7058C36.0203 27.6619 33.714 27.031 31.6649 25.8702C31.5404 25.7657 31.457 25.6204 31.4294 25.4602C31.4018 25.3 31.4319 25.1352 31.5144 24.9951C31.5968 24.8549 31.7262 24.7486 31.8796 24.6948C32.0331 24.6411 32.2006 24.6434 32.3524 24.7015C34.1988 25.7231 36.2653 26.2821 38.3749 26.3308C40.4752 26.2777 42.5317 25.7188 44.3699 24.7015C44.4465 24.6372 44.5361 24.5904 44.6326 24.5643C44.729 24.5383 44.83 24.5335 44.9285 24.5505C45.027 24.5674 45.1206 24.6056 45.2028 24.6624C45.285 24.7193 45.3538 24.7933 45.4045 24.8795C45.4552 24.9656 45.4865 25.0617 45.4962 25.1612C45.5059 25.2606 45.4938 25.361 45.4608 25.4553C45.4277 25.5496 45.3745 25.6356 45.3049 25.7073C45.2352 25.7789 45.1508 25.8345 45.0574 25.8702C43.0165 27.0266 40.7201 27.6574 38.3749 27.7058Z" fill="white"/>
<path d="M51.0938 32.7109C50.9114 32.7109 50.7365 32.6385 50.6076 32.5096C50.4787 32.3806 50.4062 32.2058 50.4062 32.0234C50.4044 31.0211 50.0055 30.0604 49.2967 29.3517C48.588 28.643 47.6273 28.244 46.625 28.2422C46.4427 28.2422 46.2678 28.1698 46.1389 28.0408C46.0099 27.9119 45.9375 27.737 45.9375 27.5547C45.9375 27.3724 46.0099 27.1975 46.1389 27.0686C46.2678 26.9396 46.4427 26.8672 46.625 26.8672C47.6301 26.8678 48.5943 26.4698 49.3063 25.7603C49.5575 25.5043 49.7726 25.2152 49.9456 24.9009C50.2495 24.3443 50.4079 23.7201 50.4062 23.0859C50.4062 22.9036 50.4787 22.7287 50.6076 22.5998C50.7365 22.4709 50.9114 22.3984 51.0938 22.3984C51.2761 22.3984 51.451 22.4709 51.5799 22.5998C51.7088 22.7287 51.7812 22.9036 51.7812 23.0859C51.7794 23.583 51.876 24.0755 52.0654 24.5351C52.2548 24.9947 52.5332 25.4123 52.8847 25.7637C53.2362 26.1152 53.6537 26.3937 54.1133 26.5831C54.5729 26.7724 55.0654 26.869 55.5625 26.8672C55.7448 26.8672 55.9197 26.9396 56.0486 27.0686C56.1776 27.1975 56.25 27.3724 56.25 27.5547C56.25 27.737 56.1776 27.9119 56.0486 28.0408C55.9197 28.1698 55.7448 28.2422 55.5625 28.2422C54.6246 28.2393 53.7196 28.5875 53.0256 29.2184L52.9363 29.3078C52.5715 29.6599 52.2813 30.0818 52.0829 30.5483C51.8845 31.0148 51.7819 31.5165 51.7812 32.0234C51.7812 32.2058 51.7088 32.3806 51.5799 32.5096C51.451 32.6385 51.2761 32.7109 51.0938 32.7109ZM49.1963 27.5547C49.9845 28.0094 50.639 28.6639 51.0938 29.4522C51.316 29.0589 51.5913 28.698 51.9119 28.3797L52.0012 28.2903C52.2908 28.0264 52.6091 27.7958 52.95 27.6028C52.1655 27.1485 51.5137 26.4967 51.0594 25.7122C50.8317 26.1019 50.5569 26.4621 50.2412 26.7847C49.9269 27.0845 49.5757 27.3433 49.1963 27.5547Z" fill="white"/>
</svg>
