<svg width="25" height="25" viewBox="0 0 25 25" fill="none" xmlns="http://www.w3.org/2000/svg">
<path d="M13.5325 0.681641V2.33459C15.1674 2.33459 16.6991 2.74782 18.1275 3.5743C19.487 4.38355 20.5712 5.4683 21.3801 6.82853C22.2061 8.25764 22.6191 9.79006 22.6191 11.4258H24.2712C24.2712 9.48013 23.7808 7.67222 22.7998 6.00206C21.8533 4.38355 20.5712 3.1008 18.9535 2.1538C17.2842 1.17236 15.4772 0.681641 13.5325 0.681641ZM4.98806 3.16106C4.52341 3.16106 4.11898 3.30741 3.7748 3.60012L1.11594 6.31199L1.19338 6.26033C0.763143 6.62191 0.479188 7.06959 0.341512 7.60335C0.221046 8.13712 0.255465 8.65366 0.444769 9.15299C0.926633 10.496 1.57199 11.8735 2.38083 13.2854C3.51665 15.231 4.8676 16.9787 6.43365 18.5283C8.94623 21.0594 12.0697 23.0567 15.8042 24.5202H15.83C16.3291 24.6924 16.8282 24.7268 17.3272 24.6235C17.8435 24.5202 18.2996 24.2964 18.6954 23.952L21.3026 21.3435C21.6468 20.9991 21.8189 20.5773 21.8189 20.0779C21.8189 19.5614 21.6468 19.1309 21.3026 18.7866L17.921 15.3774C17.5768 15.033 17.1465 14.8608 16.6302 14.8608C16.114 14.8608 15.6837 15.033 15.3395 15.3774L13.7132 17.0303C12.4053 16.4105 11.2695 15.6442 10.3058 14.7317C9.34205 13.8019 8.57623 12.6741 8.00832 11.3483L9.66042 9.69536C10.0218 9.31656 10.2025 8.86889 10.2025 8.35234C10.2025 7.81858 9.99601 7.38812 9.58298 7.06098L9.66042 7.13846L6.20133 3.60012C5.85714 3.30741 5.45272 3.16106 4.98806 3.16106ZM13.5325 3.98753V5.64048C14.5823 5.64048 15.5461 5.89875 16.4237 6.4153C17.3186 6.93184 18.0242 7.63779 18.5405 8.53313C19.0568 9.41126 19.3149 10.3755 19.3149 11.4258H20.967C20.967 10.0828 20.6314 8.83445 19.9603 7.68083C19.2891 6.56165 18.3942 5.66631 17.2756 4.9948C16.1226 4.32329 14.8749 3.98753 13.5325 3.98753ZM4.98806 4.81401C5.03969 4.81401 5.09992 4.83983 5.16876 4.89149L8.55042 8.35234C8.56763 8.42122 8.55042 8.48148 8.49879 8.53313L6.04644 10.9609L6.22714 11.4774L6.56273 12.2006C6.83808 12.786 7.15645 13.3542 7.51785 13.9052C8.01692 14.68 8.56763 15.3429 9.16996 15.8939C9.9788 16.6859 10.9511 17.4091 12.087 18.0634C12.6549 18.3905 13.1367 18.6316 13.5325 18.7866L14.0488 19.019L16.5528 16.5138C16.5872 16.4793 16.613 16.4621 16.6302 16.4621C16.6475 16.4621 16.6733 16.4793 16.7077 16.5138L20.1926 20.0004C20.227 20.0349 20.2442 20.0607 20.2442 20.0779C20.2442 20.0779 20.227 20.0951 20.1926 20.1296L17.6112 22.6865C17.2326 23.0136 16.8196 23.0997 16.3721 22.9448C12.8614 21.5845 9.93578 19.725 7.59529 17.3661C6.1497 15.9197 4.8848 14.2754 3.80061 12.4331C3.02619 11.1073 2.42385 9.8245 1.99362 8.58479V8.55896C1.92478 8.404 1.91618 8.22321 1.9678 8.01659C2.01943 7.79275 2.11408 7.62057 2.25176 7.50004L4.80736 4.89149C4.85899 4.83983 4.91922 4.81401 4.98806 4.81401ZM13.5325 7.29342V8.94637C14.2209 8.94637 14.806 9.18742 15.2879 9.66953C15.7698 10.1516 16.0107 10.7371 16.0107 11.4258H17.6628C17.6628 10.6854 17.4735 9.99668 17.0949 9.35961C16.7335 8.72253 16.2344 8.22321 15.5977 7.86162C14.9609 7.48282 14.2726 7.29342 13.5325 7.29342Z" fill="#010C0D" fill-opacity="0.5"/>
</svg>
