<svg width="100" height="100" viewBox="0 0 100 100" fill="none" xmlns="http://www.w3.org/2000/svg">
<rect width="100" height="100" fill="#010C0D"/>
<path d="M45 49L49 40C49.7956 40 50.5587 40.3161 51.1213 40.8787C51.6839 41.4413 52 42.2044 52 43V47H57.66C57.9499 46.9967 58.2371 47.0565 58.5016 47.1752C58.7661 47.2939 59.0016 47.4687 59.1919 47.6875C59.3821 47.9063 59.5225 48.1638 59.6033 48.4423C59.6842 48.7207 59.7035 49.0134 59.66 49.3L58.28 58.3C58.2077 58.7769 57.9654 59.2116 57.5979 59.524C57.2304 59.8364 56.7623 60.0055 56.28 60H45M45 49V60M45 49H42C41.4696 49 40.9609 49.2107 40.5858 49.5858C40.2107 49.9609 40 50.4696 40 51V58C40 58.5304 40.2107 59.0391 40.5858 59.4142C40.9609 59.7893 41.4696 60 42 60H45" stroke="white" stroke-width="2" stroke-linecap="round" stroke-linejoin="round"/>
<rect x="40" y="49" width="5" height="11" fill="white"/>
</svg>
