<svg width="80" height="80" viewBox="0 0 80 80" fill="none" xmlns="http://www.w3.org/2000/svg">
<g clip-path="url(#clip0_402_1060)">
<path d="M70.9155 21.9968C71.9215 19.1142 72.1019 16.0079 71.4363 13.0283C70.7706 10.0487 69.2855 7.31441 67.1485 5.134C65.0543 2.91208 62.3807 1.31985 59.4294 0.537055C56.4782 -0.245737 53.3669 -0.187914 50.4468 0.703997L42.5464 3.03187C40.8843 3.52259 39.1158 3.52259 37.4536 3.03187L29.5532 0.704073C26.6332 -0.188895 23.5216 -0.247252 20.5702 0.535597C17.6188 1.31845 14.9452 2.91129 12.8516 5.13407C10.7145 7.31447 9.22942 10.0487 8.56379 13.0283C7.89815 16.0079 8.0785 19.1143 9.08448 21.9968L14.4995 38.0112C15.1424 39.9372 15.1252 42.0226 14.4507 43.9377C12.8132 48.9087 12.1922 54.1583 12.6246 59.3741C13.057 64.59 14.534 69.6656 16.9678 74.299L18.6817 77.5425C19.017 78.175 19.4967 78.7195 20.0819 79.1319C20.6671 79.5443 21.3413 79.8128 22.0497 79.9158C22.1156 79.9345 22.1829 79.9475 22.251 79.9546L22.334 79.9521L22.3542 79.9466C22.5317 79.9761 22.7108 79.9942 22.8907 80.0009C23.7526 79.9804 24.5912 79.7171 25.3103 79.2415C26.0293 78.7658 26.5996 78.0969 26.9557 77.3117L35.5079 58.6545C35.9023 57.7945 36.5352 57.0658 37.3315 56.5549C38.1278 56.044 39.054 55.7724 40.0001 55.7724C40.9462 55.7724 41.8724 56.044 42.6687 56.5549C43.465 57.0658 44.0979 57.7945 44.4923 58.6545L53.0445 77.3117C53.3578 77.9881 53.8325 78.577 54.4269 79.0267C55.0213 79.4765 55.7172 79.7732 56.4532 79.8908C56.4962 79.9052 56.5401 79.9172 56.5846 79.9265C56.6003 79.9275 56.6139 79.9199 56.6296 79.9204C56.788 79.9558 56.9482 79.9827 57.1096 80.0009L57.2414 80.0034C58.0812 80.006 58.9056 79.7778 59.6245 79.3439C60.3435 78.9099 60.9295 78.2868 61.3185 77.5425L62.9225 74.5066C65.3899 69.8098 66.8878 64.6649 67.3274 59.3777C67.7669 54.0905 67.1391 48.7688 65.4811 43.7291C64.8698 41.8707 64.8766 39.8643 65.5007 38.0101L70.9155 21.9968ZM55.5277 76.6045C55.4467 76.4995 55.3755 76.3873 55.315 76.2693L46.7627 57.612C46.1692 56.3172 45.2165 55.2199 44.0177 54.4506C42.8189 53.6814 41.4244 53.2724 40 53.2724C38.5756 53.2724 37.1811 53.6814 35.9823 54.4506C34.7835 55.2199 33.8308 56.3172 33.2373 57.612L24.685 76.2692C24.5662 76.5357 24.3925 76.774 24.1752 76.9687C23.958 77.1634 23.702 77.3099 23.4242 77.3988C23.3538 76.1096 23.2972 74.5454 23.3154 72.7524C23.425 68.0509 23.8443 63.3618 24.5704 58.7155C25.5532 50.559 27.2866 42.5105 29.7485 34.6725C32.9584 33.2466 36.4303 32.5061 39.9426 32.4981C43.4549 32.4901 46.9302 33.2149 50.1465 34.6261C50.7275 37.6144 53.2129 50.5221 54.3457 58.7155C55.3269 64.6251 55.7228 70.6171 55.5277 76.6045ZM29.0479 23.1552C29.3273 22.7422 29.6866 22.3893 30.1047 22.1173C30.5228 21.8454 30.991 21.66 31.4819 21.572L36.1963 20.715C38.7106 20.2568 41.2869 20.2564 43.8013 20.7138L48.5181 21.5719C49.0084 21.6606 49.4762 21.8462 49.8939 22.1178C50.3117 22.3894 50.6711 22.7415 50.9512 23.1537C51.2312 23.5658 51.4263 24.0296 51.525 24.518C51.6237 25.0065 51.624 25.5097 51.5259 25.9982L50.3184 32.0372C46.8596 30.6429 43.1576 29.9515 39.4287 30.0033C36.0831 30.0816 32.7797 30.7676 29.6795 32.0277L28.4741 25.9982C28.3746 25.51 28.3741 25.0069 28.4727 24.5185C28.5713 24.0302 28.7668 23.5666 29.0479 23.1552ZM63.1079 44.5163C64.6607 49.2361 65.2487 54.2199 64.8369 59.1715C64.425 64.123 63.0217 68.9412 60.7104 73.3396L59.1064 76.3755C58.8611 76.8144 58.4657 77.1501 57.9928 77.3209C58.2583 70.9817 57.8657 64.632 56.8212 58.3737C55.6171 49.6671 52.9105 35.7292 52.5239 33.7572L53.977 26.489C53.993 26.4092 53.9881 26.3294 54.0009 26.2494L59.2992 28.0209C59.4266 28.064 59.5602 28.0858 59.6947 28.0856C59.9456 28.0855 60.1906 28.0099 60.3978 27.8686C60.6051 27.7273 60.765 27.5269 60.8568 27.2934L62.1776 23.9377C62.2383 23.785 62.2682 23.6218 62.2656 23.4575C62.2631 23.2932 62.2282 23.1311 62.1629 22.9803C62.0975 22.8295 62.0031 22.6931 61.885 22.5789C61.7669 22.4647 61.6274 22.3749 61.4745 22.3147C61.3216 22.2544 61.1584 22.225 60.9941 22.228C60.8298 22.2309 60.6677 22.2663 60.5172 22.332C60.3666 22.3978 60.2304 22.4925 60.1165 22.611C60.0026 22.7294 59.9132 22.8691 59.8534 23.0222L58.9672 25.2744L53.9976 23.6133L55.9862 17.9477L59.1503 16.7599C59.4595 16.6425 59.7096 16.4073 59.8457 16.1058C59.9819 15.8044 59.9931 15.4613 59.8768 15.1516C59.7606 14.8419 59.5264 14.5909 59.2255 14.4536C58.9246 14.3162 58.5815 14.3036 58.2714 14.4186L54.5605 15.8115C54.3893 15.8758 54.2344 15.977 54.1066 16.1077C53.9788 16.2385 53.8812 16.3957 53.8207 16.5683L52.5825 20.0977L51.0572 15.8347L52.3683 11.5402C52.4625 11.2237 52.4277 10.8828 52.2715 10.5919C52.1153 10.3009 51.8504 10.0836 51.5345 9.98719C51.2187 9.89082 50.8775 9.92327 50.5855 10.0775C50.2935 10.2317 50.0743 10.4951 49.9758 10.8102L48.545 15.5014C48.4671 15.7588 48.474 16.0344 48.5645 16.2875L49.6447 19.3066C49.4227 19.2296 49.1966 19.1651 48.9674 19.1135L44.2481 18.2541C41.4383 17.743 38.5593 17.7434 35.7496 18.2553L31.0328 19.1135C29.871 19.3144 28.7919 19.8463 27.9251 20.6453C27.0582 21.4444 26.4403 22.4767 26.1457 23.6183L23.8281 20.7675L23.6401 16.2802C23.6419 16.1134 23.6086 15.948 23.5422 15.7948C23.4759 15.6417 23.3781 15.5042 23.2551 15.3913C23.1321 15.2785 22.9868 15.1928 22.8285 15.1398C22.6702 15.0869 22.5026 15.0678 22.3364 15.0839C22.0053 15.0981 21.6933 15.243 21.469 15.487C21.2447 15.731 21.1264 16.0541 21.1401 16.3852L21.3476 21.2863C21.3593 21.5556 21.4578 21.8138 21.6284 22.0224L25.6418 26.9602L21.7602 28.8254L21.0375 26.1423C20.995 25.9839 20.9218 25.8355 20.8219 25.7054C20.7221 25.5753 20.5976 25.4662 20.4555 25.3842C20.3135 25.3023 20.1567 25.2491 19.9941 25.2277C19.8315 25.2064 19.6663 25.2173 19.508 25.2597C19.3496 25.3022 19.2011 25.3755 19.0711 25.4753C18.941 25.5752 18.8319 25.6997 18.7499 25.8417C18.668 25.9837 18.6148 26.1405 18.5934 26.3031C18.5721 26.4657 18.5829 26.6309 18.6254 26.7893L19.7363 30.9275C19.7838 31.105 19.8698 31.2698 19.9883 31.4102C20.1067 31.5506 20.2547 31.6632 20.4216 31.7399C20.5885 31.8166 20.7703 31.8556 20.954 31.854C21.1377 31.8524 21.3188 31.8103 21.4844 31.7307L26.5814 29.2826L27.4593 33.6726C24.8985 41.7193 23.1024 49.9897 22.0947 58.3737C21.3542 63.1253 20.9269 67.9204 20.8154 72.728C20.8023 74.0648 20.8298 75.2651 20.8725 76.3355L19.1797 73.1321C16.894 68.7675 15.5123 63.9866 15.1172 59.0756C14.722 54.1646 15.3216 49.2244 16.88 44.5505C17.6805 42.1682 17.6762 39.5888 16.8678 37.2092L11.4526 21.196C10.5974 18.7465 10.444 16.1067 11.0095 13.5747C11.5751 11.0426 12.8372 8.71899 14.6533 6.86617C16.4329 4.97826 18.7048 3.62534 21.2125 2.96013C23.7202 2.29492 26.3639 2.34389 28.8452 3.10152L36.7456 5.4294C37.4241 5.62139 38.1188 5.75056 38.821 5.8153C37.2584 7.45131 36.1698 9.48118 35.6714 11.6879C35.5997 12.0115 35.6595 12.3503 35.8376 12.6298C36.0157 12.9094 36.2975 13.1067 36.6211 13.1784C36.7102 13.1976 36.801 13.2074 36.8921 13.2077C37.1767 13.2074 37.4527 13.1102 37.6746 12.932C37.8965 12.7538 38.0511 12.5053 38.1128 12.2275C38.4548 10.7115 39.1432 9.29518 40.124 8.08962C41.1048 6.88406 42.3514 5.92195 43.7662 5.27865L51.1548 3.10152C53.6361 2.34407 56.2798 2.29518 58.7875 2.96038C61.2952 3.62559 63.567 4.9784 65.3467 6.86617C67.1628 8.71899 68.4249 11.0426 68.9905 13.5747C69.556 16.1067 69.4026 18.7465 68.5474 21.196L63.1324 37.208C62.3359 39.5776 62.3272 42.1414 63.1079 44.5163Z" fill="#D8B282"/>
</g>
<defs>
<clipPath id="clip0_402_1060">
<rect width="80" height="80" fill="white"/>
</clipPath>
</defs>
</svg>
