<svg width="80" height="80" viewBox="0 0 80 80" fill="none" xmlns="http://www.w3.org/2000/svg">
<path d="M77.959 49.3023C76.9837 48.4144 75.7528 47.8575 74.4421 47.7109C74.3927 46.9195 74.2722 46.1341 74.0821 45.3643C73.9556 44.889 73.7115 44.4531 73.3723 44.0968C73.0331 43.7406 72.6098 43.4754 72.1412 43.3257C67.4837 41.8132 62.4613 41.8355 57.8174 43.3892C57.3538 43.5429 56.9357 43.8094 56.6007 44.1649C56.2658 44.5203 56.0244 44.9534 55.8985 45.4253C55.5928 46.717 55.4869 48.0478 55.5844 49.3715L54.0381 49.5244C52.9737 49.6221 51.9141 49.6685 50.8496 49.6685H49.3909C49.5251 48.2265 49.4207 46.7723 49.082 45.3643C48.9555 44.889 48.7114 44.4531 48.3722 44.0968C48.033 43.7406 47.6097 43.4754 47.1411 43.3257C42.4836 41.8132 37.4612 41.8355 32.8173 43.3892C32.3537 43.5429 31.9356 43.8094 31.6006 44.1649C31.2657 44.5203 31.0243 44.9534 30.8983 45.4253C30.5645 46.8134 30.4614 48.2469 30.5932 49.6685H29.1503C28.0858 49.6685 27.0263 49.6205 25.9716 49.5244L24.3998 49.3694C24.4994 48.026 24.3922 46.6751 24.082 45.3642C23.9554 44.8888 23.7113 44.453 23.3721 44.0967C23.033 43.7405 22.6096 43.4753 22.141 43.3256H22.1385C17.4811 41.8131 12.4611 41.8353 7.81723 43.3891C7.35364 43.5428 6.93554 43.8093 6.60057 44.1647C6.26559 44.5202 6.02425 44.9533 5.89828 45.4252C5.71325 46.1776 5.5955 46.945 5.5464 47.7183C4.02086 47.8881 2.61153 48.6146 1.58818 49.7587C0.564837 50.9027 -0.00063658 52.384 5.37793e-07 53.919V68.4185C0.00153622 70.0756 0.66051 71.6644 1.83228 72.8362C3.00405 74.008 4.59287 74.667 6.25 74.6685H73.75C75.4071 74.667 76.9959 74.008 78.1677 72.8362C79.3395 71.6644 79.9985 70.0756 80 68.4185V53.919C79.9988 53.0499 79.8168 52.1907 79.4654 51.3958C79.114 50.601 78.601 49.888 77.959 49.3023ZM58.3252 46.0308C58.3515 45.9615 58.3945 45.8996 58.4502 45.8507C58.5059 45.8018 58.5728 45.7672 58.645 45.7501C62.771 44.3703 67.2313 44.354 71.3672 45.7037C71.4327 45.7222 71.493 45.756 71.5431 45.8023C71.5931 45.8485 71.6316 45.9059 71.6553 45.9698C72.2929 48.5248 71.9642 51.2253 70.7324 53.5528L70.4149 54.1534L69.4164 51.9757C69.0286 51.1299 68.4062 50.4133 67.623 49.9108C66.8399 49.4084 65.9291 49.1413 64.9986 49.1413C64.0682 49.1413 63.1574 49.4084 62.3743 49.9108C61.5912 50.4133 60.9687 51.1299 60.5809 51.9757L59.5848 54.1534L59.2333 53.4869C58.023 51.1981 57.6997 48.5432 58.3252 46.0308ZM33.3252 46.0308C33.3515 45.9615 33.3945 45.8996 33.4502 45.8507C33.506 45.8018 33.5728 45.7672 33.645 45.7501C37.771 44.3703 42.2313 44.354 46.3672 45.7037C46.4327 45.7222 46.493 45.756 46.5431 45.8023C46.5931 45.8485 46.6316 45.9059 46.6553 45.9698C47.2929 48.5248 46.9642 51.2253 45.7324 53.5528L45.4149 54.1534L44.4164 51.9757C44.0286 51.1299 43.4061 50.4133 42.623 49.9108C41.8399 49.4084 40.9291 49.1413 39.9986 49.1413C39.0682 49.1413 38.1574 49.4084 37.3743 49.9108C36.5912 50.4133 35.9687 51.1299 35.5809 51.9757L34.5848 54.1534L34.2333 53.4869C33.023 51.1981 32.6997 48.5432 33.3252 46.0308ZM8.32518 46.0308C8.35153 45.9615 8.39445 45.8996 8.4502 45.8507C8.50595 45.8018 8.57283 45.7672 8.645 45.7501C12.771 44.3703 17.2313 44.354 21.3672 45.7037C21.4328 45.7222 21.493 45.756 21.5431 45.8023C21.5931 45.8485 21.6316 45.9059 21.6553 45.9698C22.2929 48.5248 21.9642 51.2253 20.7324 53.5528L20.4149 54.1534L19.4164 51.9757C19.0286 51.1299 18.4061 50.4133 17.623 49.9108C16.8399 49.4084 15.9291 49.1413 14.9987 49.1413C14.0682 49.1413 13.1574 49.4084 12.3743 49.9108C11.5912 50.4133 10.9687 51.1299 10.5809 51.9757L9.58483 54.1534L9.23328 53.4869C8.02302 51.1981 7.69966 48.5432 8.32518 46.0308ZM77.5 68.4185C77.4989 69.4127 77.1035 70.3659 76.4005 71.0689C75.6974 71.772 74.7442 72.1674 73.75 72.1685H6.25C5.25577 72.1674 4.30258 71.772 3.59955 71.0689C2.89652 70.3659 2.50109 69.4127 2.5 68.4185V53.919C2.49598 53.0339 2.80967 52.1768 3.38405 51.5034C3.95843 50.83 4.75537 50.385 5.63 50.2494C5.82693 51.7889 6.29819 53.2806 7.02145 54.6539L7.55855 55.6719C7.76114 56.0504 8.0645 56.3655 8.43507 56.5822C8.80564 56.799 9.22895 56.9089 9.65815 56.9C10.0897 56.8899 10.5096 56.7583 10.8698 56.5204C11.23 56.2824 11.5157 55.9477 11.6943 55.5547L12.854 53.0157C13.0601 52.6255 13.3687 52.2989 13.7467 52.0711C14.1246 51.8433 14.5575 51.7229 14.9988 51.7229C15.44 51.7229 15.873 51.8433 16.2509 52.0711C16.6288 52.2989 16.9375 52.6255 17.1436 53.0157L18.3081 55.5572C18.4864 55.9497 18.7718 56.2839 19.1316 56.5214C19.4913 56.7589 19.9108 56.8901 20.3418 56.8999H20.4053C20.8246 56.9014 21.2363 56.7877 21.5953 56.5711C21.9544 56.3545 22.2471 56.0435 22.4414 55.6719L22.9443 54.7198C23.4107 53.8064 23.7687 52.8417 24.0111 51.8452L25.7373 52.0147C26.875 52.1172 28.0127 52.1685 29.1504 52.1685H31.0432C31.2829 53.0284 31.6107 53.8613 32.0215 54.6538L32.5586 55.6719C32.7597 56.0526 33.0634 56.3694 33.4353 56.5864C33.8073 56.8035 34.2325 56.912 34.6629 56.8998C35.0933 56.8876 35.5117 56.7552 35.8707 56.5174C36.2298 56.2797 36.5151 55.9462 36.6943 55.5547L37.854 53.0157C38.0601 52.6255 38.3687 52.2989 38.7467 52.0711C39.1246 51.8433 39.5575 51.723 39.9988 51.723C40.44 51.723 40.873 51.8433 41.2509 52.0711C41.6288 52.2989 41.9375 52.6255 42.1436 53.0157L43.3081 55.5572C43.4864 55.9497 43.7718 56.2839 44.1316 56.5214C44.4913 56.759 44.9108 56.8902 45.3418 56.9H45.4053C45.8246 56.9014 46.2363 56.7877 46.5953 56.5711C46.9544 56.3546 47.2471 56.0435 47.4414 55.6719L47.9443 54.7198C48.3644 53.9063 48.6986 53.0513 48.9415 52.1685H50.8496C51.9873 52.1685 53.125 52.1172 54.2724 52.0147L55.9739 51.847C56.2132 52.8201 56.5647 53.762 57.0214 54.6539L57.5585 55.6719C57.7597 56.0527 58.0634 56.3695 58.4353 56.5865C58.8072 56.8035 59.2324 56.912 59.6628 56.8998C60.0933 56.8876 60.5117 56.7552 60.8707 56.5175C61.2297 56.2797 61.515 55.9463 61.6943 55.5548L62.854 53.0157C63.06 52.6255 63.3687 52.299 63.7466 52.0712C64.1245 51.8434 64.5575 51.723 64.9987 51.723C65.44 51.723 65.8729 51.8434 66.2508 52.0712C66.6288 52.299 66.9374 52.6255 67.1435 53.0157L68.308 55.5572C68.4864 55.9497 68.7718 56.2839 69.1315 56.5215C69.4913 56.759 69.9108 56.8902 70.3418 56.9H70.4052C70.8245 56.9015 71.2362 56.7877 71.5953 56.5711C71.9543 56.3546 72.247 56.0435 72.4413 55.672L72.9443 54.7198C73.6799 53.3212 74.1585 51.802 74.3574 50.2343C75.0711 50.3507 75.7365 50.6696 76.2744 51.1529C76.6625 51.5012 76.9724 51.9278 77.1836 52.4046C77.3949 52.8814 77.5027 53.3975 77.5 53.919V68.4185ZM65.3393 24.6685C65.1752 24.6684 65.0126 24.7007 64.8609 24.7634C64.7092 24.8262 64.5713 24.9183 64.4553 25.0344C64.3392 25.1505 64.2471 25.2883 64.1843 25.44C64.1215 25.5917 64.0893 25.7543 64.0893 25.9185V32.9156L62.688 31.5142C62.4528 31.2837 62.1361 31.1553 61.8068 31.157C61.4775 31.1587 61.1622 31.2902 60.9294 31.5231C60.6965 31.7559 60.565 32.0713 60.5633 32.4006C60.5616 32.7298 60.69 33.0465 60.9205 33.2817L64.4556 36.8168C64.5717 36.9329 64.7094 37.025 64.8611 37.0878C65.0127 37.1507 65.1752 37.183 65.3394 37.183C65.5035 37.183 65.666 37.1507 65.8177 37.0878C65.9693 37.025 66.1071 36.9329 66.2231 36.8168L69.7606 33.2817C69.9911 33.0465 70.1195 32.7298 70.1178 32.4006C70.1161 32.0713 69.9846 31.7559 69.7517 31.5231C69.5189 31.2902 69.2036 31.1587 68.8743 31.157C68.545 31.1553 68.2283 31.2837 67.9931 31.5142L66.5893 32.9167V25.9185C66.5894 25.7543 66.5572 25.5917 66.4944 25.44C66.4316 25.2883 66.3395 25.1505 66.2234 25.0344C66.1073 24.9183 65.9695 24.8262 65.8178 24.7635C65.6661 24.7007 65.5035 24.6684 65.3393 24.6685ZM56.1938 18.3721C56.2633 18.5778 56.3852 18.7618 56.5475 18.9061C56.7097 19.0504 56.9067 19.1499 57.1191 19.1949L58.5303 19.4927C60.6586 19.9465 62.8287 20.1756 65.0049 20.1763C67.1919 20.1757 69.3728 19.9441 71.5112 19.4854L72.8809 19.1949C73.0931 19.1495 73.2899 19.0498 73.4521 18.9056C73.6143 18.7614 73.7363 18.5776 73.8062 18.3721L75.5029 13.3526C75.8593 12.2991 75.9196 11.168 75.6772 10.0827C75.4348 8.99732 74.899 7.99935 74.1283 7.19764C73.3575 6.39592 72.3814 5.82124 71.3065 5.53626C70.2315 5.25129 69.0989 5.26697 68.0322 5.58159L65.5566 6.31159C65.1935 6.41413 64.809 6.41413 64.4458 6.31159L61.9678 5.58159C60.9011 5.26697 59.7685 5.25129 58.6935 5.53626C57.6186 5.82124 56.6425 6.39592 55.8717 7.19764C55.101 7.99935 54.5652 8.99732 54.3228 10.0827C54.0804 11.168 54.1407 12.2991 54.4971 13.3526L56.1938 18.3721ZM57.6733 8.92876C58.1239 8.45284 58.6981 8.11188 59.3316 7.94412C59.9651 7.77637 60.6328 7.78847 61.2598 7.97906L63.21 8.55294C63.0293 8.904 62.8933 9.27632 62.8052 9.66119C62.7335 9.98492 62.7932 10.3239 62.9713 10.6036C63.1494 10.8833 63.4312 11.0809 63.7549 11.1529C63.8439 11.1722 63.9348 11.182 64.0259 11.1822C64.3104 11.1822 64.5863 11.0852 64.8083 10.9072C65.0302 10.7292 65.1848 10.4809 65.2466 10.2032C65.3238 9.86205 65.4783 9.54321 65.6982 9.27124C65.9182 8.99928 66.1976 8.78146 66.5151 8.63459L68.7402 7.97906C69.3679 7.79368 70.0344 7.78429 70.667 7.95193C71.2996 8.11956 71.874 8.45777 72.3275 8.92964C72.781 9.40151 73.0961 9.98889 73.2384 10.6277C73.3808 11.2664 73.3449 11.932 73.1348 12.5518L71.665 16.8974L70.9912 17.039C67.0554 17.8862 62.9846 17.8886 59.0478 17.0463L58.335 16.8951L56.8653 12.5518C56.6485 11.9327 56.6092 11.2652 56.752 10.6249C56.8948 9.98464 57.214 9.3971 57.6733 8.92876ZM6.19385 18.3721C6.26335 18.5778 6.38523 18.7618 6.54747 18.9061C6.70972 19.0504 6.90675 19.1499 7.11915 19.1949L8.53028 19.4927C10.6587 19.9465 12.8288 20.1756 15.005 20.1763C17.1921 20.1757 19.3729 19.9441 21.5113 19.4854L22.8808 19.1949C23.0931 19.1495 23.2899 19.0498 23.4521 18.9056C23.6143 18.7614 23.7363 18.5776 23.8062 18.3722L25.5029 13.3526C25.8593 12.2992 25.9196 11.1681 25.6772 10.0827C25.4348 8.99737 24.899 7.9994 24.1282 7.19769C23.3575 6.39597 22.3814 5.82129 21.3065 5.53631C20.2315 5.25134 19.0989 5.26702 18.0322 5.58164L15.5567 6.31164C15.1935 6.41418 14.809 6.41418 14.4458 6.31164L11.9678 5.58164C10.9011 5.26702 9.76851 5.25134 8.69354 5.53631C7.61857 5.82129 6.64249 6.39597 5.87175 7.19769C5.10102 7.9994 4.56523 8.99737 4.32282 10.0827C4.08041 11.1681 4.14068 12.2992 4.49708 13.3526L6.19385 18.3721ZM7.67335 8.92876C8.12386 8.45284 8.69807 8.11188 9.33157 7.94412C9.96506 7.77637 10.6328 7.78847 11.2598 7.97906L13.21 8.55294C13.0293 8.904 12.8933 9.27632 12.8052 9.66119C12.7335 9.98492 12.7932 10.3239 12.9713 10.6036C13.1494 10.8833 13.4312 11.0809 13.7549 11.1529C13.8439 11.1722 13.9348 11.182 14.0259 11.1822C14.3104 11.1822 14.5863 11.0852 14.8083 10.9072C15.0302 10.7292 15.1848 10.4809 15.2466 10.2032C15.3238 9.86205 15.4783 9.54321 15.6982 9.27124C15.9181 8.99927 16.1976 8.78144 16.515 8.63456L18.7402 7.97904C19.3678 7.79365 20.0343 7.78427 20.667 7.9519C21.2996 8.11954 21.874 8.45775 22.3274 8.92961C22.7809 9.40148 23.096 9.98886 23.2384 10.6276C23.3808 11.2664 23.3449 11.932 23.1347 12.5518L21.665 16.8974L20.9912 17.039C17.0554 17.8862 12.9847 17.8886 9.04782 17.0463L8.335 16.8951L6.86528 12.5518C6.64846 11.9327 6.60924 11.2652 6.75204 10.6249C6.89485 9.98464 7.21399 9.3971 7.67335 8.92876ZM15.3394 24.6685C15.1752 24.6684 15.0126 24.7007 14.8609 24.7635C14.7092 24.8263 14.5714 24.9183 14.4553 25.0344C14.3392 25.1505 14.2471 25.2883 14.1843 25.44C14.1215 25.5917 14.0893 25.7543 14.0894 25.9185V32.9156L12.688 31.5142C12.4528 31.2837 12.1362 31.1554 11.8069 31.157C11.4776 31.1587 11.1622 31.2902 10.9294 31.5231C10.6965 31.7559 10.565 32.0713 10.5633 32.4006C10.5617 32.7299 10.69 33.0465 10.9205 33.2817L14.4557 36.8169C14.5717 36.9329 14.7095 37.025 14.8611 37.0879C15.0127 37.1507 15.1753 37.183 15.3394 37.183C15.5035 37.183 15.6661 37.1507 15.8177 37.0879C15.9693 37.025 16.1071 36.9329 16.2232 36.8169L19.7607 33.2817C19.9911 33.0465 20.1195 32.7299 20.1178 32.4006C20.1162 32.0713 19.9846 31.7559 19.7518 31.5231C19.5189 31.2902 19.2036 31.1587 18.8743 31.157C18.545 31.1554 18.2283 31.2837 17.9931 31.5142L16.5893 32.9167V25.9185C16.5894 25.7543 16.5572 25.5917 16.4944 25.44C16.4316 25.2883 16.3395 25.1505 16.2234 25.0344C16.1074 24.9183 15.9695 24.8262 15.8178 24.7634C15.6661 24.7007 15.5036 24.6684 15.3394 24.6685ZM31.1939 18.3721C31.2634 18.5778 31.3853 18.7619 31.5475 18.9061C31.7097 19.0504 31.9068 19.1499 32.1192 19.1949L33.5303 19.4927C35.6586 19.9465 37.8287 20.1756 40.0049 20.1763C42.192 20.1757 44.3728 19.9441 46.5112 19.4854L47.8809 19.1949C48.0931 19.1495 48.2899 19.0498 48.4521 18.9056C48.6143 18.7614 48.7363 18.5776 48.8062 18.3721L50.5029 13.3526C50.8593 12.2992 50.9196 11.1681 50.6772 10.0827C50.4348 8.99734 49.899 7.99938 49.1283 7.19766C48.3575 6.39595 47.3815 5.82126 46.3065 5.53629C45.2315 5.25131 44.0989 5.26699 43.0322 5.58161L40.5567 6.31161C40.1935 6.41415 39.809 6.41415 39.4458 6.31161L36.9678 5.58161C35.9011 5.26699 34.7685 5.25131 33.6936 5.53629C32.6186 5.82126 31.6425 6.39595 30.8718 7.19766C30.101 7.99938 29.5653 8.99734 29.3228 10.0827C29.0804 11.1681 29.1407 12.2992 29.4971 13.3526L31.1939 18.3721ZM32.6734 8.92879C33.1241 8.45312 33.6983 8.11233 34.3317 7.9446C34.9651 7.77686 35.6328 7.78881 36.2598 7.97909L38.21 8.55296C38.0293 8.90403 37.8933 9.27634 37.8052 9.66121C37.7335 9.98495 37.7933 10.3239 37.9713 10.6036C38.1494 10.8833 38.4312 11.0809 38.7549 11.1529C38.844 11.1722 38.9348 11.182 39.0259 11.1822C39.3104 11.1822 39.5864 11.0852 39.8083 10.9072C40.0302 10.7292 40.1848 10.4809 40.2466 10.2032C40.3238 9.86208 40.4783 9.54323 40.6983 9.27127C40.9182 8.9993 41.1976 8.78149 41.5151 8.63461L43.7403 7.97909C44.3679 7.7937 45.0344 7.78432 45.667 7.95195C46.2996 8.11959 46.874 8.4578 47.3275 8.92966C47.781 9.40153 48.0961 9.98891 48.2385 10.6277C48.3808 11.2665 48.345 11.9321 48.1348 12.5518L46.665 16.8974L45.9912 17.039C42.0554 17.8862 37.9846 17.8886 34.0478 17.0463L33.335 16.8951L31.8653 12.5518C31.6485 11.9327 31.6092 11.2652 31.752 10.6249C31.8949 9.98464 32.214 9.39712 32.6734 8.92879ZM40.3394 24.6685C40.1752 24.6684 40.0126 24.7007 39.8609 24.7635C39.7092 24.8263 39.5714 24.9183 39.4553 25.0344C39.3392 25.1505 39.2471 25.2884 39.1844 25.4401C39.1216 25.5918 39.0893 25.7544 39.0894 25.9185V32.9156L37.688 31.5142C37.4528 31.2838 37.1362 31.1554 36.8069 31.1571C36.4776 31.1587 36.1623 31.2903 35.9294 31.5231C35.6966 31.756 35.565 32.0713 35.5633 32.4006C35.5617 32.7299 35.69 33.0465 35.9205 33.2817L39.4557 36.8169C39.5717 36.933 39.7095 37.0251 39.8611 37.0879C40.0128 37.1507 40.1753 37.1831 40.3394 37.1831C40.5036 37.1831 40.6661 37.1507 40.8177 37.0879C40.9694 37.0251 41.1071 36.933 41.2232 36.8169L44.7607 33.2817C44.9912 33.0465 45.1195 32.7299 45.1179 32.4006C45.1162 32.0713 44.9846 31.756 44.7518 31.5231C44.5189 31.2903 44.2036 31.1587 43.8743 31.1571C43.545 31.1554 43.2284 31.2838 42.9932 31.5142L41.5894 32.9167V25.9185C41.5895 25.7543 41.5572 25.5917 41.4944 25.44C41.4316 25.2883 41.3396 25.1505 41.2235 25.0344C41.1074 24.9183 40.9695 24.8262 40.8178 24.7634C40.6661 24.7007 40.5036 24.6684 40.3394 24.6685Z" fill="#D8B282"/>
</svg>
