<svg width="44" height="44" viewBox="0 0 44 44" fill="none" xmlns="http://www.w3.org/2000/svg">
<rect width="44" height="44" fill="#010C0D"/>
<path d="M30.25 15.2502C29.5318 15.7568 28.7366 16.1443 27.895 16.3977C27.4433 15.8784 26.843 15.5102 26.1753 15.3432C25.5076 15.1761 24.8046 15.2181 24.1616 15.4636C23.5185 15.709 22.9663 16.146 22.5797 16.7155C22.1931 17.285 21.9908 17.9595 22 18.6477V19.3977C20.682 19.4319 19.376 19.1396 18.1983 18.5468C17.0206 17.954 16.0077 17.0792 15.25 16.0002C15.25 16.0002 12.25 22.7502 19 25.7502C17.4554 26.7987 15.6154 27.3244 13.75 27.2502C20.5 31.0002 28.75 27.2502 28.75 18.6252C28.7493 18.4163 28.7292 18.2079 28.69 18.0027C29.4555 17.2478 29.9956 16.2948 30.25 15.2502Z" fill="white"/>
</svg>
