<svg width="30" height="30" viewBox="0 0 30 30" fill="none" xmlns="http://www.w3.org/2000/svg">
<path d="M15.0001 20.0325C18.0313 20.0325 20.5463 23.3425 21.0201 27.685C21.0529 27.9768 21.1919 28.2464 21.4107 28.4423C21.6295 28.6383 21.9126 28.7469 22.2063 28.7475C22.469 28.7464 22.7234 28.6553 22.9272 28.4896C23.1309 28.3238 23.2718 28.0932 23.3263 27.8362C23.5888 26.5587 23.7201 25.2563 23.7176 23.9525C23.7354 21.5505 23.2739 19.169 22.3601 16.9475C24.1001 15.2125 25.4601 12.505 25.4601 8.26125C25.4601 4.3425 22.9226 1.25 19.7963 1.25C18.8376 1.25013 17.8946 1.49369 17.0557 1.95784C16.2168 2.422 15.5095 3.09155 15.0001 3.90375C14.4906 3.09155 13.7833 2.422 12.9445 1.95784C12.1056 1.49369 11.1626 1.25013 10.2038 1.25C7.07632 1.25 4.53882 4.3425 4.53882 8.2625C4.53882 12.5075 5.90007 15.215 7.63882 16.95C6.72723 19.1717 6.26621 21.5524 6.28257 23.9538C6.28097 25.2587 6.41206 26.5604 6.67382 27.8387C6.72835 28.0957 6.86922 28.3263 7.07298 28.4921C7.27675 28.6578 7.53113 28.7489 7.79382 28.75C8.08749 28.7494 8.37068 28.6408 8.58944 28.4448C8.8082 28.2489 8.94723 27.9793 8.98007 27.6875C9.45382 23.3425 11.9688 20.0325 15.0001 20.0325Z" fill="#010C0D"/>
<path d="M15.0001 20.0125C12.2519 19.9928 9.6101 18.9474 7.59259 17.0812C6.71203 19.2649 6.26537 21.5992 6.27759 23.9537C6.27599 25.2587 6.40708 26.5603 6.66884 27.8387C6.72337 28.0957 6.86424 28.3263 7.068 28.492C7.27177 28.6578 7.52615 28.7489 7.78884 28.75C8.08281 28.75 8.36645 28.6416 8.58553 28.4456C8.8046 28.2495 8.94374 27.9796 8.97634 27.6875C9.45384 23.3425 11.9638 20.035 14.9951 20.035C18.0263 20.035 20.5413 23.345 21.0151 27.6875C21.0477 27.9796 21.1868 28.2495 21.4059 28.4456C21.625 28.6416 21.9086 28.75 22.2026 28.75C22.4651 28.7486 22.7191 28.6574 22.9227 28.4917C23.1262 28.3259 23.2668 28.0955 23.3213 27.8387C23.5838 26.56 23.7151 25.2587 23.7126 23.9537C23.7248 21.5992 23.2781 19.2649 22.3976 17.0812C20.3828 18.9456 17.745 19.99 15.0001 20.0125Z" fill="#010C0D"/>
<path d="M13.2064 14.4025V16.195C13.2068 16.3537 13.27 16.5058 13.3822 16.618C13.4944 16.7302 13.6465 16.7934 13.8052 16.7938H16.1964C16.3549 16.7931 16.5067 16.7298 16.6186 16.6176C16.7306 16.5054 16.7936 16.3535 16.7939 16.195V14.4025H18.5877C18.7462 14.4019 18.8979 14.3385 19.0099 14.2263C19.1218 14.1142 19.1849 13.9622 19.1852 13.8038V11.4125C19.1845 11.2543 19.1214 11.1027 19.0095 10.9907C18.8975 10.8788 18.7459 10.8157 18.5877 10.815H16.7939V9.02127C16.7933 8.863 16.7301 8.71141 16.6182 8.5995C16.5063 8.48759 16.3547 8.42443 16.1964 8.42377H13.8052C13.6467 8.4241 13.4948 8.48711 13.3826 8.59906C13.2704 8.71101 13.2071 8.86279 13.2064 9.02127V10.815H11.4139C11.2555 10.8153 11.1035 10.8784 10.9914 10.9903C10.8792 11.1023 10.8158 11.254 10.8152 11.4125V13.8038C10.8155 13.9625 10.8787 14.1146 10.9909 14.2268C11.1031 14.339 11.2552 14.4022 11.4139 14.4025H13.2064Z" fill="white"/>
</svg>
