<svg width="30" height="30" viewBox="0 0 30 30" fill="none" xmlns="http://www.w3.org/2000/svg">
<path d="M15 16.9238C15.5275 16.9238 15.9717 16.7429 16.3325 16.3813C16.6933 16.0196 16.8742 15.5754 16.875 15.0488C16.8758 14.5221 16.695 14.0775 16.3325 13.715C15.9717 13.3542 15.5275 13.1737 15 13.1737C14.4725 13.1737 14.0283 13.3542 13.6675 13.715C13.3067 14.0758 13.1258 14.5204 13.125 15.0488C13.1242 15.5771 13.305 16.0213 13.6675 16.3813C14.0283 16.7429 14.4725 16.9238 15 16.9238ZM10.625 21.1538H19.375V20.9638C19.375 20.5763 19.2717 20.2463 19.065 19.9738C18.8583 19.7013 18.5792 19.4846 18.2275 19.3238C17.735 19.1113 17.2183 18.9463 16.6775 18.8288C16.1358 18.7121 15.5767 18.6538 15 18.6538C14.4233 18.6538 13.8646 18.7121 13.3238 18.8288C12.7829 18.9454 12.2654 19.1104 11.7712 19.3238C11.4212 19.4846 11.1425 19.7013 10.935 19.9738C10.7283 20.2463 10.625 20.5763 10.625 20.9638V21.1538ZM21.7313 26.25H8.26875C7.69375 26.25 7.21375 26.0575 6.82875 25.6725C6.44375 25.2875 6.25083 24.8071 6.25 24.2313V5.76875C6.25 5.19375 6.44292 4.71375 6.82875 4.32875C7.21458 3.94375 7.695 3.75083 8.27 3.75H16.9712L23.75 10.5288V24.2313C23.75 24.8063 23.5575 25.2867 23.1725 25.6725C22.7875 26.0583 22.3079 26.2508 21.7313 26.25ZM21.73 25C21.9225 25 22.0992 24.92 22.26 24.76C22.4208 24.6 22.5008 24.4233 22.5 24.23V11.0625L16.4375 5H8.27C8.0775 5 7.90083 5.08 7.74 5.24C7.57917 5.4 7.49917 5.57625 7.5 5.76875V24.2313C7.5 24.4229 7.58 24.5992 7.74 24.76C7.9 24.9208 8.07625 25.0008 8.26875 25H21.73Z" fill="white"/>
</svg>
