<svg width="22" height="22" viewBox="0 0 22 22" fill="none" xmlns="http://www.w3.org/2000/svg">
<path d="M11 13.3333L2.83332 21.5C2.52777 21.8055 2.13888 21.9583 1.66666 21.9583C1.19443 21.9583 0.805545 21.8055 0.499989 21.5C0.194434 21.1944 0.0416565 20.8055 0.0416565 20.3333C0.0416565 19.8611 0.194434 19.4722 0.499989 19.1666L8.66666 11L0.499989 2.83329C0.194434 2.52774 0.0416565 2.13885 0.0416565 1.66663C0.0416565 1.1944 0.194434 0.805514 0.499989 0.499959C0.805545 0.194403 1.19443 0.041626 1.66666 0.041626C2.13888 0.041626 2.52777 0.194403 2.83332 0.499959L11 8.66663L19.1667 0.499959C19.4722 0.194403 19.8611 0.041626 20.3333 0.041626C20.8055 0.041626 21.1944 0.194403 21.5 0.499959C21.8055 0.805514 21.9583 1.1944 21.9583 1.66663C21.9583 2.13885 21.8055 2.52774 21.5 2.83329L13.3333 11L21.5 19.1666C21.8055 19.4722 21.9583 19.8611 21.9583 20.3333C21.9583 20.8055 21.8055 21.1944 21.5 21.5C21.1944 21.8055 20.8055 21.9583 20.3333 21.9583C19.8611 21.9583 19.4722 21.8055 19.1667 21.5L11 13.3333Z" fill="white"/>
</svg>
