<svg width="30" height="30" viewBox="0 0 30 30" fill="none" xmlns="http://www.w3.org/2000/svg">
<path fill-rule="evenodd" clip-rule="evenodd" d="M15 27.5C8.09625 27.5 2.5 21.9037 2.5 15C2.5 8.09625 8.09625 2.5 15 2.5C21.9037 2.5 27.5 8.09625 27.5 15C27.5 21.9037 21.9037 27.5 15 27.5ZM20 16.25C20 17.5761 19.4732 18.8479 18.5355 19.7855C17.5979 20.7232 16.3261 21.25 15 21.25C13.6739 21.25 12.4021 20.7232 11.4645 19.7855C10.5268 18.8479 10 17.5761 10 16.25H20ZM15 25C17.6522 25 20.1957 23.9464 22.0711 22.0711C23.9464 20.1957 25 17.6522 25 15C25 12.3478 23.9464 9.8043 22.0711 7.92893C20.1957 6.05357 17.6522 5 15 5C12.3478 5 9.8043 6.05357 7.92893 7.92893C6.05357 9.8043 5 12.3478 5 15C5 17.6522 6.05357 20.1957 7.92893 22.0711C9.8043 23.9464 12.3478 25 15 25ZM11.875 13.75C12.3723 13.75 12.8492 13.5525 13.2008 13.2008C13.5525 12.8492 13.75 12.3723 13.75 11.875C13.75 11.3777 13.5525 10.9008 13.2008 10.5492C12.8492 10.1975 12.3723 10 11.875 10C11.3777 10 10.9008 10.1975 10.5492 10.5492C10.1975 10.9008 10 11.3777 10 11.875C10 12.3723 10.1975 12.8492 10.5492 13.2008C10.9008 13.5525 11.3777 13.75 11.875 13.75ZM18.125 13.75C18.6223 13.75 19.0992 13.5525 19.4508 13.2008C19.8025 12.8492 20 12.3723 20 11.875C20 11.3777 19.8025 10.9008 19.4508 10.5492C19.0992 10.1975 18.6223 10 18.125 10C17.6277 10 17.1508 10.1975 16.7992 10.5492C16.4475 10.9008 16.25 11.3777 16.25 11.875C16.25 12.3723 16.4475 12.8492 16.7992 13.2008C17.1508 13.5525 17.6277 13.75 18.125 13.75Z" fill="#010C0D"/>
</svg>
