<svg width="30" height="30" viewBox="0 0 30 30" fill="none" xmlns="http://www.w3.org/2000/svg">
<path d="M24.3751 12.5C24.3751 12.3343 24.3092 12.1753 24.192 12.0581C24.0748 11.9409 23.9158 11.875 23.7501 11.875C23.5843 11.875 23.4253 11.9409 23.3081 12.0581C23.1909 12.1753 23.1251 12.3343 23.1251 12.5H24.3751ZM6.87506 12.5C6.87506 12.3343 6.80921 12.1753 6.692 12.0581C6.57479 11.9409 6.41582 11.875 6.25006 11.875C6.0843 11.875 5.92533 11.9409 5.80812 12.0581C5.69091 12.1753 5.62506 12.3343 5.62506 12.5H6.87506ZM25.8076 15.4425C25.9249 15.5599 26.0841 15.6258 26.2501 15.6258C26.416 15.6258 26.5752 15.5599 26.6926 15.4425C26.8099 15.3252 26.8758 15.166 26.8758 15C26.8758 14.834 26.8099 14.6749 26.6926 14.5575L25.8076 15.4425ZM15.0001 3.75002L15.4426 3.30752C15.3845 3.24931 15.3155 3.20314 15.2396 3.17163C15.1637 3.14012 15.0823 3.1239 15.0001 3.1239C14.9178 3.1239 14.8364 3.14012 14.7605 3.17163C14.6846 3.20314 14.6156 3.24931 14.5576 3.30752L15.0001 3.75002ZM3.30756 14.5575C3.1902 14.6749 3.12427 14.834 3.12427 15C3.12427 15.166 3.1902 15.3252 3.30756 15.4425C3.42492 15.5599 3.58409 15.6258 3.75006 15.6258C3.91603 15.6258 4.0752 15.5599 4.19256 15.4425L3.30756 14.5575ZM8.75006 26.875H21.2501V25.625H8.75006V26.875ZM24.3751 23.75V12.5H23.1251V23.75H24.3751ZM6.87506 23.75V12.5H5.62506V23.75H6.87506ZM26.6926 14.5575L15.4426 3.30752L14.5576 4.19252L25.8076 15.4425L26.6926 14.5575ZM14.5576 3.30752L3.30756 14.5575L4.19256 15.4425L15.4426 4.19252L14.5576 3.30752ZM21.2501 26.875C22.0789 26.875 22.8737 26.5458 23.4598 25.9597C24.0458 25.3737 24.3751 24.5788 24.3751 23.75H23.1251C23.1251 24.2473 22.9275 24.7242 22.5759 25.0758C22.2243 25.4275 21.7473 25.625 21.2501 25.625V26.875ZM8.75006 25.625C8.25278 25.625 7.77586 25.4275 7.42423 25.0758C7.0726 24.7242 6.87506 24.2473 6.87506 23.75H5.62506C5.62506 24.5788 5.9543 25.3737 6.54035 25.9597C7.1264 26.5458 7.92126 26.875 8.75006 26.875V25.625Z" fill="#010C0D"/>
</svg>
