<svg width="174" height="26" viewBox="0 0 174 26" fill="none" xmlns="http://www.w3.org/2000/svg">
<path d="M5.95059 20H0.0145071V1.66351H6.13861C7.93525 1.66351 9.47821 2.0306 10.7675 2.76477C12.0568 3.49298 13.0446 4.54052 13.7311 5.9074C14.4235 7.26832 14.7697 8.90081 14.7697 10.8049C14.7697 12.7149 14.4205 14.3564 13.7221 15.7292C13.0297 17.1021 12.0269 18.1586 10.7138 18.8987C9.40062 19.6329 7.81289 20 5.95059 20ZM2.7811 17.5826H5.79838C7.19511 17.5826 8.35606 17.32 9.28124 16.7947C10.2064 16.2635 10.8988 15.4965 11.3584 14.4937C11.818 13.4849 12.0478 12.2553 12.0478 10.8049C12.0478 9.36639 11.818 8.14574 11.3584 7.14297C10.9048 6.14019 10.2273 5.37915 9.32601 4.85986C8.4247 4.34056 7.30553 4.08092 5.9685 4.08092H2.7811V17.5826ZM17.9951 20V6.24763H20.5826V8.43225H20.7259C20.9766 7.69211 21.4183 7.11014 22.051 6.68635C22.6896 6.25658 23.4119 6.0417 24.2177 6.0417C24.3848 6.0417 24.5818 6.04767 24.8086 6.05961C25.0414 6.07155 25.2235 6.08647 25.3548 6.10438V8.66504C25.2473 8.6352 25.0563 8.60237 24.7818 8.56655C24.5072 8.52477 24.2326 8.50388 23.958 8.50388C23.3253 8.50388 22.7613 8.63818 22.2659 8.90678C21.7764 9.16941 21.3884 9.5365 21.1019 10.008C20.8154 10.4736 20.6722 11.0049 20.6722 11.6017V20H17.9951ZM44.5597 6.48042C44.4642 5.63283 44.0703 4.97625 43.3779 4.51068C42.6855 4.03913 41.814 3.80336 40.7635 3.80336C40.0114 3.80336 39.3608 3.92274 38.8117 4.1615C38.2625 4.39428 37.8358 4.71661 37.5313 5.12846C37.2329 5.53435 37.0837 5.99694 37.0837 6.51623C37.0837 6.95196 37.1851 7.328 37.3881 7.64436C37.597 7.96071 37.8686 8.22632 38.2028 8.44121C38.5431 8.65012 38.9072 8.8262 39.2952 8.96945C39.6831 9.10674 40.0562 9.22015 40.4143 9.30968L42.205 9.77526C42.79 9.91851 43.3898 10.1125 44.0046 10.3572C44.6194 10.602 45.1895 10.9243 45.7147 11.3242C46.24 11.7241 46.6638 12.2195 46.9861 12.8104C47.3144 13.4014 47.4785 14.1087 47.4785 14.9324C47.4785 15.971 47.2099 16.8932 46.6727 17.699C46.1415 18.5048 45.3685 19.1405 44.3538 19.6061C43.3451 20.0716 42.1244 20.3044 40.6919 20.3044C39.319 20.3044 38.1312 20.0865 37.1284 19.6508C36.1257 19.2151 35.3408 18.5973 34.7737 17.7975C34.2067 16.9917 33.8933 16.0366 33.8336 14.9324H36.6091C36.6629 15.5949 36.8777 16.1471 37.2538 16.5888C37.6358 17.0245 38.1223 17.3498 38.7132 17.5647C39.3101 17.7736 39.9637 17.8781 40.674 17.8781C41.4559 17.8781 42.1513 17.7557 42.7601 17.511C43.3749 17.2603 43.8584 16.9141 44.2106 16.4724C44.5627 16.0247 44.7388 15.5024 44.7388 14.9055C44.7388 14.3624 44.5836 13.9177 44.2732 13.5715C43.9688 13.2253 43.554 12.9388 43.0287 12.712C42.5094 12.4851 41.9215 12.2852 41.2649 12.1121L39.0982 11.5212C37.6298 11.1212 36.4659 10.5333 35.6064 9.75735C34.7528 8.98139 34.326 7.95474 34.326 6.67739C34.326 5.6209 34.6125 4.6987 35.1856 3.9108C35.7586 3.12291 36.5345 2.51109 37.5134 2.07536C38.4923 1.63366 39.5966 1.41281 40.8262 1.41281C42.0677 1.41281 43.163 1.63068 44.1121 2.06641C45.0671 2.50214 45.8192 3.10202 46.3683 3.86604C46.9175 4.62409 47.204 5.49555 47.2278 6.48042H44.5597ZM52.2619 25.1571C51.8619 25.1571 51.4978 25.1243 51.1696 25.0587C50.8413 24.999 50.5965 24.9333 50.4354 24.8617L51.08 22.6681C51.5695 22.7994 52.0052 22.8561 52.3872 22.8382C52.7692 22.8203 53.1065 22.6771 53.3989 22.4085C53.6974 22.1399 53.96 21.7011 54.1868 21.0923L54.5181 20.1791L49.4863 6.24763H52.3514L55.8343 16.92H55.9775L59.4604 6.24763H62.3344L56.6669 21.8354C56.4043 22.5517 56.07 23.1576 55.6641 23.653C55.2583 24.1544 54.7748 24.5304 54.2137 24.7811C53.6526 25.0318 53.002 25.1571 52.2619 25.1571ZM70.3096 20.2776C68.9547 20.2776 67.7877 19.9881 66.8088 19.4091C65.8359 18.8241 65.0838 18.0034 64.5526 16.9469C64.0273 15.8844 63.7647 14.6399 63.7647 13.2133C63.7647 11.8047 64.0273 10.5632 64.5526 9.48875C65.0838 8.41435 65.824 7.57571 66.773 6.97285C67.7281 6.36999 68.8442 6.06856 70.1216 6.06856C70.8975 6.06856 71.6496 6.1969 72.3778 6.45356C73.106 6.71022 73.7596 7.11312 74.3386 7.66226C74.9176 8.2114 75.3742 8.92469 75.7085 9.80212C76.0427 10.6736 76.2099 11.7331 76.2099 12.9806V13.9296H65.2778V11.9241H73.5865C73.5865 11.2197 73.4433 10.596 73.1568 10.0528C72.8703 9.50367 72.4674 9.07093 71.9481 8.75457C71.4347 8.43822 70.8319 8.28005 70.1395 8.28005C69.3874 8.28005 68.7308 8.46508 68.1698 8.83515C67.6146 9.19926 67.1849 9.67677 66.8805 10.2677C66.582 10.8526 66.4328 11.4883 66.4328 12.1748V13.7416C66.4328 14.6608 66.594 15.4427 66.9163 16.0874C67.2446 16.732 67.7012 17.2245 68.2861 17.5647C68.8711 17.8989 69.5545 18.0661 70.3365 18.0661C70.8438 18.0661 71.3064 17.9944 71.7242 17.8512C72.1421 17.702 72.5032 17.4811 72.8076 17.1886C73.112 16.8962 73.3448 16.535 73.506 16.1053L76.0398 16.5619C75.8368 17.308 75.4727 17.9616 74.9475 18.5227C74.4282 19.0778 73.7746 19.5105 72.9867 19.8209C72.2047 20.1253 71.3124 20.2776 70.3096 20.2776ZM84.3283 20.2686C83.2181 20.2686 82.2273 19.9851 81.3558 19.418C80.4903 18.845 79.8099 18.0303 79.3145 16.9738C78.825 15.9113 78.5803 14.6369 78.5803 13.1507C78.5803 11.6644 78.828 10.393 79.3234 9.33654C79.8248 8.28005 80.5112 7.47126 81.3827 6.91018C82.2541 6.3491 83.242 6.06856 84.3462 6.06856C85.1998 6.06856 85.8862 6.21182 86.4055 6.49833C86.9308 6.77886 87.3367 7.10715 87.6232 7.4832C87.9157 7.85924 88.1425 8.19051 88.3036 8.47702H88.4648V1.66351H91.1419V20H88.5275V17.8601H88.3036C88.1425 18.1526 87.9097 18.4869 87.6053 18.8629C87.3068 19.239 86.895 19.5673 86.3697 19.8478C85.8444 20.1283 85.164 20.2686 84.3283 20.2686ZM84.9193 17.9855C85.6893 17.9855 86.3399 17.7825 86.8711 17.3767C87.4083 16.9648 87.8142 16.3948 88.0888 15.6666C88.3693 14.9384 88.5096 14.0908 88.5096 13.1238C88.5096 12.1688 88.3723 11.3331 88.0977 10.6169C87.8231 9.9006 87.4202 9.34251 86.889 8.94259C86.3578 8.54268 85.7012 8.34272 84.9193 8.34272C84.1135 8.34272 83.442 8.55163 82.9048 8.96945C82.3676 9.38728 81.9617 9.95731 81.6871 10.6795C81.4185 11.4018 81.2842 12.2165 81.2842 13.1238C81.2842 14.043 81.4215 14.8697 81.6961 15.6039C81.9706 16.3381 82.3765 16.92 82.9137 17.3498C83.4569 17.7736 84.1254 17.9855 84.9193 17.9855ZM108.592 14.055H111.314L113.23 16.553L114.134 17.6632L117.187 21.6474H114.358L112.317 18.9883L111.618 18.0213L108.592 14.055ZM117.778 10.8318C117.778 12.7896 117.42 14.4728 116.704 15.8815C115.987 17.2841 115.006 18.3645 113.758 19.1226C112.517 19.8747 111.105 20.2507 109.523 20.2507C107.935 20.2507 106.518 19.8747 105.27 19.1226C104.029 18.3645 103.05 17.2812 102.334 15.8725C101.617 14.4638 101.259 12.7836 101.259 10.8318C101.259 8.87395 101.617 7.1937 102.334 5.79101C103.05 4.38235 104.029 3.30197 105.27 2.54989C106.518 1.79184 107.935 1.41281 109.523 1.41281C111.105 1.41281 112.517 1.79184 113.758 2.54989C115.006 3.30197 115.987 4.38235 116.704 5.79101C117.42 7.1937 117.778 8.87395 117.778 10.8318ZM115.038 10.8318C115.038 9.33953 114.797 8.08307 114.313 7.06239C113.836 6.03574 113.179 5.25978 112.343 4.73451C111.514 4.20328 110.574 3.93766 109.523 3.93766C108.467 3.93766 107.524 4.20328 106.694 4.73451C105.864 5.25978 105.208 6.03574 104.724 7.06239C104.247 8.08307 104.008 9.33953 104.008 10.8318C104.008 12.324 104.247 13.5834 104.724 14.6101C105.208 15.6308 105.864 16.4067 106.694 16.9379C107.524 17.4632 108.467 17.7258 109.523 17.7258C110.574 17.7258 111.514 17.4632 112.343 16.9379C113.179 16.4067 113.836 15.6308 114.313 14.6101C114.797 13.5834 115.038 12.324 115.038 10.8318ZM125.015 20.3044C124.143 20.3044 123.355 20.1433 122.651 19.8209C121.947 19.4926 121.389 19.0181 120.977 18.3973C120.571 17.7766 120.368 17.0155 120.368 16.1142C120.368 15.3383 120.517 14.6996 120.816 14.1982C121.114 13.6968 121.517 13.2999 122.024 13.0074C122.532 12.7149 123.099 12.4941 123.725 12.3449C124.352 12.1957 124.991 12.0822 125.641 12.0046C126.465 11.9091 127.134 11.8315 127.647 11.7719C128.16 11.7062 128.533 11.6017 128.766 11.4585C128.999 11.3152 129.115 11.0824 129.115 10.7601V10.6975C129.115 9.91553 128.894 9.30968 128.453 8.87992C128.017 8.45016 127.366 8.23528 126.501 8.23528C125.6 8.23528 124.889 8.43524 124.37 8.83515C123.857 9.2291 123.502 9.66782 123.305 10.1513L120.789 9.57828C121.087 8.74264 121.523 8.06815 122.096 7.55482C122.675 7.03553 123.34 6.65949 124.092 6.4267C124.845 6.18794 125.635 6.06856 126.465 6.06856C127.014 6.06856 127.596 6.13422 128.211 6.26554C128.832 6.39089 129.411 6.62367 129.948 6.9639C130.491 7.30413 130.936 7.79059 131.282 8.4233C131.628 9.05003 131.801 9.86479 131.801 10.8676V20H129.187V18.1198H129.079C128.906 18.466 128.647 18.8062 128.301 19.1405C127.954 19.4747 127.51 19.7523 126.967 19.9731C126.423 20.194 125.773 20.3044 125.015 20.3044ZM125.597 18.1556C126.337 18.1556 126.969 18.0094 127.495 17.7169C128.026 17.4244 128.429 17.0424 128.703 16.5709C128.984 16.0933 129.124 15.583 129.124 15.0398V13.2671C129.029 13.3626 128.844 13.4521 128.569 13.5357C128.301 13.6133 127.993 13.6819 127.647 13.7416C127.301 13.7953 126.964 13.8461 126.635 13.8938C126.307 13.9356 126.032 13.9714 125.812 14.0012C125.292 14.0669 124.818 14.1773 124.388 14.3325C123.964 14.4877 123.624 14.7115 123.367 15.004C123.117 15.2905 122.991 15.6725 122.991 16.1501C122.991 16.8126 123.236 17.314 123.725 17.6542C124.215 17.9885 124.839 18.1556 125.597 18.1556ZM145.672 9.60514L143.246 10.0349C143.144 9.72452 142.983 9.42906 142.762 9.14852C142.548 8.86798 142.255 8.63818 141.885 8.45911C141.515 8.28005 141.052 8.19051 140.497 8.19051C139.739 8.19051 139.107 8.36063 138.599 8.70085C138.092 9.03511 137.838 9.46786 137.838 9.99909C137.838 10.4587 138.008 10.8288 138.348 11.1093C138.689 11.3898 139.238 11.6197 139.996 11.7987L142.181 12.3001C143.446 12.5926 144.389 13.0432 145.01 13.6521C145.631 14.2609 145.941 15.0518 145.941 16.0247C145.941 16.8484 145.702 17.5826 145.225 18.2272C144.753 18.8659 144.094 19.3673 143.246 19.7314C142.404 20.0955 141.428 20.2776 140.318 20.2776C138.778 20.2776 137.522 19.9493 136.549 19.2927C135.576 18.6301 134.979 17.69 134.758 16.4724L137.346 16.0784C137.507 16.7529 137.838 17.2633 138.34 17.6095C138.841 17.9497 139.494 18.1198 140.3 18.1198C141.178 18.1198 141.879 17.9377 142.404 17.5736C142.93 17.2036 143.192 16.7529 143.192 16.2217C143.192 15.7919 143.031 15.4308 142.709 15.1383C142.392 14.8458 141.906 14.625 141.249 14.4758L138.921 13.9654C137.638 13.673 136.689 13.2074 136.074 12.5687C135.465 11.93 135.161 11.1212 135.161 10.1423C135.161 9.33057 135.388 8.62027 135.842 8.01144C136.295 7.40262 136.922 6.92809 137.722 6.58786C138.522 6.24166 139.438 6.06856 140.47 6.06856C141.957 6.06856 143.127 6.39089 143.98 7.03553C144.834 7.6742 145.398 8.53074 145.672 9.60514ZM148.884 20V6.24763H151.561V20H148.884ZM150.236 4.12568C149.771 4.12568 149.371 3.97049 149.037 3.66011C148.708 3.34376 148.544 2.96771 148.544 2.53198C148.544 2.09029 148.708 1.71424 149.037 1.40386C149.371 1.08751 149.771 0.929333 150.236 0.929333C150.702 0.929333 151.099 1.08751 151.427 1.40386C151.761 1.71424 151.928 2.09029 151.928 2.53198C151.928 2.96771 151.761 3.34376 151.427 3.66011C151.099 3.97049 150.702 4.12568 150.236 4.12568ZM155.163 20V6.24763H157.733V8.48597H157.903C158.189 7.72792 158.658 7.137 159.308 6.71321C159.959 6.28345 160.738 6.06856 161.645 6.06856C162.564 6.06856 163.334 6.28345 163.955 6.71321C164.582 7.14297 165.044 7.73389 165.343 8.48597H165.486C165.814 7.7518 166.337 7.16684 167.053 6.73111C167.769 6.28941 168.623 6.06856 169.614 6.06856C170.861 6.06856 171.879 6.45953 172.667 7.24146C173.461 8.02338 173.858 9.20224 173.858 10.778V20H171.18V11.0287C171.18 10.0976 170.927 9.42309 170.419 9.00527C169.912 8.58744 169.306 8.37853 168.602 8.37853C167.73 8.37853 167.053 8.64713 166.569 9.18434C166.086 9.71557 165.844 10.399 165.844 11.2347V20H163.176V10.8586C163.176 10.1125 162.943 9.51262 162.478 9.05899C162.012 8.60535 161.406 8.37853 160.66 8.37853C160.153 8.37853 159.684 8.51283 159.255 8.78143C158.831 9.04407 158.488 9.41115 158.225 9.8827C157.968 10.3542 157.84 10.9004 157.84 11.5212V20H155.163Z" fill="white"/>
</svg>
