<svg width="222" height="32" viewBox="0 0 222 32" fill="none" xmlns="http://www.w3.org/2000/svg">
<path d="M6.90909 25H0.0909092V1.72727H7.31818C9.53788 1.72727 11.4356 2.18939 13.0114 3.11364C14.5947 4.03788 15.8068 5.36364 16.6477 7.09091C17.4886 8.81818 17.9091 10.8902 17.9091 13.3068C17.9091 15.7462 17.4773 17.8409 16.6136 19.5909C15.7576 21.3333 14.5076 22.6705 12.8636 23.6023C11.2273 24.5341 9.24242 25 6.90909 25ZM2.21591 23.0909H6.78409C8.78409 23.0909 10.4583 22.697 11.8068 21.9091C13.1553 21.1212 14.1667 19.9962 14.8409 18.5341C15.5152 17.072 15.8523 15.3295 15.8523 13.3068C15.8447 11.2992 15.5114 9.57197 14.8523 8.125C14.2008 6.67803 13.2311 5.56818 11.9432 4.79545C10.6629 4.02273 9.07955 3.63636 7.19318 3.63636H2.21591V23.0909ZM22.6392 25V7.54545H24.6051V10.2273H24.7528C25.1013 9.34848 25.7074 8.64015 26.571 8.10227C27.4422 7.55682 28.4271 7.28409 29.5256 7.28409C29.6922 7.28409 29.8778 7.28788 30.0824 7.29545C30.2869 7.30303 30.4574 7.31061 30.5938 7.31818V9.375C30.5028 9.35985 30.3438 9.33712 30.1165 9.30682C29.8892 9.27651 29.643 9.26136 29.3778 9.26136C28.4688 9.26136 27.6581 9.45455 26.946 9.84091C26.2415 10.2197 25.6847 10.7462 25.2756 11.4205C24.8665 12.0947 24.6619 12.8636 24.6619 13.7273V25H22.6392ZM56.1023 7.54545C55.9735 6.25 55.4015 5.2197 54.3864 4.45454C53.3712 3.68939 52.0947 3.30682 50.5568 3.30682C49.4735 3.30682 48.5189 3.49242 47.6932 3.86364C46.875 4.23485 46.2311 4.75 45.7614 5.40909C45.2992 6.06061 45.0682 6.80303 45.0682 7.63636C45.0682 8.25 45.2008 8.78788 45.4659 9.25C45.7311 9.71212 46.0871 10.1098 46.5341 10.4432C46.9886 10.7689 47.4886 11.0492 48.0341 11.2841C48.5871 11.5189 49.1439 11.7159 49.7045 11.875L52.1591 12.5795C52.9015 12.7841 53.6439 13.0455 54.3864 13.3636C55.1288 13.6818 55.8068 14.0833 56.4205 14.5682C57.0417 15.0455 57.5379 15.6326 57.9091 16.3295C58.2879 17.0189 58.4773 17.8485 58.4773 18.8182C58.4773 20.0606 58.1553 21.178 57.5114 22.1705C56.8674 23.1629 55.9432 23.9508 54.7386 24.5341C53.5341 25.1098 52.0909 25.3977 50.4091 25.3977C48.8258 25.3977 47.4508 25.1364 46.2841 24.6136C45.1174 24.0833 44.2008 23.3523 43.5341 22.4205C42.8674 21.4886 42.4924 20.4091 42.4091 19.1818H44.5909C44.6667 20.0985 44.9697 20.875 45.5 21.5114C46.0303 22.1477 46.7197 22.6326 47.5682 22.9659C48.4167 23.2917 49.3636 23.4545 50.4091 23.4545C51.5682 23.4545 52.5985 23.2614 53.5 22.875C54.4091 22.4811 55.1212 21.9356 55.6364 21.2386C56.1591 20.5341 56.4205 19.7159 56.4205 18.7841C56.4205 17.9962 56.2159 17.3371 55.8068 16.8068C55.3977 16.2689 54.8258 15.8182 54.0909 15.4545C53.3636 15.0909 52.5189 14.7689 51.5568 14.4886L48.7727 13.6705C46.947 13.125 45.5303 12.3712 44.5227 11.4091C43.5152 10.447 43.0114 9.2197 43.0114 7.72727C43.0114 6.47727 43.3447 5.37879 44.0114 4.43182C44.6856 3.47727 45.5947 2.73485 46.7386 2.20454C47.8902 1.66667 49.1818 1.39773 50.6136 1.39773C52.0606 1.39773 53.3409 1.66288 54.4545 2.19318C55.5682 2.72348 56.4508 3.45454 57.1023 4.38636C57.7614 5.3106 58.1136 6.36364 58.1591 7.54545H56.1023ZM64.5795 31.5455C64.178 31.5455 63.803 31.5076 63.4545 31.4318C63.1061 31.3561 62.8295 31.2727 62.625 31.1818L63.1705 29.3977C63.8598 29.6098 64.4735 29.6856 65.0114 29.625C65.5492 29.572 66.0265 29.3295 66.4432 28.8977C66.8598 28.4735 67.2311 27.822 67.5568 26.9432L68.1932 25.1705L61.7727 7.54545H63.9659L69.1477 22.3295H69.3068L74.4886 7.54545H76.6818L69.2955 27.7614C68.9848 28.6023 68.6023 29.303 68.1477 29.8636C67.6932 30.4318 67.1667 30.8523 66.5682 31.125C65.9773 31.4053 65.3144 31.5455 64.5795 31.5455ZM87.071 25.3636C85.4422 25.3636 84.0331 24.9848 82.8438 24.2273C81.6544 23.4621 80.7339 22.4053 80.0824 21.0568C79.4384 19.7008 79.1165 18.1402 79.1165 16.375C79.1165 14.6174 79.4384 13.0568 80.0824 11.6932C80.7339 10.322 81.6316 9.25 82.7756 8.47727C83.9271 7.69697 85.2566 7.30682 86.7642 7.30682C87.7112 7.30682 88.6241 7.48106 89.5028 7.82954C90.3816 8.17045 91.1695 8.69697 91.8665 9.40909C92.571 10.1136 93.1278 11.0038 93.5369 12.0795C93.946 13.1477 94.1506 14.4129 94.1506 15.875V16.875H80.5142V15.0909H92.0824C92.0824 13.9697 91.8551 12.9621 91.4006 12.0682C90.9536 11.1667 90.3286 10.4545 89.5256 9.93182C88.7301 9.40909 87.8097 9.14773 86.7642 9.14773C85.6581 9.14773 84.6847 9.44318 83.8438 10.0341C83.0028 10.625 82.3438 11.4053 81.8665 12.375C81.3968 13.3447 81.1581 14.4053 81.1506 15.5568V16.625C81.1506 18.0114 81.3892 19.2235 81.8665 20.2614C82.3513 21.2917 83.0369 22.0909 83.9233 22.6591C84.8097 23.2273 85.8589 23.5114 87.071 23.5114C87.8968 23.5114 88.6203 23.3826 89.2415 23.125C89.8703 22.8674 90.3968 22.5227 90.821 22.0909C91.2528 21.6515 91.5786 21.1705 91.7983 20.6477L93.7188 21.2727C93.4536 22.0076 93.018 22.6856 92.4119 23.3068C91.8134 23.928 91.0634 24.428 90.1619 24.8068C89.268 25.178 88.2377 25.3636 87.071 25.3636ZM104.892 25.3636C103.46 25.3636 102.206 24.9848 101.131 24.2273C100.055 23.4697 99.214 22.4129 98.608 21.0568C98.0095 19.7008 97.7102 18.1212 97.7102 16.3182C97.7102 14.5227 98.0095 12.9508 98.608 11.6023C99.214 10.2462 100.059 9.19318 101.142 8.44318C102.225 7.68561 103.487 7.30682 104.926 7.30682C105.987 7.30682 106.869 7.49621 107.574 7.875C108.278 8.24621 108.843 8.70833 109.267 9.26136C109.691 9.81439 110.021 10.3523 110.256 10.875H110.438V1.72727H112.472V25H110.494V21.7614H110.256C110.021 22.2917 109.688 22.8371 109.256 23.3977C108.824 23.9508 108.252 24.4167 107.54 24.7955C106.835 25.1742 105.953 25.3636 104.892 25.3636ZM105.131 23.5114C106.259 23.5114 107.222 23.2045 108.017 22.5909C108.813 21.9697 109.419 21.1174 109.835 20.0341C110.259 18.9432 110.472 17.6932 110.472 16.2841C110.472 14.8902 110.263 13.6591 109.847 12.5909C109.43 11.5152 108.824 10.6742 108.028 10.0682C107.233 9.45455 106.267 9.14773 105.131 9.14773C103.964 9.14773 102.979 9.46591 102.176 10.1023C101.381 10.7311 100.775 11.5833 100.358 12.6591C99.9489 13.7348 99.7443 14.9432 99.7443 16.2841C99.7443 17.6402 99.9527 18.8636 100.369 19.9545C100.786 21.0455 101.392 21.9129 102.188 22.5568C102.991 23.1932 103.972 23.5114 105.131 23.5114ZM133.097 16.6364H137.642L139.574 19.1023L142.108 22.0114L146.006 26.8182H140.915L138.188 23.5568L136.574 21.2386L133.097 16.6364ZM146.165 13.3636C146.165 15.9242 145.672 18.0947 144.688 19.875C143.703 21.6553 142.369 23.0076 140.688 23.9318C139.013 24.8561 137.134 25.3182 135.051 25.3182C132.96 25.3182 131.078 24.8523 129.403 23.9205C127.729 22.9886 126.4 21.6364 125.415 19.8636C124.438 18.0833 123.949 15.9167 123.949 13.3636C123.949 10.803 124.438 8.63258 125.415 6.85227C126.4 5.07197 127.729 3.7197 129.403 2.79545C131.078 1.87121 132.96 1.40909 135.051 1.40909C137.134 1.40909 139.013 1.87121 140.688 2.79545C142.369 3.7197 143.703 5.07197 144.688 6.85227C145.672 8.63258 146.165 10.803 146.165 13.3636ZM140.415 13.3636C140.415 11.8485 140.199 10.5682 139.767 9.52273C139.343 8.47727 138.729 7.6856 137.926 7.14773C137.131 6.60985 136.172 6.34091 135.051 6.34091C133.938 6.34091 132.979 6.60985 132.176 7.14773C131.373 7.6856 130.756 8.47727 130.324 9.52273C129.9 10.5682 129.688 11.8485 129.688 13.3636C129.688 14.8788 129.9 16.1591 130.324 17.2045C130.756 18.25 131.373 19.0417 132.176 19.5795C132.979 20.1174 133.938 20.3864 135.051 20.3864C136.172 20.3864 137.131 20.1174 137.926 19.5795C138.729 19.0417 139.343 18.25 139.767 17.2045C140.199 16.1591 140.415 14.8788 140.415 13.3636ZM154.401 25.2955C153.287 25.2955 152.298 25.1098 151.435 24.7386C150.579 24.3598 149.901 23.7917 149.401 23.0341C148.908 22.2689 148.662 21.3106 148.662 20.1591C148.662 19.1894 148.832 18.3712 149.173 17.7045C149.514 17.0379 149.984 16.4962 150.582 16.0795C151.181 15.6629 151.87 15.3485 152.651 15.1364C153.431 14.9167 154.264 14.7689 155.151 14.6932C156.143 14.6023 156.942 14.5076 157.548 14.4091C158.154 14.303 158.594 14.1553 158.866 13.9659C159.147 13.7689 159.287 13.4924 159.287 13.1364V13.0795C159.287 12.4962 159.086 12.0455 158.685 11.7273C158.283 11.4091 157.741 11.25 157.06 11.25C156.325 11.25 155.734 11.4091 155.287 11.7273C154.84 12.0455 154.556 12.4848 154.435 13.0455L149.31 12.8636C149.461 11.803 149.851 10.8561 150.48 10.0227C151.116 9.18182 151.988 8.52273 153.094 8.04545C154.207 7.56061 155.545 7.31818 157.105 7.31818C158.219 7.31818 159.245 7.45076 160.185 7.71591C161.124 7.97348 161.942 8.35227 162.639 8.85227C163.336 9.3447 163.874 9.95076 164.253 10.6705C164.639 11.3902 164.832 12.2121 164.832 13.1364V25H159.605V22.5682H159.469C159.158 23.1591 158.76 23.6591 158.276 24.0682C157.798 24.4773 157.234 24.7841 156.582 24.9886C155.938 25.1932 155.211 25.2955 154.401 25.2955ZM156.116 21.6591C156.715 21.6591 157.253 21.5379 157.73 21.2955C158.215 21.053 158.601 20.7197 158.889 20.2955C159.177 19.8636 159.321 19.3636 159.321 18.7955V17.1364C159.162 17.2197 158.969 17.2955 158.741 17.3636C158.522 17.4318 158.279 17.4962 158.014 17.5568C157.749 17.6174 157.476 17.6705 157.196 17.7159C156.916 17.7614 156.647 17.803 156.389 17.8409C155.866 17.9242 155.42 18.053 155.048 18.2273C154.685 18.4015 154.404 18.6288 154.207 18.9091C154.018 19.1818 153.923 19.5076 153.923 19.8864C153.923 20.4621 154.128 20.9015 154.537 21.2045C154.954 21.5076 155.48 21.6591 156.116 21.6591ZM183.469 12.875L178.366 13.0114C178.313 12.6477 178.17 12.3258 177.935 12.0455C177.7 11.7576 177.393 11.5341 177.014 11.375C176.643 11.2083 176.211 11.125 175.719 11.125C175.075 11.125 174.526 11.2538 174.071 11.5114C173.624 11.7689 173.404 12.1174 173.412 12.5568C173.404 12.8977 173.541 13.1932 173.821 13.4432C174.109 13.6932 174.62 13.8939 175.355 14.0455L178.719 14.6818C180.461 15.0152 181.757 15.5682 182.605 16.3409C183.461 17.1136 183.893 18.1364 183.901 19.4091C183.893 20.6061 183.537 21.6477 182.832 22.5341C182.135 23.4205 181.181 24.1098 179.969 24.6023C178.757 25.0871 177.37 25.3295 175.81 25.3295C173.317 25.3295 171.351 24.8182 169.912 23.7955C168.48 22.7652 167.662 21.3864 167.457 19.6591L172.946 19.5227C173.067 20.1591 173.382 20.6439 173.889 20.9773C174.397 21.3106 175.045 21.4773 175.832 21.4773C176.545 21.4773 177.124 21.3447 177.571 21.0795C178.018 20.8144 178.245 20.4621 178.253 20.0227C178.245 19.6288 178.071 19.3144 177.73 19.0795C177.389 18.8371 176.855 18.6477 176.128 18.5114L173.082 17.9318C171.332 17.6136 170.029 17.0265 169.173 16.1705C168.317 15.3068 167.893 14.2083 167.901 12.875C167.893 11.7083 168.204 10.7121 168.832 9.88636C169.461 9.05303 170.355 8.41667 171.514 7.97727C172.673 7.53788 174.041 7.31818 175.616 7.31818C177.98 7.31818 179.844 7.81439 181.207 8.80682C182.571 9.79167 183.325 11.1477 183.469 12.875ZM186.636 25V7.54545H192.193V25H186.636ZM189.42 5.51136C188.64 5.51136 187.97 5.25379 187.409 4.73864C186.848 4.21591 186.568 3.58712 186.568 2.85227C186.568 2.125 186.848 1.50379 187.409 0.988636C187.97 0.465908 188.64 0.204544 189.42 0.204544C190.208 0.204544 190.879 0.465908 191.432 0.988636C191.992 1.50379 192.273 2.125 192.273 2.85227C192.273 3.58712 191.992 4.21591 191.432 4.73864C190.879 5.25379 190.208 5.51136 189.42 5.51136ZM195.73 25V7.54545H201.014V10.75H201.207C201.571 9.68939 202.185 8.85227 203.048 8.23864C203.912 7.625 204.942 7.31818 206.139 7.31818C207.351 7.31818 208.389 7.62879 209.253 8.25C210.116 8.87121 210.666 9.70455 210.901 10.75H211.082C211.408 9.71212 212.045 8.88258 212.991 8.26136C213.938 7.63258 215.056 7.31818 216.344 7.31818C217.995 7.31818 219.336 7.84848 220.366 8.90909C221.397 9.96212 221.912 11.4091 221.912 13.25V25H216.355V14.5227C216.355 13.6515 216.132 12.9886 215.685 12.5341C215.238 12.072 214.658 11.8409 213.946 11.8409C213.181 11.8409 212.579 12.0909 212.139 12.5909C211.707 13.0833 211.491 13.7462 211.491 14.5795V25H206.151V14.4659C206.151 13.6553 205.931 13.0152 205.491 12.5455C205.052 12.0758 204.473 11.8409 203.753 11.8409C203.268 11.8409 202.84 11.9583 202.469 12.1932C202.098 12.4205 201.806 12.7462 201.594 13.1705C201.389 13.5947 201.287 14.0947 201.287 14.6705V25H195.73Z" fill="#010C0D"/>
</svg>
