<svg width="16" height="22" viewBox="0 0 16 22" fill="none" xmlns="http://www.w3.org/2000/svg">
<path d="M14 9.66667C14 14.3333 8 18.3333 8 18.3333C8 18.3333 2 14.3333 2 9.66667C2 8.07537 2.63214 6.54925 3.75736 5.42403C4.88258 4.29881 6.4087 3.66667 8 3.66667C9.5913 3.66667 11.1174 4.29881 12.2426 5.42403C13.3679 6.54925 14 8.07537 14 9.66667Z" stroke="white" stroke-width="1.5" stroke-linecap="round" stroke-linejoin="round"/>
<path d="M8 11.6667C9.10457 11.6667 10 10.7712 10 9.66667C10 8.5621 9.10457 7.66667 8 7.66667C6.89543 7.66667 6 8.5621 6 9.66667C6 10.7712 6.89543 11.6667 8 11.6667Z" stroke="white" stroke-width="1.5" stroke-linecap="round" stroke-linejoin="round"/>
</svg>
