<svg width="30" height="30" viewBox="0 0 30 30" fill="none" xmlns="http://www.w3.org/2000/svg">
<g clip-path="url(#clip0_63_2436)">
<path d="M30.0001 2.50013C30.0001 1.83709 29.7367 1.2012 29.2678 0.732363C28.799 0.263522 28.1631 0.000129708 27.5001 0.000129708H2.50006C2.16913 -0.00742062 1.84029 0.0542862 1.53462 0.181291C1.22894 0.308296 0.953192 0.497795 0.725057 0.73763C0.490857 0.966779 0.30579 1.24123 0.181142 1.54426C0.0564952 1.84728 -0.00511922 2.17251 5.69354e-05 2.50013V11.6376C0.0234266 15.9257 1.50332 20.0785 4.19702 23.415C6.89071 26.7514 10.6383 29.0734 14.8251 30.0001C14.908 30.0121 14.9922 30.0121 15.0751 30.0001C15.158 30.0121 15.2422 30.0121 15.3251 30.0001C19.5071 29.0387 23.2378 26.6837 25.9046 23.3218C28.5713 19.96 30.0156 15.7912 30.0001 11.5001V2.50013ZM20.2126 18.3751C20.2208 19.1471 20.1496 19.9178 20.0001 20.6751C19.9682 20.834 19.8823 20.9768 19.757 21.0794C19.6316 21.182 19.4745 21.2379 19.3126 21.2376C19.1425 21.2386 18.9781 21.1766 18.8511 21.0635C18.7241 20.9503 18.6436 20.7942 18.6251 20.6251C18.3501 18.0251 16.8376 16.0376 15.0251 16.0376C13.2126 16.0376 11.7126 18.0126 11.4251 20.6126C11.4065 20.785 11.3246 20.9443 11.1953 21.0598C11.066 21.1753 10.8984 21.2386 10.7251 21.2376C10.5597 21.2506 10.3952 21.2033 10.262 21.1045C10.1288 21.0057 10.0357 20.8621 10.0001 20.7001C9.84299 19.9351 9.76342 19.1561 9.76256 18.3751C9.7562 17.07 9.98485 15.7743 10.4376 14.5501C10.4761 14.4433 10.4861 14.3282 10.4663 14.2164C10.4466 14.1045 10.3979 13.9998 10.3251 13.9126C9.20487 12.5293 8.64301 10.7769 8.75006 9.00013C8.75006 6.66263 10.2626 4.81263 12.1376 4.81263C12.5882 4.8111 13.0344 4.90117 13.4491 5.07737C13.8638 5.25357 14.2384 5.51223 14.5501 5.83763C14.6695 5.95671 14.8314 6.02357 15.0001 6.02357C15.1688 6.02357 15.3306 5.95671 15.4501 5.83763C15.7617 5.51223 16.1363 5.25357 16.551 5.07737C16.9658 4.90117 17.412 4.8111 17.8626 4.81263C19.7376 4.81263 21.2501 6.66263 21.2501 9.00013C21.3501 10.7801 20.7792 12.533 19.6501 13.9126C19.5772 13.9998 19.5285 14.1045 19.5088 14.2164C19.4891 14.3282 19.499 14.4433 19.5376 14.5501C19.9877 15.775 20.2162 17.0702 20.2126 18.3751Z" fill="white"/>
</g>
<defs>
<clipPath id="clip0_63_2436">
<rect width="30" height="30" fill="white"/>
</clipPath>
</defs>
</svg>
